<svg width="27" height="27" viewBox="0 0 27 27" fill="none" xmlns="http://www.w3.org/2000/svg">
<path d="M2.86021 3.81738H23.8474C24.1004 3.81738 24.3431 3.91789 24.522 4.09679C24.7009 4.2757 24.8014 4.51834 24.8014 4.77135V21.9427C24.8014 22.1957 24.7009 22.4384 24.522 22.6173C24.3431 22.7962 24.1004 22.8967 23.8474 22.8967H2.86021C2.60721 22.8967 2.36456 22.7962 2.18566 22.6173C2.00676 22.4384 1.90625 22.1957 1.90625 21.9427V4.77135C1.90625 4.51834 2.00676 4.2757 2.18566 4.09679C2.36456 3.91789 2.60721 3.81738 2.86021 3.81738V3.81738ZM2.86021 8.5872V21.9427H23.8474V8.5872H2.86021ZM4.76814 10.0182H6.67607C6.80258 10.0182 6.9239 10.0684 7.01335 10.1579C7.1028 10.2473 7.15305 10.3686 7.15305 10.4951V12.4031C7.15305 12.5296 7.1028 12.6509 7.01335 12.7403C6.9239 12.8298 6.80258 12.88 6.67607 12.88H4.76814C4.64164 12.88 4.52032 12.8298 4.43087 12.7403C4.34141 12.6509 4.29116 12.5296 4.29116 12.4031V10.4951C4.29116 10.3686 4.34141 10.2473 4.43087 10.1579C4.52032 10.0684 4.64164 10.0182 4.76814 10.0182V10.0182ZM4.76814 13.834H6.67607C6.80258 13.834 6.9239 13.8843 7.01335 13.9737C7.1028 14.0632 7.15305 14.1845 7.15305 14.311V16.2189C7.15305 16.3454 7.1028 16.4667 7.01335 16.5562C6.9239 16.6456 6.80258 16.6959 6.67607 16.6959H4.76814C4.64164 16.6959 4.52032 16.6456 4.43087 16.5562C4.34141 16.4667 4.29116 16.3454 4.29116 16.2189V14.311C4.29116 14.1845 4.34141 14.0632 4.43087 13.9737C4.52032 13.8843 4.64164 13.834 4.76814 13.834V13.834ZM4.76814 17.6499H6.67607C6.80258 17.6499 6.9239 17.7001 7.01335 17.7896C7.1028 17.879 7.15305 18.0003 7.15305 18.1268V20.0348C7.15305 20.1613 7.1028 20.2826 7.01335 20.3721C6.9239 20.4615 6.80258 20.5118 6.67607 20.5118H4.76814C4.64164 20.5118 4.52032 20.4615 4.43087 20.3721C4.34141 20.2826 4.29116 20.1613 4.29116 20.0348V18.1268C4.29116 18.0003 4.34141 17.879 4.43087 17.7896C4.52032 17.7001 4.64164 17.6499 4.76814 17.6499V17.6499ZM8.584 10.0182H10.4919C10.6184 10.0182 10.7398 10.0684 10.8292 10.1579C10.9187 10.2473 10.9689 10.3686 10.9689 10.4951V12.4031C10.9689 12.5296 10.9187 12.6509 10.8292 12.7403C10.7398 12.8298 10.6184 12.88 10.4919 12.88H8.584C8.4575 12.88 8.33618 12.8298 8.24672 12.7403C8.15727 12.6509 8.10702 12.5296 8.10702 12.4031V10.4951C8.10702 10.3686 8.15727 10.2473 8.24672 10.1579C8.33618 10.0684 8.4575 10.0182 8.584 10.0182ZM8.584 13.834H10.4919C10.6184 13.834 10.7398 13.8843 10.8292 13.9737C10.9187 14.0632 10.9689 14.1845 10.9689 14.311V16.2189C10.9689 16.3454 10.9187 16.4667 10.8292 16.5562C10.7398 16.6456 10.6184 16.6959 10.4919 16.6959H8.584C8.4575 16.6959 8.33618 16.6456 8.24672 16.5562C8.15727 16.4667 8.10702 16.3454 8.10702 16.2189V14.311C8.10702 14.1845 8.15727 14.0632 8.24672 13.9737C8.33618 13.8843 8.4575 13.834 8.584 13.834ZM8.584 17.6499H10.4919C10.6184 17.6499 10.7398 17.7001 10.8292 17.7896C10.9187 17.879 10.9689 18.0003 10.9689 18.1268V20.0348C10.9689 20.1613 10.9187 20.2826 10.8292 20.3721C10.7398 20.4615 10.6184 20.5118 10.4919 20.5118H8.584C8.4575 20.5118 8.33618 20.4615 8.24672 20.3721C8.15727 20.2826 8.10702 20.1613 8.10702 20.0348V18.1268C8.10702 18.0003 8.15727 17.879 8.24672 17.7896C8.33618 17.7001 8.4575 17.6499 8.584 17.6499ZM12.3999 10.0182H14.3078C14.4343 10.0182 14.5556 10.0684 14.6451 10.1579C14.7345 10.2473 14.7848 10.3686 14.7848 10.4951V12.4031C14.7848 12.5296 14.7345 12.6509 14.6451 12.7403C14.5556 12.8298 14.4343 12.88 14.3078 12.88H12.3999C12.2734 12.88 12.152 12.8298 12.0626 12.7403C11.9731 12.6509 11.9229 12.5296 11.9229 12.4031V10.4951C11.9229 10.3686 11.9731 10.2473 12.0626 10.1579C12.152 10.0684 12.2734 10.0182 12.3999 10.0182ZM12.3999 13.834H14.3078C14.4343 13.834 14.5556 13.8843 14.6451 13.9737C14.7345 14.0632 14.7848 14.1845 14.7848 14.311V16.2189C14.7848 16.3454 14.7345 16.4667 14.6451 16.5562C14.5556 16.6456 14.4343 16.6959 14.3078 16.6959H12.3999C12.2734 16.6959 12.152 16.6456 12.0626 16.5562C11.9731 16.4667 11.9229 16.3454 11.9229 16.2189V14.311C11.9229 14.1845 11.9731 14.0632 12.0626 13.9737C12.152 13.8843 12.2734 13.834 12.3999 13.834ZM12.3999 17.6499H14.3078C14.4343 17.6499 14.5556 17.7001 14.6451 17.7896C14.7345 17.879 14.7848 18.0003 14.7848 18.1268V20.0348C14.7848 20.1613 14.7345 20.2826 14.6451 20.3721C14.5556 20.4615 14.4343 20.5118 14.3078 20.5118H12.3999C12.2734 20.5118 12.152 20.4615 12.0626 20.3721C11.9731 20.2826 11.9229 20.1613 11.9229 20.0348V18.1268C11.9229 18.0003 11.9731 17.879 12.0626 17.7896C12.152 17.7001 12.2734 17.6499 12.3999 17.6499ZM16.2157 10.0182H18.1236C18.2502 10.0182 18.3715 10.0684 18.4609 10.1579C18.5504 10.2473 18.6006 10.3686 18.6006 10.4951V12.4031C18.6006 12.5296 18.5504 12.6509 18.4609 12.7403C18.3715 12.8298 18.2502 12.88 18.1236 12.88H16.2157C16.0892 12.88 15.9679 12.8298 15.8784 12.7403C15.789 12.6509 15.7387 12.5296 15.7387 12.4031V10.4951C15.7387 10.3686 15.789 10.2473 15.8784 10.1579C15.9679 10.0684 16.0892 10.0182 16.2157 10.0182ZM16.2157 13.834H18.1236C18.2502 13.834 18.3715 13.8843 18.4609 13.9737C18.5504 14.0632 18.6006 14.1845 18.6006 14.311V16.2189C18.6006 16.3454 18.5504 16.4667 18.4609 16.5562C18.3715 16.6456 18.2502 16.6959 18.1236 16.6959H16.2157C16.0892 16.6959 15.9679 16.6456 15.8784 16.5562C15.789 16.4667 15.7387 16.3454 15.7387 16.2189V14.311C15.7387 14.1845 15.789 14.0632 15.8784 13.9737C15.9679 13.8843 16.0892 13.834 16.2157 13.834ZM16.2157 17.6499H18.1236C18.2502 17.6499 18.3715 17.7001 18.4609 17.7896C18.5504 17.879 18.6006 18.0003 18.6006 18.1268V20.0348C18.6006 20.1613 18.5504 20.2826 18.4609 20.3721C18.3715 20.4615 18.2502 20.5118 18.1236 20.5118H16.2157C16.0892 20.5118 15.9679 20.4615 15.8784 20.3721C15.789 20.2826 15.7387 20.1613 15.7387 20.0348V18.1268C15.7387 18.0003 15.789 17.879 15.8784 17.7896C15.9679 17.7001 16.0892 17.6499 16.2157 17.6499ZM20.0316 10.0182H21.9395C22.066 10.0182 22.1873 10.0684 22.2768 10.1579C22.3662 10.2473 22.4165 10.3686 22.4165 10.4951V12.4031C22.4165 12.5296 22.3662 12.6509 22.2768 12.7403C22.1873 12.8298 22.066 12.88 21.9395 12.88H20.0316C19.9051 12.88 19.7837 12.8298 19.6943 12.7403C19.6048 12.6509 19.5546 12.5296 19.5546 12.4031V10.4951C19.5546 10.3686 19.6048 10.2473 19.6943 10.1579C19.7837 10.0684 19.9051 10.0182 20.0316 10.0182ZM20.0316 13.834H21.9395C22.066 13.834 22.1873 13.8843 22.2768 13.9737C22.3662 14.0632 22.4165 14.1845 22.4165 14.311V16.2189C22.4165 16.3454 22.3662 16.4667 22.2768 16.5562C22.1873 16.6456 22.066 16.6959 21.9395 16.6959H20.0316C19.9051 16.6959 19.7837 16.6456 19.6943 16.5562C19.6048 16.4667 19.5546 16.3454 19.5546 16.2189V14.311C19.5546 14.1845 19.6048 14.0632 19.6943 13.9737C19.7837 13.8843 19.9051 13.834 20.0316 13.834ZM20.0316 17.6499H21.9395C22.066 17.6499 22.1873 17.7001 22.2768 17.7896C22.3662 17.879 22.4165 18.0003 22.4165 18.1268V20.0348C22.4165 20.1613 22.3662 20.2826 22.2768 20.3721C22.1873 20.4615 22.066 20.5118 21.9395 20.5118H20.0316C19.9051 20.5118 19.7837 20.4615 19.6943 20.3721C19.6048 20.2826 19.5546 20.1613 19.5546 20.0348V18.1268C19.5546 18.0003 19.6048 17.879 19.6943 17.7896C19.7837 17.7001 19.9051 17.6499 20.0316 17.6499ZM2.86021 4.77135V7.63324H23.8474V4.77135H2.86021ZM6.67607 7.15626C6.42307 7.15626 6.18042 7.05575 6.00152 6.87685C5.82262 6.69795 5.72211 6.4553 5.72211 6.20229C5.72211 5.94929 5.82262 5.70664 6.00152 5.52774C6.18042 5.34884 6.42307 5.24833 6.67607 5.24833C6.92908 5.24833 7.17172 5.34884 7.35063 5.52774C7.52953 5.70664 7.63004 5.94929 7.63004 6.20229C7.63004 6.4553 7.52953 6.69795 7.35063 6.87685C7.17172 7.05575 6.92908 7.15626 6.67607 7.15626ZM20.0316 7.15626C19.7786 7.15626 19.5359 7.05575 19.357 6.87685C19.1781 6.69795 19.0776 6.4553 19.0776 6.20229C19.0776 5.94929 19.1781 5.70664 19.357 5.52774C19.5359 5.34884 19.7786 5.24833 20.0316 5.24833C20.2846 5.24833 20.5272 5.34884 20.7061 5.52774C20.885 5.70664 20.9855 5.94929 20.9855 6.20229C20.9855 6.4553 20.885 6.69795 20.7061 6.87685C20.5272 7.05575 20.2846 7.15626 20.0316 7.15626Z" fill="#005DBA"/>
<path fill-rule="evenodd" clip-rule="evenodd" d="M2.86133 8.58637H23.8485V21.9419H2.86133V8.58637ZM4.76926 10.0173C4.64275 10.0173 4.52143 10.0676 4.43198 10.157C4.34253 10.2465 4.29228 10.3678 4.29228 10.4943V12.4022C4.29228 12.5287 4.34253 12.6501 4.43198 12.7395C4.52143 12.829 4.64275 12.8792 4.76926 12.8792H6.67719C6.80369 12.8792 6.92501 12.829 7.01446 12.7395C7.10392 12.6501 7.15417 12.5287 7.15417 12.4022V10.4943C7.15417 10.3678 7.10392 10.2465 7.01446 10.157C6.92501 10.0676 6.80369 10.0173 6.67719 10.0173H4.76926ZM4.76926 13.8332C4.64275 13.8332 4.52143 13.8834 4.43198 13.9729C4.34253 14.0623 4.29228 14.1836 4.29228 14.3102V16.2181C4.29228 16.3446 4.34253 16.4659 4.43198 16.5554C4.52143 16.6448 4.64275 16.6951 4.76926 16.6951H6.67719C6.80369 16.6951 6.92501 16.6448 7.01446 16.5554C7.10392 16.4659 7.15417 16.3446 7.15417 16.2181V14.3102C7.15417 14.1836 7.10392 14.0623 7.01446 13.9729C6.92501 13.8834 6.80369 13.8332 6.67719 13.8332H4.76926ZM4.76926 17.649C4.64275 17.649 4.52143 17.6993 4.43198 17.7887C4.34253 17.8782 4.29228 17.9995 4.29228 18.126V20.0339C4.29228 20.1604 4.34253 20.2818 4.43198 20.3712C4.52143 20.4607 4.64275 20.5109 4.76926 20.5109H6.67719C6.80369 20.5109 6.92501 20.4607 7.01446 20.3712C7.10392 20.2818 7.15417 20.1604 7.15417 20.0339V18.126C7.15417 17.9995 7.10392 17.8782 7.01446 17.7887C6.92501 17.6993 6.80369 17.649 6.67719 17.649H4.76926ZM8.58512 10.0173C8.45861 10.0173 8.33729 10.0676 8.24784 10.157C8.15839 10.2465 8.10813 10.3678 8.10813 10.4943V12.4022C8.10813 12.5287 8.15839 12.6501 8.24784 12.7395C8.33729 12.829 8.45861 12.8792 8.58512 12.8792H10.493C10.6195 12.8792 10.7409 12.829 10.8303 12.7395C10.9198 12.6501 10.97 12.5287 10.97 12.4022V10.4943C10.97 10.3678 10.9198 10.2465 10.8303 10.157C10.7409 10.0676 10.6195 10.0173 10.493 10.0173H8.58512ZM8.58512 13.8332C8.45861 13.8332 8.33729 13.8834 8.24784 13.9729C8.15839 14.0623 8.10813 14.1836 8.10813 14.3102V16.2181C8.10813 16.3446 8.15839 16.4659 8.24784 16.5554C8.33729 16.6448 8.45861 16.6951 8.58512 16.6951H10.493C10.6195 16.6951 10.7409 16.6448 10.8303 16.5554C10.9198 16.4659 10.97 16.3446 10.97 16.2181V14.3102C10.97 14.1836 10.9198 14.0623 10.8303 13.9729C10.7409 13.8834 10.6195 13.8332 10.493 13.8332H8.58512ZM8.58512 17.649C8.45861 17.649 8.33729 17.6993 8.24784 17.7887C8.15839 17.8782 8.10813 17.9995 8.10813 18.126V20.0339C8.10813 20.1604 8.15839 20.2818 8.24784 20.3712C8.33729 20.4607 8.45861 20.5109 8.58512 20.5109H10.493C10.6195 20.5109 10.7409 20.4607 10.8303 20.3712C10.9198 20.2818 10.97 20.1604 10.97 20.0339V18.126C10.97 17.9995 10.9198 17.8782 10.8303 17.7887C10.7409 17.6993 10.6195 17.649 10.493 17.649H8.58512ZM12.401 10.0173C12.2745 10.0173 12.1531 10.0676 12.0637 10.157C11.9742 10.2465 11.924 10.3678 11.924 10.4943V12.4022C11.924 12.5287 11.9742 12.6501 12.0637 12.7395C12.1531 12.829 12.2745 12.8792 12.401 12.8792H14.3089C14.4354 12.8792 14.5567 12.829 14.6462 12.7395C14.7356 12.6501 14.7859 12.5287 14.7859 12.4022V10.4943C14.7859 10.3678 14.7356 10.2465 14.6462 10.157C14.5567 10.0676 14.4354 10.0173 14.3089 10.0173H12.401ZM12.401 13.8332C12.2745 13.8332 12.1531 13.8834 12.0637 13.9729C11.9742 14.0623 11.924 14.1836 11.924 14.3102V16.2181C11.924 16.3446 11.9742 16.4659 12.0637 16.5554C12.1531 16.6448 12.2745 16.6951 12.401 16.6951H14.3089C14.4354 16.6951 14.5567 16.6448 14.6462 16.5554C14.7356 16.4659 14.7859 16.3446 14.7859 16.2181V14.3102C14.7859 14.1836 14.7356 14.0623 14.6462 13.9729C14.5567 13.8834 14.4354 13.8332 14.3089 13.8332H12.401ZM12.401 17.649C12.2745 17.649 12.1531 17.6993 12.0637 17.7887C11.9742 17.8782 11.924 17.9995 11.924 18.126V20.0339C11.924 20.1604 11.9742 20.2818 12.0637 20.3712C12.1531 20.4607 12.2745 20.5109 12.401 20.5109H14.3089C14.4354 20.5109 14.5567 20.4607 14.6462 20.3712C14.7356 20.2818 14.7859 20.1604 14.7859 20.0339V18.126C14.7859 17.9995 14.7356 17.8782 14.6462 17.7887C14.5567 17.6993 14.4354 17.649 14.3089 17.649H12.401ZM16.2168 10.0173C16.0903 10.0173 15.969 10.0676 15.8796 10.157C15.7901 10.2465 15.7399 10.3678 15.7399 10.4943V12.4022C15.7399 12.5287 15.7901 12.6501 15.8796 12.7395C15.969 12.829 16.0903 12.8792 16.2168 12.8792H18.1248C18.2513 12.8792 18.3726 12.829 18.462 12.7395C18.5515 12.6501 18.6017 12.5287 18.6017 12.4022V10.4943C18.6017 10.3678 18.5515 10.2465 18.462 10.157C18.3726 10.0676 18.2513 10.0173 18.1248 10.0173H16.2168ZM16.2168 13.8332C16.0903 13.8332 15.969 13.8834 15.8796 13.9729C15.7901 14.0623 15.7399 14.1836 15.7399 14.3102V16.2181C15.7399 16.3446 15.7901 16.4659 15.8796 16.5554C15.969 16.6448 16.0903 16.6951 16.2168 16.6951H18.1248C18.2513 16.6951 18.3726 16.6448 18.462 16.5554C18.5515 16.4659 18.6017 16.3446 18.6017 16.2181V14.3102C18.6017 14.1836 18.5515 14.0623 18.462 13.9729C18.3726 13.8834 18.2513 13.8332 18.1248 13.8332H16.2168ZM16.2168 17.649C16.0903 17.649 15.969 17.6993 15.8796 17.7887C15.7901 17.8782 15.7399 17.9995 15.7399 18.126V20.0339C15.7399 20.1604 15.7901 20.2818 15.8796 20.3712C15.969 20.4607 16.0903 20.5109 16.2168 20.5109H18.1248C18.2513 20.5109 18.3726 20.4607 18.462 20.3712C18.5515 20.2818 18.6017 20.1604 18.6017 20.0339V18.126C18.6017 17.9995 18.5515 17.8782 18.462 17.7887C18.3726 17.6993 18.2513 17.649 18.1248 17.649H16.2168ZM20.0327 10.0173C19.9062 10.0173 19.7849 10.0676 19.6954 10.157C19.606 10.2465 19.5557 10.3678 19.5557 10.4943V12.4022C19.5557 12.5287 19.606 12.6501 19.6954 12.7395C19.7849 12.829 19.9062 12.8792 20.0327 12.8792H21.9406C22.0671 12.8792 22.1884 12.829 22.2779 12.7395C22.3673 12.6501 22.4176 12.5287 22.4176 12.4022V10.4943C22.4176 10.3678 22.3673 10.2465 22.2779 10.157C22.1884 10.0676 22.0671 10.0173 21.9406 10.0173H20.0327ZM20.0327 13.8332C19.9062 13.8332 19.7849 13.8834 19.6954 13.9729C19.606 14.0623 19.5557 14.1836 19.5557 14.3102V16.2181C19.5557 16.3446 19.606 16.4659 19.6954 16.5554C19.7849 16.6448 19.9062 16.6951 20.0327 16.6951H21.9406C22.0671 16.6951 22.1884 16.6448 22.2779 16.5554C22.3673 16.4659 22.4176 16.3446 22.4176 16.2181V14.3102C22.4176 14.1836 22.3673 14.0623 22.2779 13.9729C22.1884 13.8834 22.0671 13.8332 21.9406 13.8332H20.0327ZM20.0327 17.649C19.9062 17.649 19.7849 17.6993 19.6954 17.7887C19.606 17.8782 19.5557 17.9995 19.5557 18.126V20.0339C19.5557 20.1604 19.606 20.2818 19.6954 20.3712C19.7849 20.4607 19.9062 20.5109 20.0327 20.5109H21.9406C22.0671 20.5109 22.1884 20.4607 22.2779 20.3712C22.3673 20.2818 22.4176 20.1604 22.4176 20.0339V18.126C22.4176 17.9995 22.3673 17.8782 22.2779 17.7887C22.1884 17.6993 22.0671 17.649 21.9406 17.649H20.0327ZM2.86133 4.77051H23.8485V7.6324H2.86133V4.77051ZM6.67719 7.15542C6.93019 7.15542 7.17284 7.05491 7.35174 6.87601C7.53064 6.69711 7.63115 6.45446 7.63115 6.20145C7.63115 5.94845 7.53064 5.7058 7.35174 5.5269C7.17284 5.348 6.93019 5.24749 6.67719 5.24749C6.42418 5.24749 6.18153 5.348 6.00263 5.5269C5.82373 5.7058 5.72322 5.94845 5.72322 6.20145C5.72322 6.45446 5.82373 6.69711 6.00263 6.87601C6.18153 7.05491 6.42418 7.15542 6.67719 7.15542ZM20.0327 7.15542C20.2857 7.15542 20.5283 7.05491 20.7072 6.87601C20.8861 6.69711 20.9867 6.45446 20.9867 6.20145C20.9867 5.94845 20.8861 5.7058 20.7072 5.5269C20.5283 5.348 20.2857 5.24749 20.0327 5.24749C19.7797 5.24749 19.537 5.348 19.3581 5.5269C19.1792 5.7058 19.0787 5.94845 19.0787 6.20145C19.0787 6.45446 19.1792 6.69711 19.3581 6.87601C19.537 7.05491 19.7797 7.15542 20.0327 7.15542Z" fill="white"/>
</svg>
