<svg width="180" height="200" viewBox="0 0 180 200" fill="none" xmlns="http://www.w3.org/2000/svg">
<path fill-rule="evenodd" clip-rule="evenodd" d="M89.989 192.477C139.688 192.477 179.978 152.187 179.978 102.488C179.978 52.7891 139.688 12.499 89.989 12.499C40.2901 12.499 0 52.7891 0 102.488C0 152.187 40.2901 192.477 89.989 192.477Z" fill="#0B77E3" fill-opacity="0.2"/>
<path d="M64.9932 17.4979C64.0085 17.4985 63.0332 17.3051 62.1233 16.9286C61.2133 16.5521 60.3864 16 59.69 15.3038C58.9935 14.6076 58.4411 13.7809 58.0644 12.8711C57.6876 11.9612 57.4938 10.9861 57.4941 10.0013V7.4966C57.4928 6.51113 57.6861 5.5351 58.0628 4.62449C58.4396 3.71388 58.9924 2.88661 59.6896 2.19012C60.3867 1.49364 61.2146 0.941653 62.1255 0.565823C63.0365 0.189994 64.0128 -0.00228368 64.9982 2.04658e-05H114.982C115.967 -0.00129405 116.943 0.191659 117.854 0.567839C118.764 0.94402 119.592 1.49605 120.289 2.19233C120.986 2.88862 121.538 3.7155 121.915 4.62566C122.293 5.53583 122.486 6.51141 122.486 7.4966V10.0013C122.487 10.9863 122.294 11.962 121.918 12.8722C121.542 13.7825 120.989 14.6096 120.293 15.306C119.596 16.0024 118.769 16.5545 117.858 16.9306C116.948 17.3068 115.972 17.4995 114.987 17.4979V44.977C114.987 46.1194 114.842 47.2367 114.545 48.2116C114.338 48.9251 114.013 49.5993 113.585 50.2063C112.645 51.5212 111.21 52.4936 109.225 52.4936H70.755C68.7753 52.4936 67.3379 51.5237 66.3956 50.2089C65.9456 49.5789 65.6456 48.919 65.4332 48.2091C65.1309 47.1587 64.9827 46.07 64.9932 44.977V17.5154V17.4979ZM69.9926 17.4979V44.977C69.9926 46.3693 70.3351 47.4942 70.755 47.4942H109.225C109.643 47.4942 109.988 46.3693 109.988 44.977V17.5154V17.4979H69.9926Z" fill="#005CB9"/>
<path d="M114.991 4.99805H64.9968C63.6162 4.99805 62.4971 6.1172 62.4971 7.49774V9.99743C62.4971 11.378 63.6162 12.4971 64.9968 12.4971H114.991C116.371 12.4971 117.49 11.378 117.49 9.99743V7.49774C117.49 6.1172 116.371 4.99805 114.991 4.99805Z" fill="#0B77E3"/>
<path d="M39.9963 169.997C39.9963 169.172 40.0288 168.385 40.0888 167.745C40.1288 167.325 40.1813 166.952 40.2638 166.587C40.3483 166.191 40.4766 165.806 40.6463 165.438C40.8912 164.925 40.8912 164.925 41.5411 164.095C42.6685 163.015 42.6685 163.015 45.2332 162.48H57.2567C59.8014 163.005 59.8014 163.005 60.9338 164.08C61.5912 164.913 61.5912 164.913 61.8411 165.43C62.0311 165.845 62.1411 166.205 62.2261 166.585C62.3086 166.952 62.3611 167.325 62.4011 167.745C62.4611 168.385 62.4936 169.172 62.4936 169.995V192.459C62.4936 193.284 62.4611 194.072 62.4011 194.712C62.3673 195.101 62.3088 195.487 62.2261 195.869C62.1416 196.265 62.0133 196.651 61.8437 197.019C61.5987 197.531 61.5987 197.531 60.9488 198.361C59.8214 199.441 59.8214 199.441 57.2567 199.976H45.2332C42.6885 199.451 42.6885 199.451 41.5561 198.376C40.8987 197.544 40.8987 197.544 40.6487 197.026C40.4779 196.657 40.3487 196.269 40.2638 195.871C40.1809 195.489 40.1224 195.101 40.0888 194.712C40.0239 193.963 39.993 193.213 39.9963 192.462V169.997V169.997ZM44.9957 169.997V192.459C44.9957 193.849 45.1032 194.976 45.2332 194.976H57.2567C57.3867 194.976 57.4942 193.852 57.4942 192.459V169.997C57.4942 168.607 57.3867 167.48 57.2567 167.48H45.2332C45.1032 167.48 44.9957 168.605 44.9957 169.997V169.997ZM117.487 169.997C117.487 169.172 117.519 168.385 117.579 167.745C117.619 167.325 117.672 166.952 117.754 166.587C117.839 166.191 117.967 165.806 118.137 165.438C118.382 164.925 118.382 164.925 119.032 164.095C120.159 163.015 120.159 163.015 122.724 162.48H134.747C137.292 163.005 137.292 163.005 138.424 164.08C139.082 164.913 139.082 164.913 139.332 165.43C139.522 165.845 139.632 166.205 139.717 166.585C139.799 166.952 139.852 167.325 139.892 167.745C139.952 168.385 139.984 169.172 139.984 169.995V192.459C139.984 193.284 139.952 194.072 139.892 194.712C139.858 195.101 139.799 195.487 139.717 195.869C139.632 196.265 139.504 196.651 139.334 197.019C139.089 197.531 139.089 197.531 138.439 198.361C137.312 199.441 137.312 199.441 134.747 199.976H122.724C120.179 199.451 120.179 199.451 119.047 198.376C118.389 197.544 118.389 197.544 118.139 197.026C117.968 196.657 117.839 196.269 117.754 195.871C117.671 195.489 117.613 195.101 117.579 194.712C117.514 193.963 117.484 193.213 117.487 192.462V169.997V169.997ZM122.486 169.997V192.459C122.486 193.849 122.594 194.976 122.724 194.976H134.747C134.877 194.976 134.985 193.852 134.985 192.459V169.997C134.985 168.607 134.877 167.48 134.747 167.48H122.724C122.594 167.48 122.486 168.605 122.486 169.997Z" fill="#005CB9"/>
<path fill-rule="evenodd" clip-rule="evenodd" d="M44.9961 162.501C44.9961 161.111 45.1036 159.983 45.2336 159.983H57.2571C57.3871 159.983 57.4946 161.108 57.4946 162.501V192.462C57.4946 193.852 57.3871 194.979 57.2571 194.979H45.2336C45.1036 194.979 44.9961 193.854 44.9961 192.462V162.501V162.501ZM122.487 162.501C122.487 161.111 122.594 159.983 122.724 159.983H134.748C134.878 159.983 134.985 161.108 134.985 162.501V192.462C134.985 193.852 134.878 194.979 134.748 194.979H122.724C122.594 194.979 122.487 193.854 122.487 192.462V162.501Z" fill="#0B77E3"/>
<path opacity="0.1" fill-rule="evenodd" clip-rule="evenodd" d="M44.9961 185.118C44.9961 185.04 45.1036 184.978 45.2336 184.978H57.2571C57.3871 184.978 57.4946 185.04 57.4946 185.118V192.337C57.4946 192.414 57.3871 192.477 57.2571 192.477H45.2336C45.1036 192.477 44.9961 192.414 44.9961 192.337V185.118V185.118ZM122.487 185.118C122.487 185.04 122.594 184.978 122.724 184.978H134.748C134.878 184.978 134.985 185.04 134.985 185.118V192.337C134.985 192.414 134.878 192.477 134.748 192.477H122.724C122.594 192.477 122.487 192.414 122.487 192.337V185.118Z" fill="black"/>
<path fill-rule="evenodd" clip-rule="evenodd" d="M22.4981 42.5101C22.4954 40.8678 22.8165 39.2412 23.443 37.7231C24.0695 36.2051 24.9891 34.8254 26.1492 33.663C27.3093 32.5006 28.6871 31.5782 30.2039 30.9487C31.7208 30.3192 33.3468 29.9948 34.989 29.9941H144.991C146.633 29.9951 148.259 30.3197 149.775 30.9494C151.292 31.579 152.67 32.5013 153.83 33.6637C154.99 34.826 155.909 36.2056 156.536 37.7235C157.162 39.2414 157.484 40.8679 157.481 42.5101V174.959C157.484 176.601 157.163 178.228 156.537 179.746C155.91 181.264 154.99 182.644 153.83 183.806C152.67 184.968 151.292 185.891 149.776 186.52C148.259 187.15 146.633 187.474 144.991 187.475H34.989C33.3469 187.474 31.721 187.149 30.2043 186.52C28.6877 185.89 27.31 184.968 26.1499 183.805C24.9899 182.643 24.0703 181.263 23.4437 179.745C22.8171 178.228 22.4958 176.601 22.4981 174.959V42.5101ZM27.4974 42.5101V174.959C27.4951 175.944 27.6872 176.921 28.0625 177.832C28.4379 178.744 28.9892 179.572 29.685 180.27C30.3808 180.968 31.2074 181.522 32.1175 181.901C33.0276 182.279 34.0034 182.474 34.989 182.475H144.991C145.976 182.475 146.952 182.28 147.862 181.901C148.773 181.523 149.599 180.969 150.295 180.271C150.991 179.573 151.542 178.744 151.918 177.833C152.293 176.921 152.485 175.945 152.482 174.959V42.5101C152.484 41.5245 152.292 40.548 151.917 39.6367C151.542 38.7253 150.99 37.8969 150.295 37.1988C149.599 36.5007 148.772 35.9466 147.862 35.5682C146.952 35.1898 145.976 34.9945 144.991 34.9935H34.989C34.0033 34.9942 33.0274 35.1892 32.1171 35.5675C31.2069 35.9458 30.3802 36.4999 29.6843 37.1981C28.9884 37.8962 28.4371 38.7248 28.0619 39.6363C27.6866 40.5478 27.4948 41.5244 27.4974 42.5101V42.5101Z" fill="#005CB9"/>
<path fill-rule="evenodd" clip-rule="evenodd" d="M27.4971 42.5127C27.4945 41.5269 27.6863 40.5504 28.0615 39.6389C28.4368 38.7274 28.9881 37.8988 29.6839 37.2006C30.3798 36.5025 31.2065 35.9484 32.1168 35.5701C33.027 35.1918 34.0029 34.9967 34.9887 34.9961H144.99C145.976 34.9971 146.952 35.1924 147.862 35.5708C148.772 35.9491 149.598 36.5032 150.294 37.2014C150.99 37.8995 151.541 38.7279 151.917 39.6393C152.292 40.5506 152.484 41.527 152.482 42.5127V174.961C152.484 175.947 152.293 176.924 151.917 177.835C151.542 178.747 150.991 179.575 150.295 180.273C149.599 180.972 148.772 181.526 147.862 181.904C146.952 182.282 145.976 182.477 144.99 182.478H34.9887C34.003 182.477 33.0273 182.282 32.1172 181.903C31.2071 181.525 30.3805 180.971 29.6847 180.273C28.9889 179.575 28.4375 178.746 28.0622 177.835C27.6868 176.923 27.4948 175.947 27.4971 174.961V42.5127Z" fill="#A6D2FF"/>
<path d="M44.9955 44.9961H134.984C136.31 44.9961 137.582 45.5228 138.52 46.4604C139.457 47.3979 139.984 48.6696 139.984 49.9955V79.9768C139.986 81.2911 139.729 82.5929 139.227 83.8078C138.725 85.0226 137.989 86.1266 137.061 87.0567C136.132 87.9868 135.029 88.7246 133.815 89.228C132.601 89.7315 131.299 89.9906 129.985 89.9906H49.9949C44.4705 89.9906 39.9961 85.5061 39.9961 79.9768V49.9955C39.9961 48.6696 40.5228 47.3979 41.4604 46.4604C42.3979 45.5228 43.6696 44.9961 44.9955 44.9961V44.9961ZM44.9955 97.4897H134.984C136.31 97.4897 137.582 98.0164 138.52 98.9539C139.457 99.8915 139.984 101.163 139.984 102.489V157.47C139.986 158.784 139.729 160.086 139.227 161.3C138.725 162.515 137.989 163.619 137.06 164.549C136.132 165.479 135.029 166.216 133.815 166.719C132.601 167.223 131.299 167.481 129.985 167.481H49.9949C44.4705 167.481 39.9961 162.997 39.9961 157.47V102.489C39.9961 101.163 40.5228 99.8915 41.4604 98.9539C42.3979 98.0164 43.6696 97.4897 44.9955 97.4897V97.4897ZM44.9955 49.9955V79.9768C44.9955 82.749 47.2327 84.9912 49.9949 84.9912H129.985C130.643 84.9912 131.294 84.8614 131.902 84.6092C132.509 84.357 133.061 83.9874 133.525 83.5216C133.99 83.0558 134.358 82.5029 134.608 81.8946C134.859 81.2863 134.986 80.6346 134.984 79.9768V49.9955H44.9955ZM44.9955 102.489V157.47C44.9955 160.239 47.2327 162.482 49.9949 162.482H129.985C132.76 162.482 134.984 160.237 134.984 157.47V102.489H44.9955Z" fill="#005CB9"/>
<path fill-rule="evenodd" clip-rule="evenodd" d="M44.9961 49.9941H134.985V79.9755C134.987 80.6332 134.859 81.285 134.609 81.8933C134.358 82.5015 133.991 83.0544 133.526 83.5203C133.062 83.9861 132.51 84.3557 131.902 84.6079C131.295 84.86 130.643 84.9898 129.986 84.9898H49.9955C47.2333 84.9898 44.9961 82.7476 44.9961 79.9755V49.9941ZM44.9961 102.488H134.985V157.468C134.985 160.236 132.76 162.48 129.986 162.48H49.9955C47.2333 162.48 44.9961 160.238 44.9961 157.468V102.488Z" fill="white"/>
<path fill-rule="evenodd" clip-rule="evenodd" d="M53.7458 59.9916C53.0828 59.9916 52.447 59.7282 51.9782 59.2594C51.5095 58.7906 51.2461 58.1548 51.2461 57.4919C51.2461 56.8289 51.5095 56.1931 51.9782 55.7243C52.447 55.2555 53.0828 54.9922 53.7458 54.9922H126.237C126.9 54.9922 127.536 55.2555 128.004 55.7243C128.473 56.1931 128.737 56.8289 128.737 57.4919C128.737 58.1548 128.473 58.7906 128.004 59.2594C127.536 59.7282 126.9 59.9916 126.237 59.9916H53.7458ZM124.987 112.485H53.7458C53.0828 112.485 52.447 112.222 51.9782 111.753C51.5095 111.284 51.2461 110.648 51.2461 109.985C51.2461 109.322 51.5095 108.687 51.9782 108.218C52.447 107.749 53.0828 107.486 53.7458 107.486H126.237C126.9 107.486 127.536 107.749 128.004 108.218C128.473 108.687 128.737 109.322 128.737 109.985C128.737 110.648 128.473 111.284 128.004 111.753C127.536 112.222 126.9 112.485 126.237 112.485H124.987Z" fill="#005CB9"/>
<path fill-rule="evenodd" clip-rule="evenodd" d="M109.988 112.486H124.986V119.985C124.986 121.974 124.196 123.882 122.79 125.288C121.384 126.694 119.476 127.484 117.487 127.484C115.498 127.484 113.591 126.694 112.185 125.288C110.778 123.882 109.988 121.974 109.988 119.985V112.486Z" fill="#005CB9"/>
<path fill-rule="evenodd" clip-rule="evenodd" d="M114.986 112.486H119.986V119.96C119.986 120.623 119.722 121.259 119.254 121.728C118.785 122.197 118.149 122.46 117.486 122.46C116.823 122.46 116.187 122.197 115.718 121.728C115.25 121.259 114.986 120.623 114.986 119.96V112.486Z" fill="#A6D2FF"/>
<path fill-rule="evenodd" clip-rule="evenodd" d="M109.988 59.9932H124.986V67.4922C124.986 69.4811 124.196 71.3885 122.79 72.7949C121.384 74.2012 119.476 74.9913 117.487 74.9913C115.498 74.9913 113.591 74.2012 112.185 72.7949C110.778 71.3885 109.988 69.4811 109.988 67.4922V59.9932Z" fill="#005CB9"/>
<path fill-rule="evenodd" clip-rule="evenodd" d="M114.986 59.9912H119.986V67.4653C119.986 68.1283 119.722 68.7641 119.254 69.2328C118.785 69.7016 118.149 69.965 117.486 69.965C116.823 69.965 116.187 69.7016 115.718 69.2328C115.25 68.7641 114.986 68.1283 114.986 67.4653V59.9912Z" fill="#A6D2FF"/>
</svg>
