<svg width="200" height="198" viewBox="0 0 200 198" fill="none" xmlns="http://www.w3.org/2000/svg">
<path d="M98.1064 45.9253L183.697 91.8355L85.5811 151.061L1.01968 102.041L98.1064 45.9253Z" fill="url(#paint0_linear)"/>
<path d="M1.25821 106.574V102.056L85.5801 151.06V154.992L1.25821 106.574Z" fill="#90BDE6"/>
<path d="M177.57 92.3606V73.4803L97.3358 28.5758L9.43565 82.6653V101.546L86.6038 144.919L177.57 92.3606Z" fill="white"/>
<path d="M177.57 73.4803V92.3606L86.6038 144.919M177.57 73.4803L86.6038 125.529M177.57 73.4803L97.3358 28.5758L9.43565 82.6653M86.6038 125.529V144.919M86.6038 125.529L9.43565 82.6653M86.6038 144.919L9.43565 101.546V82.6653" stroke="black" stroke-width="0.46279"/>
<line y1="-0.046279" x2="87.6285" y2="-0.046279" transform="matrix(0.874797 0.48449 -0.524712 0.85128 9.94531 100.423)" stroke="black" stroke-width="0.0925581"/>
<line y1="-0.046279" x2="87.6285" y2="-0.046279" transform="matrix(0.874797 0.48449 -0.524712 0.85128 9.94531 101.443)" stroke="black" stroke-width="0.0925581"/>
<line y1="-0.046279" x2="87.6285" y2="-0.046279" transform="matrix(0.874797 0.48449 -0.524712 0.85128 9.94531 99.6066)" stroke="black" stroke-width="0.0925581"/>
<line y1="-0.046279" x2="87.6285" y2="-0.046279" transform="matrix(0.874797 0.48449 -0.524712 0.85128 9.94531 98.7898)" stroke="black" stroke-width="0.0925581"/>
<line y1="-0.046279" x2="87.6285" y2="-0.046279" transform="matrix(0.874797 0.48449 -0.524712 0.85128 9.94531 97.9736)" stroke="black" stroke-width="0.0925581"/>
<line y1="-0.046279" x2="87.6285" y2="-0.046279" transform="matrix(0.874797 0.48449 -0.524712 0.85128 9.94531 97.1575)" stroke="black" stroke-width="0.0925581"/>
<line y1="-0.046279" x2="87.6285" y2="-0.046279" transform="matrix(0.874797 0.48449 -0.524712 0.85128 9.94531 96.3407)" stroke="black" stroke-width="0.0925581"/>
<line y1="-0.046279" x2="87.6285" y2="-0.046279" transform="matrix(0.874797 0.48449 -0.524712 0.85128 9.94531 95.5245)" stroke="black" stroke-width="0.0925581"/>
<line y1="-0.046279" x2="87.6285" y2="-0.046279" transform="matrix(0.874797 0.48449 -0.524712 0.85128 9.94531 94.7078)" stroke="black" stroke-width="0.0925581"/>
<line y1="-0.046279" x2="87.6285" y2="-0.046279" transform="matrix(0.874797 0.48449 -0.524712 0.85128 9.94531 93.8916)" stroke="black" stroke-width="0.0925581"/>
<line y1="-0.046279" x2="87.6285" y2="-0.046279" transform="matrix(0.874797 0.48449 -0.524712 0.85128 9.94531 92.8708)" stroke="black" stroke-width="0.0925581"/>
<line y1="-0.046279" x2="87.6285" y2="-0.046279" transform="matrix(0.874797 0.48449 -0.524712 0.85128 9.94531 91.8505)" stroke="black" stroke-width="0.0925581"/>
<line y1="-0.046279" x2="87.6285" y2="-0.046279" transform="matrix(0.874797 0.48449 -0.524712 0.85128 9.94531 90.8296)" stroke="black" stroke-width="0.0925581"/>
<line y1="-0.046279" x2="87.6285" y2="-0.046279" transform="matrix(0.874797 0.48449 -0.524712 0.85128 9.94531 89.8093)" stroke="black" stroke-width="0.0925581"/>
<line y1="-0.046279" x2="87.6285" y2="-0.046279" transform="matrix(0.874797 0.48449 -0.524712 0.85128 9.94531 88.7885)" stroke="black" stroke-width="0.0925581"/>
<path d="M98.1065 25.5142L180.637 72.4598L81.4929 128.609L1.01982 81.6299L98.1065 25.5142Z" fill="url(#paint1_linear)"/>
<path d="M1.25742 86.1626V81.6447L81.4909 128.608V132.54L1.25742 86.1626Z" fill="#90BDE6"/>
<path d="M85.2154 126.549L1.01953 81.6447V106.648L85.7257 155.125L85.2154 126.549Z" fill="url(#paint2_linear)"/>
<path d="M183.695 95.4916V91.8352L85.5788 151.042V154.974L183.695 95.4916Z" fill="#76A7F0"/>
<path d="M180.635 76.1012V72.4448L84.5536 126.567V130.499L180.635 76.1012Z" fill="#76A7F0"/>
<path d="M89.8047 152.573L88.2739 124.508L84.1916 126.549L85.577 154.974L89.8047 152.573Z" fill="#76A7F0"/>
<path d="M0 52.6282V46.9457L14.7981 67.3568L0 68.8876V52.6282Z" fill="#76A7F0"/>
<path d="M82.4069 20.4111L0.00195312 68.3624L94.9133 125.547L179.347 76.5269L82.4069 20.4111Z" fill="#CDEAFA"/>
<path d="M0 72.0185V68.3622L94.9117 125.528V129.46L0 72.0185Z" fill="#76A7F0"/>
<path d="M179.107 81.0594V76.5415L94.9121 125.546V129.478L179.107 81.0594Z" fill="#90BDE6"/>
<path d="M3.0625 66.8464V47.9661L83.1762 3.06165L170.944 57.1511V76.0314L93.892 119.405L3.0625 66.8464Z" fill="white"/>
<path d="M94.0432 103.761V119.435L3.13477 67.0844V52.6644L94.0432 103.761Z" fill="#ECECEC"/>
<path d="M82.4059 0L0 46.9456L98.9946 103.094L179.346 56.1157L82.4059 0Z" fill="#CDEAFA"/>
<path d="M0 50.587V46.9307L98.9936 103.094V107.026L0 50.587Z" fill="#76A7F0"/>
<path d="M179.107 60.6484V56.1305L98.9941 103.094V107.026L179.107 60.6484Z" fill="#90BDE6"/>
<path d="M116.502 157.815L155.507 135.292V90.2815L116.502 112.787V157.815Z" fill="#67809E"/>
<path d="M194.519 157.815V112.787L155.514 90.2815L154.367 134.634L194.519 157.815Z" fill="#597DA7"/>
<path d="M155.507 90.2815L116.502 112.787L155.507 135.292L194.512 112.787L155.507 90.2815ZM127.923 112.787L155.507 96.8779L183.04 112.787L155.507 128.662L127.923 112.787Z" fill="#CDEAFA"/>
<path d="M155.511 197.561V135.292L116.507 112.786L115.359 174.381L155.511 197.561Z" fill="#76A7F0"/>
<path d="M155.512 196.903L194.517 174.381V112.786L155.512 135.292V196.903Z" fill="#90BDE6"/>
<path d="M180.854 130.975L171.271 136.508L190.437 147.559L199.935 141.991L180.854 130.975Z" fill="#CDEAFA"/>
<path d="M180.852 153.074L171.27 158.591L190.435 169.658L199.933 164.091L180.852 153.074Z" fill="#CDEAFA"/>
<path d="M190.434 180.726L199.999 175.21L199.932 141.991L190.434 147.559V180.726Z" fill="#90BDE6"/>
<path d="M171.27 147.558V136.508L190.435 147.558V180.726L171.27 169.676V158.625L180.852 164.142V153.092L171.27 147.558Z" fill="#76A7F0"/>
<defs>
<linearGradient id="paint0_linear" x1="138.249" y1="59.7567" x2="112.867" y2="168.727" gradientUnits="userSpaceOnUse">
<stop stop-color="#F8C7C8"/>
<stop offset="0.42" stop-color="#DE7C83"/>
<stop offset="0.49" stop-color="#D97781"/>
<stop offset="0.78" stop-color="#C7687A"/>
<stop offset="0.99" stop-color="#C16377"/>
</linearGradient>
<linearGradient id="paint1_linear" x1="138.25" y1="39.0771" x2="113.795" y2="146.143" gradientUnits="userSpaceOnUse">
<stop stop-color="#F8C7C8"/>
<stop offset="0.42" stop-color="#DE7C83"/>
<stop offset="0.49" stop-color="#D97781"/>
<stop offset="0.78" stop-color="#C7687A"/>
<stop offset="0.99" stop-color="#C16377"/>
</linearGradient>
<linearGradient id="paint2_linear" x1="21.0088" y1="91.3116" x2="45.7747" y2="163.054" gradientUnits="userSpaceOnUse">
<stop offset="0.0677083" stop-color="#DE7C83"/>
<stop offset="0.49" stop-color="#D97781"/>
<stop offset="0.78" stop-color="#C7687A"/>
<stop offset="0.99" stop-color="#C16377"/>
</linearGradient>
</defs>
</svg>
