<svg width="150" height="150" viewBox="0 0 150 150" fill="none" xmlns="http://www.w3.org/2000/svg">
<circle cx="74.6009" cy="74.6009" r="59.6009" fill="#FF5B87"/>
<circle cx="74.6013" cy="74.6009" r="19.867" fill="#70C1B3"/>
<rect x="50.6689" y="98.8977" width="49.6674" height="8.2843" rx="4.14215" transform="rotate(-90 50.6689 98.8977)" fill="white"/>
<rect x="70.2294" y="113.798" width="79.4679" height="8.2843" rx="4.14215" transform="rotate(-90 70.2294 113.798)" fill="white"/>
<rect x="89.7899" y="103.865" width="59.6009" height="8.2843" rx="4.14215" transform="rotate(-90 89.7899 103.865)" fill="white"/>
<rect x="109.35" y="83.9976" width="19.867" height="8.2843" rx="4.14215" transform="rotate(-90 109.35 83.9976)" fill="white"/>
<path d="M35.2505 88.9644C32.9629 88.9644 31.1084 87.1099 31.1084 84.8222V63.306C31.1084 61.0184 32.9629 59.1639 35.2505 59.1639V59.1639C37.5382 59.1639 39.3927 61.0184 39.3927 63.306V84.8222C39.3927 87.1099 37.5382 88.9644 35.2505 88.9644V88.9644Z" fill="white"/>
</svg>
