<svg width="300" height="103" viewBox="0 0 300 103" fill="none" xmlns="http://www.w3.org/2000/svg">
<path d="M56.0955 26.2884C63.5439 20.3278 67.4676 12.8536 64.8594 9.59436C62.2511 6.33511 54.0985 8.52505 46.6502 14.4857C39.2018 20.4463 35.2781 27.9205 37.8862 31.1797C40.4945 34.4389 48.647 32.249 56.0955 26.2884Z" fill="#29C16E"/>
<path d="M31.1146 32.1417C33.3564 29.9 30.1842 23.0931 24.0292 16.9382C17.8744 10.7833 11.0675 7.61109 8.82574 9.85284C6.58399 12.0946 9.7562 18.9015 15.9111 25.0563C22.066 31.2113 28.8729 34.3835 31.1146 32.1417Z" fill="#29C16E"/>
<path d="M61.282 65.2599C64.5415 62.6521 62.3514 54.4996 56.3909 47.051C50.4304 39.6026 42.9561 35.6789 39.6969 38.2871C36.4376 40.8953 38.6276 49.0478 44.5882 56.496C50.5486 63.9445 58.023 67.8682 61.282 65.2599Z" fill="#EF3C56"/>
<path d="M7.30798 68.0692C7.30798 75.8281 10.3902 83.2694 15.8766 88.7556C21.363 94.2422 28.8042 97.3243 36.5631 97.3243C52.7207 97.3243 76.8382 70.8226 61.4765 65.8243C44.6225 60.3415 36.8496 39.3817 33.3565 38.99C17.3003 37.1882 7.30798 51.9121 7.30798 68.0692Z" fill="#EF3C56"/>
<path d="M0.014177 5.4051C0.0224429 11.713 1.7169 17.9041 4.92207 23.3371C8.1272 28.7701 12.7265 33.2474 18.2437 36.3054C15.3522 37.9091 12.6992 39.9092 10.3617 42.2476C5.11792 47.4862 1.65428 54.2412 0.460964 61.5566C-0.732356 68.8719 0.405066 76.3776 3.71226 83.011C7.01945 89.6443 12.3289 95.0699 18.8894 98.5197C25.4498 101.969 32.929 103.269 40.2685 102.233C47.608 101.198 54.4364 97.8815 59.7871 92.752C65.1377 87.6224 68.7394 80.9405 70.0832 73.6511C71.4269 66.3617 70.4446 58.8344 67.2745 52.1342C64.1049 45.4342 58.908 39.9006 52.4203 36.3164C57.9449 33.2627 62.5506 28.7855 65.7596 23.3498C68.9686 17.9141 70.6637 11.7183 70.6685 5.40606C70.6685 4.82611 70.5546 4.25181 70.3326 3.71598C70.111 3.18014 69.7857 2.69326 69.3757 2.28315C68.9653 1.87303 68.4784 1.54772 67.9425 1.3258C67.4071 1.10388 66.8328 0.989686 66.2527 0.98975C61.6115 0.977333 57.0135 1.88561 52.726 3.66201C48.438 5.43841 44.5448 8.04763 41.2721 11.3387C38.9338 13.6762 36.9339 16.3293 35.3303 19.2207C32.2748 13.7014 27.798 9.10031 22.3645 5.89484C16.931 2.68933 10.7386 0.996225 4.43001 0.991187C3.85024 0.991061 3.27613 1.10513 2.74044 1.32689C2.20475 1.54864 1.71799 1.87373 1.30794 2.28359C0.897895 2.69346 0.572594 3.18009 0.350609 3.71567C0.128624 4.25127 0.0143032 4.82533 0.014177 5.4051ZM40.207 31.445C41.1902 26.1927 43.7381 21.3603 47.5165 17.5818C51.2947 13.8033 56.1272 11.2552 61.3793 10.2717C60.3888 15.5208 57.8382 20.3492 54.0616 24.1264C50.2845 27.9036 45.456 30.4542 40.207 31.445ZM54.0673 48.5013C57.8468 52.2751 60.396 57.1047 61.3793 62.3544C56.133 61.3624 51.3067 58.8128 47.5313 55.0371C43.7557 51.2615 41.2057 46.4359 40.2138 41.1893C45.4638 42.1726 50.2931 44.7216 54.0673 48.5013ZM16.6058 48.4927C20.5671 44.5104 25.6996 41.9013 31.2514 41.0475C32.2921 48.7092 35.816 55.8186 41.2832 61.286C46.7504 66.7534 53.8592 70.2777 61.5211 71.3187C60.8756 75.4524 59.2603 79.3747 56.8073 82.7639C54.3547 86.1532 51.1342 88.9138 47.4093 90.8189C43.6846 92.7246 39.5616 93.7209 35.3778 93.7266C31.194 93.7319 27.0683 92.7472 23.3385 90.8516C19.6086 88.9561 16.3806 86.2046 13.9187 82.8216C11.4567 79.4391 9.83082 75.5212 9.17407 71.3894C8.51727 67.2576 8.84831 63.0287 10.14 59.0492C11.4317 55.0698 13.6474 51.4532 16.6058 48.4946V48.4927ZM9.30051 10.278C14.5472 11.2698 19.3733 13.8199 23.149 17.5956C26.9246 21.3713 29.4748 26.1973 30.4665 31.444C25.2201 30.452 20.3944 27.9018 16.6191 24.1261C12.8437 20.3504 10.294 15.5245 9.30244 10.278H9.30051Z" fill="#454545"/>
<path d="M84.9599 84.5049V36.2913H99.5292L108.277 69.1791L116.927 36.2913H131.529V84.5049H122.485V46.5523L112.915 84.5049H103.542L94.0041 46.5523V84.5049H84.9599ZM136.758 49.578H146.592L154.945 74.3754L163.102 49.578H172.672L160.339 83.1894L158.135 89.2736C157.324 91.3127 156.546 92.8694 155.8 93.9437C155.077 95.018 154.233 95.8841 153.268 96.5418C152.325 97.2215 151.152 97.7477 149.749 98.1205C148.368 98.4932 146.8 98.6796 145.046 98.6796C143.27 98.6796 141.527 98.4932 139.817 98.1205L138.995 90.8851C140.442 91.1702 141.746 91.3127 142.908 91.3127C145.057 91.3127 146.647 90.6768 147.677 89.4052C148.708 88.1554 149.497 86.5549 150.045 84.6035L136.758 49.578ZM178.756 84.5049V36.2913H211.808V44.4474H188.491V55.8595H208.618V64.0157H188.491V84.5049H178.756ZM226.707 60.2336L218.32 58.7208C219.263 55.3443 220.886 52.8448 223.188 51.2223C225.49 49.5999 228.91 48.7886 233.449 48.7886C237.571 48.7886 240.64 49.282 242.657 50.2686C244.674 51.2333 246.089 52.4721 246.9 53.9849C247.733 55.4758 248.15 58.2275 248.15 62.2398L248.051 73.027C248.051 76.0965 248.193 78.3658 248.478 79.8348C248.785 81.2819 249.344 82.8386 250.156 84.5049H241.013C240.772 83.891 240.476 82.9811 240.125 81.7752C239.971 81.2271 239.862 80.8653 239.796 80.6899C238.217 82.2247 236.529 83.3757 234.731 84.1431C232.933 84.9105 231.015 85.2942 228.976 85.2942C225.38 85.2942 222.541 84.3185 220.458 82.3672C218.397 80.4158 217.367 77.9492 217.367 74.9674C217.367 72.9941 217.838 71.2401 218.781 69.7053C219.723 68.1486 221.039 66.9647 222.727 66.1534C224.437 65.3203 226.893 64.5968 230.094 63.9828C234.413 63.1716 237.406 62.4152 239.073 61.7136V60.7927C239.073 59.0168 238.634 57.7561 237.757 57.0106C236.88 56.2432 235.225 55.8595 232.791 55.8595C231.147 55.8595 229.864 56.1884 228.943 56.8462C228.022 57.482 227.277 58.6112 226.707 60.2336ZM239.073 67.7321C237.889 68.1267 236.014 68.5981 233.449 69.1462C230.883 69.6944 229.206 70.2315 228.417 70.7577C227.211 71.6128 226.608 72.6981 226.608 74.0136C226.608 75.3072 227.09 76.4254 228.055 77.3682C229.02 78.311 230.248 78.7824 231.739 78.7824C233.405 78.7824 234.994 78.2343 236.507 77.138C237.625 76.3048 238.36 75.2853 238.711 74.0794C238.952 73.2901 239.073 71.7882 239.073 69.5738V67.7321ZM257.292 44.8421V36.2913H266.534V44.8421H257.292ZM257.292 84.5049V49.578H266.534V84.5049H257.292ZM284.885 84.5049H275.644V49.578H284.228V54.544C285.697 52.198 287.012 50.6523 288.174 49.9068C289.358 49.1614 290.696 48.7886 292.186 48.7886C294.291 48.7886 296.319 49.3697 298.271 50.5317L295.409 58.5892C293.853 57.5807 292.406 57.0764 291.068 57.0764C289.775 57.0764 288.678 57.4382 287.779 58.1617C286.881 58.8633 286.168 60.1459 285.642 62.0096C285.137 63.8732 284.885 67.7759 284.885 73.7177V84.5049Z" fill="#86D878"/>
</svg>
