<svg width="300" height="105" viewBox="0 0 300 105" fill="none" xmlns="http://www.w3.org/2000/svg">
<rect y="0.85498" width="300" height="103.737" rx="10.9244" fill="url(#paint0_linear)"/>
<path fill-rule="evenodd" clip-rule="evenodd" d="M48.1816 52.7235C48.1816 50.6908 49.8358 49.0366 51.8685 49.0366C53.9013 49.0366 55.5554 50.6908 55.5554 52.7235C55.5554 54.7562 53.9013 56.4104 51.8685 56.4104C49.8358 56.4104 48.1816 54.7562 48.1816 52.7235ZM50.6396 52.7234C50.6396 53.4018 51.1914 53.9524 51.8686 53.9524C52.5457 53.9524 53.0975 53.4018 53.0975 52.7234C53.0975 52.045 52.5457 51.4944 51.8686 51.4944C51.1914 51.4944 50.6396 52.045 50.6396 52.7234Z" fill="white"/>
<path d="M29.4273 35.1162C19.6226 37.7659 13.7703 46.1855 13.7703 57.6395H16.2282C16.2282 47.3641 21.4009 39.8318 30.0676 37.4906L29.4273 35.1162Z" fill="white"/>
<path d="M49.3586 39.5662C46.9511 37.1587 42.6608 34.2891 35.8916 34.2891C35.0178 34.2891 34.1502 34.3308 33.312 34.4144L33.5541 36.8601C34.3124 36.7851 35.0977 36.747 35.8916 36.747C47.1379 36.747 50.5778 45.4161 50.7191 45.7848L53.0197 44.9184C52.9779 44.8078 51.9739 42.1815 49.3586 39.5662Z" fill="white"/>
<path d="M28.2391 79.3047L26.3391 80.8618C26.9757 81.6385 27.6701 82.4041 28.405 83.1391L30.1428 81.4013C29.4656 80.7229 28.8241 80.0175 28.2391 79.3047Z" fill="white"/>
<path d="M23.5406 69.6978L21.127 70.1611C21.7255 73.2851 23.0466 76.3182 25.0535 79.1743L27.0653 77.761C25.26 75.19 24.074 72.4777 23.5406 69.6978Z" fill="white"/>
<path d="M23.2667 65.103L20.8149 64.9248C20.7522 65.7949 20.7473 66.6761 20.7989 67.545L23.2519 67.3987C23.2064 66.6368 23.2114 65.8637 23.2667 65.103Z" fill="white"/>
<path d="M80.545 74.4487C76.1244 78.8693 71.0463 81.2608 65.8551 81.3665C60.7598 81.5115 55.9288 79.3793 51.867 75.3176C43.9144 67.3649 47.6124 58.8027 47.7734 58.4426L46.6525 57.9375L45.5342 57.4287C45.485 57.5369 44.3372 60.1042 44.3372 63.8046C44.3372 67.2088 45.3412 72.2709 50.1281 77.0565C54.5646 81.4931 59.8676 83.8306 65.4889 83.8306C65.6278 83.8306 65.7654 83.8282 65.9043 83.8257C71.7419 83.7065 77.4037 81.0654 82.2815 76.1877L80.545 74.4487Z" fill="white"/>
<path d="M87.5084 47.8076C87.5084 48.6064 87.4765 49.4004 87.4138 50.1648L89.8631 50.3663C89.932 49.5343 89.9664 48.674 89.9664 47.8076H87.5084Z" fill="white"/>
<path d="M87.1175 52.5146C86.2621 57.4625 84.0008 61.5807 80.5781 64.4221L82.1475 66.3135C86.0261 63.0936 88.5824 58.4665 89.5398 52.9337L87.1175 52.5146Z" fill="white"/>
<path d="M75.3305 22.3076L73.5928 24.0454C74.2699 24.7225 74.9102 25.428 75.4977 26.1432L77.3977 24.5837C76.7598 23.807 76.0642 23.0413 75.3305 22.3076Z" fill="white"/>
<path d="M78.6817 26.2734L76.6699 27.6867C81.3388 34.3318 81.7738 41.8838 77.8632 48.4034L79.9709 49.6681C84.405 42.277 83.9343 33.7505 78.6817 26.2734Z" fill="white"/>
<path d="M76.6922 50.1523C76.0322 51.0397 75.2825 51.9036 74.464 52.7233C66.5114 60.676 57.9492 56.978 57.5879 56.817L57.0828 57.9366L56.574 59.055C56.6821 59.1041 59.2494 60.252 62.9486 60.252C66.3529 60.252 71.415 59.2479 76.2006 54.4611C77.1039 53.5578 77.9322 52.6017 78.6634 51.621L76.6922 50.1523Z" fill="white"/>
<path d="M46.9524 14.6255V17.0834C47.7451 17.0834 48.5378 17.1141 49.3108 17.1781L49.5099 14.7275C48.6705 14.6599 47.8102 14.6255 46.9524 14.6255Z" fill="white"/>
<path d="M52.0783 15.0518L51.6592 17.4728C54.224 17.9153 56.5714 18.735 58.636 19.9062L59.849 17.7715C57.5373 16.4589 54.9221 15.5433 52.0783 15.0518Z" fill="white"/>
<path fill-rule="evenodd" clip-rule="evenodd" d="M62.4608 19.5244C66.6725 22.8451 69.2644 27.568 70.0399 33.2053C71.6019 33.6317 72.7608 35.05 72.7608 36.7472C72.7608 38.4579 71.5835 39.8872 70.0006 40.3026C68.3439 50.4809 60.0386 53.7376 59.6736 53.8753L59.2422 52.7237L58.8071 51.5746C59.1144 51.4579 66.0531 48.6878 67.5475 40.0936C66.2768 39.5111 65.387 38.2342 65.387 36.7472C65.387 35.2454 66.2928 33.9537 67.5844 33.381C66.8692 28.4541 64.5993 24.3395 60.9394 21.4539L62.4608 19.5244ZM67.8447 36.7471C67.8447 37.4255 68.3966 37.9761 69.0737 37.9761C69.7509 37.9761 70.3027 37.4255 70.3027 36.7471C70.3027 36.0688 69.7509 35.5182 69.0737 35.5182C68.3966 35.5182 67.8447 36.0688 67.8447 36.7471Z" fill="white"/>
<path fill-rule="evenodd" clip-rule="evenodd" d="M34.6626 19.541C36.1275 19.541 37.3847 20.4062 37.9795 21.645C43.2948 21.5762 48.3643 23.5733 52.6964 27.5207L51.041 29.3383C47.2423 25.88 42.8327 24.0993 38.2339 24.0993C37.8394 25.7117 36.3942 26.9148 34.6626 26.9148C33.4139 26.9148 32.3128 26.288 31.6467 25.3356C28.6492 26.4847 25.8091 28.3797 23.1914 30.9974L21.4524 29.2609C24.3835 26.3286 27.5948 24.2197 31.0027 22.9563C31.1453 21.0514 32.7232 19.541 34.6626 19.541ZM33.4338 23.2279C33.4338 23.9063 33.9856 24.4569 34.6628 24.4569C35.34 24.4569 35.8918 23.9063 35.8918 23.2279C35.8918 22.5495 35.34 21.9989 34.6628 21.9989C33.9856 21.9989 33.4338 22.5495 33.4338 23.2279Z" fill="white"/>
<path d="M54.9125 29.8081L53.0359 31.3947C59.4425 38.9725 56.1083 46.6806 55.9633 47.0038L58.2025 48.0177C58.3733 47.638 62.3478 38.6038 54.9125 29.8081Z" fill="white"/>
<path fill-rule="evenodd" clip-rule="evenodd" d="M70.0349 68.5674C73.0779 68.2885 75.859 67.4589 78.2813 66.0333L79.5287 68.1508C76.7475 69.789 73.5793 70.7587 70.1087 71.0549C69.6294 72.5358 68.2542 73.616 66.6159 73.616C64.8143 73.616 63.3162 72.3146 62.9966 70.6051C53.8236 68.479 50.8422 60.8643 50.7168 60.53L51.8683 60.0974L53.0174 59.6636C53.1243 59.945 55.6585 66.3049 63.3924 68.1766C64.0191 67.03 65.2211 66.2422 66.6159 66.2422C68.1669 66.2422 69.4917 67.2082 70.0349 68.5674ZM65.3869 69.9289C65.3869 70.6073 65.9387 71.1579 66.6159 71.1579C67.2931 71.1579 67.8449 70.6073 67.8449 69.9289C67.8449 69.2505 67.2931 68.7 66.6159 68.7C65.9387 68.7 65.3869 69.2505 65.3869 69.9289Z" fill="white"/>
<path fill-rule="evenodd" clip-rule="evenodd" d="M32.2047 45.3497C33.1523 45.3497 34.0076 45.7184 34.6614 46.3083C41.336 43.8221 46.9228 46.2825 47.1625 46.3919L46.1486 48.6298C46.148 48.6296 46.1468 48.6291 46.145 48.6283C45.9905 48.563 41.3324 46.5938 35.8363 48.4946C35.8374 48.5018 35.8385 48.5089 35.8396 48.5161C35.8656 48.6871 35.8916 48.8585 35.8916 49.0366C35.8916 51.0693 34.2374 52.7235 32.2047 52.7235C31.401 52.7235 30.6636 52.4581 30.0565 52.0205C29.9663 52.1019 29.875 52.1807 29.7839 52.2594C29.6107 52.4091 29.438 52.5584 29.2736 52.7235C26.3143 55.6829 24.3479 59.1694 23.5884 62.806L21.1821 62.3045C22.0399 58.1986 24.2361 54.2855 27.5359 50.9857C27.896 50.6257 28.2684 50.284 28.6469 49.9522C28.5707 49.6572 28.5178 49.3537 28.5178 49.0366C28.5178 47.0039 30.172 45.3497 32.2047 45.3497ZM30.9756 49.0367C30.9756 49.715 31.5274 50.2656 32.2046 50.2656C32.8817 50.2656 33.4335 49.715 33.4335 49.0367C33.4335 48.3583 32.8817 47.8077 32.2046 47.8077C31.5274 47.8077 30.9756 48.3583 30.9756 49.0367Z" fill="white"/>
<path fill-rule="evenodd" clip-rule="evenodd" d="M42.0366 80.9896C42.0366 81.6716 41.8375 82.3033 41.5143 82.8514C45.2577 86.4499 50.5202 88.3634 56.7842 88.3634V90.8213C49.7631 90.8213 43.8334 88.6104 39.6094 84.4405C39.2149 84.5855 38.7946 84.6765 38.3497 84.6765C36.317 84.6765 34.6628 83.0223 34.6628 80.9896C34.6628 80.0924 34.9971 79.2801 35.5317 78.641C34.143 75.662 33.4338 72.3253 33.4338 68.6999C33.4338 61.9307 36.3022 57.6404 38.7098 55.2329C41.325 52.6176 43.9526 51.6136 44.0632 51.5718L44.4945 52.7233L44.9296 53.8736C44.5609 54.0137 35.8918 57.4548 35.8918 68.6999C35.8918 71.8682 36.4829 74.7784 37.6492 77.3739C37.8766 77.3297 38.1101 77.3027 38.3497 77.3027C40.3824 77.3027 42.0366 78.9569 42.0366 80.9896ZM37.1206 80.9899C37.1206 81.6683 37.6724 82.2189 38.3495 82.2189C39.0267 82.2189 39.5785 81.6683 39.5785 80.9899C39.5785 80.3116 39.0267 79.761 38.3495 79.761C37.6724 79.761 37.1206 80.3116 37.1206 80.9899Z" fill="white"/>
<path d="M118.971 66.6255V41.2268H124.559V44.6811C126.151 42.0396 128.724 40.7189 132.28 40.7189C135.226 40.7189 137.58 41.684 139.341 43.6143C141.102 45.5446 141.982 48.1183 141.982 51.3355V66.6255H136.395V52.2498C136.395 50.218 135.921 48.6432 134.972 47.5257C134.024 46.3743 132.737 45.7986 131.112 45.7986C129.181 45.7986 127.607 46.5267 126.388 47.9829C125.168 49.4391 124.559 51.4879 124.559 54.1294V66.6255H118.971ZM161.459 67.1335C157.598 67.1335 154.415 65.8974 151.909 63.4253C149.437 60.9531 148.201 57.7868 148.201 53.9262C148.201 50.1672 149.454 47.0347 151.96 44.5287C154.466 41.9888 157.632 40.7189 161.459 40.7189C164.981 40.7189 167.893 41.8364 170.196 44.0715C172.533 46.3066 173.701 49.3883 173.701 53.3166C173.701 53.9939 173.684 54.6035 173.65 55.1453H153.687C153.822 57.2111 154.618 58.8874 156.074 60.1742C157.531 61.4272 159.342 62.0537 161.51 62.0537C164.761 62.0537 167.182 60.7669 168.774 58.1931L173.041 61.241C170.602 65.1693 166.742 67.1335 161.459 67.1335ZM153.941 51.0815H168.063C167.758 49.3205 166.962 47.949 165.675 46.9669C164.422 45.951 162.949 45.443 161.256 45.443C159.495 45.443 157.92 45.9341 156.532 46.9161C155.177 47.8982 154.313 49.2867 153.941 51.0815ZM194.058 67.1335C192.331 67.1335 190.722 66.7609 189.232 66.0159C187.776 65.237 186.658 64.3057 185.879 63.2221V66.6255H180.292V28.5275H185.879V44.6303C186.658 43.5466 187.776 42.6322 189.232 41.8872C190.722 41.1083 192.331 40.7189 194.058 40.7189C197.512 40.7189 200.407 42.0057 202.744 44.5795C205.115 47.1532 206.3 50.2688 206.3 53.9262C206.3 57.5836 205.115 60.6991 202.744 63.2729C200.407 65.8466 197.512 67.1335 194.058 67.1335ZM193.042 62.0537C195.243 62.0537 197.055 61.2748 198.477 59.7171C199.899 58.1593 200.611 56.229 200.611 53.9262C200.611 51.6233 199.899 49.6931 198.477 48.1353C197.055 46.5775 195.243 45.7986 193.042 45.7986C190.807 45.7986 188.978 46.5775 187.556 48.1353C186.133 49.6931 185.422 51.6233 185.422 53.9262C185.422 56.229 186.133 58.1593 187.556 59.7171C188.978 61.2748 190.807 62.0537 193.042 62.0537ZM221.93 67.1335C219.017 67.1335 216.715 66.1683 215.021 64.238C213.328 62.2739 212.481 59.6663 212.481 56.4152V41.2268H218.069V55.5009C218.069 57.5328 218.509 59.1414 219.39 60.3266C220.27 61.478 221.523 62.0537 223.149 62.0537C225.045 62.0537 226.552 61.3426 227.67 59.9202C228.787 58.4641 229.346 56.3983 229.346 53.723V41.2268H234.934V66.6255H229.346V63.1713C227.856 65.8127 225.384 67.1335 221.93 67.1335ZM243.299 66.6255V28.5275H248.887V66.6255H243.299ZM267.655 67.1335C264.201 67.1335 261.289 65.8466 258.918 63.2729C256.581 60.6991 255.413 57.5836 255.413 53.9262C255.413 50.2688 256.581 47.1532 258.918 44.5795C261.289 42.0057 264.201 40.7189 267.655 40.7189C269.382 40.7189 270.974 41.1083 272.43 41.8872C273.886 42.6322 275.004 43.5466 275.783 44.6303V41.2268H281.37V66.6255H275.783V63.2221C275.004 64.3057 273.886 65.237 272.43 66.0159C270.974 66.7609 269.382 67.1335 267.655 67.1335ZM263.236 59.7171C264.658 61.2748 266.47 62.0537 268.671 62.0537C270.872 62.0537 272.684 61.2748 274.106 59.7171C275.529 58.1593 276.24 56.229 276.24 53.9262C276.24 51.6233 275.529 49.6931 274.106 48.1353C272.684 46.5775 270.872 45.7986 268.671 45.7986C266.47 45.7986 264.658 46.5775 263.236 48.1353C261.813 49.6931 261.102 51.6233 261.102 53.9262C261.102 56.229 261.813 58.1593 263.236 59.7171Z" fill="white"/>
<defs>
<linearGradient id="paint0_linear" x1="0" y1="0.85498" x2="0" y2="104.592" gradientUnits="userSpaceOnUse">
<stop stop-color="#F2B3A3"/>
<stop offset="1" stop-color="#C368AE"/>
</linearGradient>
</defs>
</svg>
