<svg width="455" height="144" viewBox="0 0 455 144" fill="none" xmlns="http://www.w3.org/2000/svg">
<path d="M157.396 104V60.7822H166.904V66.6598C169.612 62.1651 173.992 59.9178 180.042 59.9178C185.056 59.9178 189.06 61.5601 192.057 64.8447C195.053 68.1292 196.552 72.5086 196.552 77.9829V104H187.044V79.5387C187.044 76.0813 186.237 73.4018 184.623 71.5002C183.01 69.541 180.82 68.5614 178.054 68.5614C174.77 68.5614 172.09 69.8003 170.016 72.2781C167.941 74.7559 166.904 78.2422 166.904 82.7368V104H157.396ZM229.692 104.864C223.123 104.864 217.707 102.761 213.443 98.5546C209.236 94.348 207.133 88.9602 207.133 82.3911C207.133 75.9949 209.265 70.6647 213.529 66.4005C217.793 62.0787 223.181 59.9178 229.692 59.9178C235.685 59.9178 240.641 61.8194 244.559 65.6226C248.535 69.4257 250.523 74.6695 250.523 81.3539C250.523 82.5063 250.495 83.5436 250.437 84.4655H216.468C216.698 87.9806 218.052 90.833 220.53 93.0227C223.008 95.1548 226.091 96.2208 229.779 96.2208C235.311 96.2208 239.431 94.0311 242.139 89.6517L249.4 94.8378C245.251 101.522 238.682 104.864 229.692 104.864ZM216.9 77.5507H240.929C240.41 74.5543 239.056 72.2205 236.867 70.5494C234.735 68.8207 232.228 67.9563 229.347 67.9563C226.35 67.9563 223.671 68.7919 221.308 70.463C219.003 72.1341 217.534 74.4966 216.9 77.5507ZM285.162 104.864C282.223 104.864 279.486 104.23 276.951 102.963C274.473 101.637 272.571 100.053 271.246 98.2088V104H261.738V39.1733H271.246V66.5734C272.571 64.7294 274.473 63.1736 276.951 61.9058C279.486 60.5805 282.223 59.9178 285.162 59.9178C291.04 59.9178 295.967 62.1075 299.943 66.4869C303.976 70.8663 305.993 76.1677 305.993 82.3911C305.993 88.6145 303.976 93.9158 299.943 98.2952C295.967 102.675 291.04 104.864 285.162 104.864ZM283.433 96.2208C287.179 96.2208 290.262 94.8954 292.682 92.2448C295.102 89.5941 296.312 86.3095 296.312 82.3911C296.312 78.4727 295.102 75.1881 292.682 72.5374C290.262 69.8867 287.179 68.5614 283.433 68.5614C279.63 68.5614 276.519 69.8867 274.098 72.5374C271.678 75.1881 270.468 78.4727 270.468 82.3911C270.468 86.3095 271.678 89.5941 274.098 92.2448C276.519 94.8954 279.63 96.2208 283.433 96.2208ZM332.588 104.864C327.633 104.864 323.714 103.222 320.833 99.9375C317.952 96.5953 316.511 92.1583 316.511 86.6264V60.7822H326.019V85.0706C326.019 88.528 326.768 91.2651 328.267 93.282C329.765 95.2412 331.897 96.2208 334.663 96.2208C337.89 96.2208 340.454 95.0107 342.356 92.5905C344.257 90.1127 345.208 86.5976 345.208 82.0453V60.7822H354.716V104H345.208V98.1224C342.673 102.617 338.466 104.864 332.588 104.864ZM368.95 104V39.1733H378.458V104H368.95ZM410.394 104.864C404.516 104.864 399.561 102.675 395.527 98.2952C391.551 93.9158 389.563 88.6145 389.563 82.3911C389.563 76.1677 391.551 70.8663 395.527 66.4869C399.561 62.1075 404.516 59.9178 410.394 59.9178C413.333 59.9178 416.041 60.5805 418.519 61.9058C420.997 63.1736 422.898 64.7294 424.224 66.5734V60.7822H433.731V104H424.224V98.2088C422.898 100.053 420.997 101.637 418.519 102.963C416.041 104.23 413.333 104.864 410.394 104.864ZM402.874 92.2448C405.294 94.8954 408.377 96.2208 412.123 96.2208C415.868 96.2208 418.951 94.8954 421.371 92.2448C423.791 89.5941 425.001 86.3095 425.001 82.3911C425.001 78.4727 423.791 75.1881 421.371 72.5374C418.951 69.8867 415.868 68.5614 412.123 68.5614C408.377 68.5614 405.294 69.8867 402.874 72.5374C400.454 75.1881 399.244 78.4727 399.244 82.3911C399.244 86.3095 400.454 89.5941 402.874 92.2448Z" fill="url(#paint0_linear)"/>
<path d="M0 69.9856C0 31.3336 31.3336 0 69.9856 0V0C108.638 0 139.971 31.3336 139.971 69.9856V69.9856C139.971 108.638 108.638 139.971 69.9856 139.971V139.971C31.3336 139.971 0 108.638 0 69.9856V69.9856Z" fill="url(#paint1_linear)"/>
<path fill-rule="evenodd" clip-rule="evenodd" d="M65.011 69.9857C65.011 67.243 67.243 65.011 69.9857 65.011C72.7284 65.011 74.9604 67.243 74.9604 69.9857C74.9604 72.7284 72.7284 74.9604 69.9857 74.9604C67.243 74.9604 65.011 72.7284 65.011 69.9857ZM68.3276 69.9857C68.3276 70.901 69.0721 71.6439 69.9858 71.6439C70.8995 71.6439 71.644 70.901 71.644 69.9857C71.644 69.0703 70.8995 68.3274 69.9858 68.3274C69.0721 68.3274 68.3276 69.0703 68.3276 69.9857Z" fill="white"/>
<path d="M39.7062 46.2278C26.4768 49.803 18.5803 61.1636 18.5803 76.6183H21.8968C21.8968 62.7538 28.8763 52.5905 40.5701 49.4316L39.7062 46.2278Z" fill="white"/>
<path d="M66.5993 52.2326C63.3508 48.9841 57.5619 45.1121 48.4283 45.1121C47.2493 45.1121 46.0786 45.1685 44.9477 45.2813L45.2744 48.5811C46.2975 48.48 47.3571 48.4286 48.4283 48.4286C63.6028 48.4286 68.2442 60.1258 68.4349 60.6233L71.5391 59.4542C71.4828 59.305 70.128 55.7613 66.5993 52.2326Z" fill="white"/>
<path d="M38.1026 105.852L35.539 107.952C36.398 109 37.3349 110.034 38.3265 111.025L40.6712 108.68C39.7576 107.765 38.892 106.813 38.1026 105.852Z" fill="white"/>
<path d="M31.7633 92.8889L28.5065 93.514C29.3141 97.7292 31.0967 101.822 33.8046 105.676L36.5191 103.769C34.0831 100.3 32.4829 96.6398 31.7633 92.8889Z" fill="white"/>
<path d="M31.3935 86.689L28.0854 86.4485C28.0008 87.6226 27.9942 88.8115 28.0638 89.9839L31.3736 89.7866C31.3123 88.7585 31.3189 87.7154 31.3935 86.689Z" fill="white"/>
<path d="M108.679 99.2997C102.714 105.264 95.8623 108.491 88.8579 108.634C81.9828 108.83 75.4643 105.953 69.9839 100.472C59.2534 89.7416 64.243 78.1887 64.4603 77.7028L62.948 77.0213L61.439 76.3348C61.3726 76.4807 59.8239 79.9448 59.8239 84.9377C59.8239 89.531 61.1786 96.3613 67.6375 102.818C73.6237 108.805 80.779 111.959 88.3637 111.959C88.5511 111.959 88.7368 111.955 88.9242 111.952C96.8008 111.791 104.44 108.228 111.022 101.646L108.679 99.2997Z" fill="white"/>
<path d="M118.075 63.3527C118.075 64.4305 118.031 65.5017 117.947 66.5332L121.252 66.8051C121.345 65.6825 121.391 64.5217 121.391 63.3527H118.075Z" fill="white"/>
<path d="M117.547 69.7035C116.393 76.3795 113.342 81.9363 108.724 85.7701L110.841 88.3222C116.074 83.9776 119.524 77.7343 120.815 70.2689L117.547 69.7035Z" fill="white"/>
<path d="M101.643 28.9456L99.2981 31.2904C100.212 32.204 101.076 33.1559 101.868 34.121L104.432 32.0167C103.571 30.9687 102.633 29.9356 101.643 28.9456Z" fill="white"/>
<path d="M106.165 34.2969L103.45 36.2039C109.75 45.17 110.337 55.3598 105.06 64.1568L107.904 65.8631C113.887 55.8905 113.252 44.3856 106.165 34.2969Z" fill="white"/>
<path d="M103.48 66.5164C102.59 67.7137 101.578 68.8794 100.474 69.9854C89.7432 80.7159 78.1903 75.7263 77.7028 75.509L77.0213 77.0197L76.3347 78.5287C76.4807 78.595 79.9447 80.1438 84.936 80.1438C89.5293 80.1438 96.3596 78.789 102.817 72.3302C104.036 71.1114 105.153 69.8213 106.14 68.498L103.48 66.5164Z" fill="white"/>
<path d="M63.3527 18.5803V21.8967C64.4223 21.8967 65.4918 21.9382 66.5348 22.0244L66.8035 18.7179C65.6709 18.6267 64.5101 18.5803 63.3527 18.5803Z" fill="white"/>
<path d="M70.269 19.1555L69.7035 22.4222C73.1643 23.0192 76.3315 24.1252 79.1173 25.7055L80.754 22.8252C77.6349 21.0542 74.1061 19.8188 70.269 19.1555Z" fill="white"/>
<path fill-rule="evenodd" clip-rule="evenodd" d="M84.2778 25.1899C89.9606 29.6705 93.4578 36.0431 94.5042 43.6494C96.6118 44.2248 98.1755 46.1384 98.1755 48.4284C98.1755 50.7367 96.5869 52.6652 94.4511 53.2257C92.2158 66.9592 81.0095 71.3535 80.517 71.5393L79.9349 69.9855L79.3479 68.4351C79.7625 68.2775 89.1249 64.5399 91.1413 52.9438C89.4267 52.1578 88.2261 50.4349 88.2261 48.4284C88.2261 46.4021 89.4482 44.6593 91.191 43.8865C90.2259 37.2387 87.1632 31.6869 82.2249 27.7934L84.2778 25.1899ZM91.5425 48.4284C91.5425 49.3438 92.287 50.0867 93.2007 50.0867C94.1144 50.0867 94.8589 49.3438 94.8589 48.4284C94.8589 47.5131 94.1144 46.7702 93.2007 46.7702C92.287 46.7702 91.5425 47.5131 91.5425 48.4284Z" fill="white"/>
<path fill-rule="evenodd" clip-rule="evenodd" d="M46.7701 25.2131C48.7468 25.2131 50.4431 26.3805 51.2457 28.052C58.4176 27.9591 65.2578 30.6537 71.1031 35.98L68.8694 38.4325C63.7438 33.7662 57.7941 31.3635 51.589 31.3635C51.0567 33.5391 49.1066 35.1625 46.7701 35.1625C45.0854 35.1625 43.5996 34.3168 42.7008 33.0317C38.6564 34.5821 34.8242 37.1391 31.2922 40.6711L28.9458 38.3281C32.9007 34.3715 37.2336 31.526 41.8319 29.8213C42.0243 27.251 44.1534 25.2131 46.7701 25.2131ZM45.1121 30.1878C45.1121 31.1032 45.8566 31.8461 46.7703 31.8461C47.684 31.8461 48.4286 31.1032 48.4286 30.1878C48.4286 29.2725 47.684 28.5296 46.7703 28.5296C45.8566 28.5296 45.1121 29.2725 45.1121 30.1878Z" fill="white"/>
<path d="M74.0931 39.0659L71.561 41.2067C80.2054 51.4314 75.7066 61.8318 75.5109 62.2679L78.5322 63.636C78.7627 63.1236 84.1254 50.9339 74.0931 39.0659Z" fill="white"/>
<path fill-rule="evenodd" clip-rule="evenodd" d="M94.4975 91.3635C98.6033 90.987 102.356 89.8677 105.624 87.9442L107.307 90.8013C103.555 93.0117 99.2798 94.3201 94.597 94.7197C93.9503 96.7179 92.0947 98.1755 89.8843 98.1755C87.4533 98.1755 85.4319 96.4194 85.0008 94.1128C72.6237 91.2441 68.6008 80.9696 68.4317 80.5186L69.9855 79.9349L71.5359 79.3495C71.6802 79.7293 75.0995 88.3107 85.5347 90.8361C86.3804 89.289 88.0022 88.2261 89.8843 88.2261C91.977 88.2261 93.7646 89.5295 94.4975 91.3635ZM88.2261 93.2008C88.2261 94.1162 88.9707 94.8591 89.8844 94.8591C90.798 94.8591 91.5426 94.1162 91.5426 93.2008C91.5426 92.2855 90.798 91.5426 89.8844 91.5426C88.9707 91.5426 88.2261 92.2855 88.2261 93.2008Z" fill="white"/>
<path fill-rule="evenodd" clip-rule="evenodd" d="M43.4537 60.036C44.7322 60.036 45.8863 60.5335 46.7685 61.3295C55.7744 57.9749 63.3127 61.2946 63.6361 61.4422L62.268 64.4619C62.2673 64.4616 62.2657 64.4609 62.2632 64.4598C62.0548 64.3717 55.7696 61.7147 48.3538 64.2795C48.3553 64.2891 48.3567 64.2988 48.3582 64.3084C48.3933 64.5392 48.4284 64.7704 48.4284 65.0107C48.4284 67.7535 46.1964 69.9854 43.4537 69.9854C42.3692 69.9854 41.3743 69.6273 40.5551 69.0369C40.4334 69.1467 40.3103 69.2531 40.1873 69.3593C39.9536 69.5613 39.7205 69.7627 39.4988 69.9854C35.5058 73.9785 32.8526 78.6829 31.8278 83.5896L28.581 82.913C29.7384 77.3729 32.7017 72.0931 37.1541 67.6407C37.6399 67.1548 38.1424 66.6939 38.6531 66.2461C38.5503 65.8482 38.479 65.4386 38.479 65.0107C38.479 62.268 40.711 60.036 43.4537 60.036ZM41.7954 65.0108C41.7954 65.9261 42.54 66.669 43.4537 66.669C44.3674 66.669 45.1119 65.9261 45.1119 65.0108C45.1119 64.0954 44.3674 63.3525 43.4537 63.3525C42.54 63.3525 41.7954 64.0954 41.7954 65.0108Z" fill="white"/>
<path fill-rule="evenodd" clip-rule="evenodd" d="M56.7197 108.125C56.7197 109.045 56.4511 109.898 56.015 110.637C61.066 115.493 68.1665 118.074 76.6186 118.074V121.391C67.1451 121.391 59.1441 118.408 53.4447 112.781C52.9124 112.977 52.3453 113.1 51.745 113.1C49.0023 113.1 46.7703 110.868 46.7703 108.125C46.7703 106.915 47.2214 105.818 47.9427 104.956C46.0689 100.937 45.1121 96.4345 45.1121 91.5427C45.1121 82.4091 48.9824 76.6202 52.2309 73.3718C55.7596 69.843 59.3049 68.4883 59.4542 68.4319L60.0362 69.9857L60.6232 71.5378C60.1258 71.7268 48.4286 76.3699 48.4286 91.5427C48.4286 95.8176 49.2262 99.7443 50.7998 103.247C51.1066 103.187 51.4217 103.15 51.745 103.15C54.4878 103.15 56.7197 105.382 56.7197 108.125ZM50.0866 108.125C50.0866 109.041 50.8311 109.784 51.7448 109.784C52.6585 109.784 53.403 109.041 53.403 108.125C53.403 107.21 52.6585 106.467 51.7448 106.467C50.8311 106.467 50.0866 107.21 50.0866 108.125Z" fill="white"/>
<defs>
<linearGradient id="paint0_linear" x1="151" y1="15" x2="151" y2="130.248" gradientUnits="userSpaceOnUse">
<stop stop-color="#F2B3A3"/>
<stop offset="1" stop-color="#C368AE"/>
</linearGradient>
<linearGradient id="paint1_linear" x1="0" y1="0" x2="0" y2="139.971" gradientUnits="userSpaceOnUse">
<stop stop-color="#F2B3A3"/>
<stop offset="1" stop-color="#C368AE"/>
</linearGradient>
</defs>
</svg>
