<svg width="150" height="150" viewBox="0 0 150 150" fill="none" xmlns="http://www.w3.org/2000/svg">
<g clip-path="url(#clip0)">
<path d="M60.2149 72.4216L122.287 82.8081C125.501 88.496 125.976 93.7519 122.287 101.108L79.2568 111.742L20.4 98.8825V97.646L24.2331 96.2859L28.0662 94.9257V85.1927L21.6365 83.7973V82.5608L40.9257 77.4912L60.2149 72.4216Z" fill="#9AE6B4"/>
<path d="M79.7514 95.173L21.6365 82.5608M79.7514 95.173L120.803 83.2912M79.7514 95.173V96.4095M122.287 82.8081L60.2149 72.4216L40.9257 77.4912L21.6365 82.5608M122.287 82.8081C125.501 88.496 125.976 93.7519 122.287 101.108L79.2568 111.742M122.287 82.8081L120.803 83.2912M21.6365 82.5608V83.7973L79.7514 96.4095M79.2568 111.742L20.4 98.8825V97.646M79.2568 111.742V110.258M79.7514 109.022L28.0662 97.8933V85.1927L79.7514 96.4095M79.7514 109.022L120.803 99.1298C123.098 94.209 123.22 91.1469 120.803 84.7865M79.7514 109.022V96.4095M120.803 84.7865L79.7514 96.4095M120.803 84.7865V83.2912M20.4 97.646L79.2568 110.258M20.4 97.646L24.2331 96.2859L28.0662 94.9257M79.2568 110.258L120.803 100.366" stroke="black" stroke-width="0.5"/>
<path d="M90.4306 54.6162L28.4298 65.068C25.2186 70.7917 24.7442 76.0807 28.4298 83.4832L71.4104 94.1838L130.2 81.2435V79.9992L126.371 78.6305L122.543 77.2618V67.4676L128.965 66.0634V64.8192L109.698 59.7177L90.4306 54.6162Z" fill="#FBD38D"/>
<path d="M70.9164 77.5107L128.965 64.8192M70.9164 77.5107L29.9118 65.5542M70.9164 77.5107V78.7549M28.4298 65.068L90.4306 54.6162L109.698 59.7177L128.965 64.8192M28.4298 65.068C25.2186 70.7917 24.7442 76.0807 28.4298 83.4832L71.4104 94.1838M28.4298 65.068L29.9118 65.5542M128.965 64.8192V66.0634L70.9164 78.7549M71.4104 94.1838L130.2 81.2435V79.9992M71.4104 94.1838V92.6907M70.9164 91.4464L122.543 80.2481V67.4676L70.9164 78.7549M70.9164 91.4464L29.9118 81.4923C27.6197 76.5406 27.4979 73.4592 29.9118 67.0589M70.9164 91.4464V78.7549M29.9118 67.0589L70.9164 78.7549M29.9118 67.0589V65.5542M130.2 79.9992L71.4104 92.6907M130.2 79.9992L126.371 78.6305L122.543 77.2618M71.4104 92.6907L29.9118 82.7366" stroke="black" stroke-width="0.5"/>
<path d="M61.2038 37.7999L123.276 48.1864C126.49 53.8743 126.965 59.1302 123.276 66.4864L80.2457 77.1202L21.3889 64.2608V63.0243L25.222 61.6641L29.0551 60.304V50.571L22.6254 49.1756V47.9391L41.9146 42.8695L61.2038 37.7999Z" fill="#FEB2B2"/>
<path d="M80.7403 60.5513L22.6254 47.9391M80.7403 60.5513L121.792 48.6695M80.7403 60.5513V61.7878M123.276 48.1864L61.2038 37.7999L41.9146 42.8695L22.6254 47.9391M123.276 48.1864C126.49 53.8743 126.965 59.1302 123.276 66.4864L80.2457 77.1202M123.276 48.1864L121.792 48.6695M22.6254 47.9391V49.1756L80.7403 61.7878M80.2457 77.1202L21.3889 64.2608V63.0243M80.2457 77.1202V75.6364M80.7403 74.4L29.0551 63.2716V50.571L80.7403 61.7878M80.7403 74.4L121.792 64.5081C124.087 59.5873 124.208 56.5251 121.792 50.1648M80.7403 74.4V61.7878M121.792 50.1648L80.7403 61.7878M121.792 50.1648V48.6695M21.3889 63.0243L80.2457 75.6364M21.3889 63.0243L25.222 61.6641L29.0551 60.304M80.2457 75.6364L121.792 65.7445" stroke="black" stroke-width="0.5"/>
</g>
<defs>
<clipPath id="clip0">
<path d="M0 75C0 33.5786 33.5786 0 75 0V0C116.421 0 150 33.5786 150 75V75C150 116.421 116.421 150 75 150V150C33.5786 150 0 116.421 0 75V75Z" fill="white"/>
</clipPath>
</defs>
</svg>
