<svg width="290" height="100" viewBox="0 0 290 100" fill="none" xmlns="http://www.w3.org/2000/svg">
<path d="M52.907 26.6012C52.907 30.6138 51.986 34.2975 50.1442 37.6524C48.3023 40.9414 45.4737 43.6056 41.6584 45.6448C37.8431 47.684 33.1069 48.7036 27.4497 48.7036H16.9905V73.5688H0.117641V4.30137H27.4497C32.9753 4.30137 37.6457 5.25519 41.4611 7.16284C45.2764 9.07049 48.1378 11.7017 50.0455 15.0566C51.9531 18.4114 52.907 22.2596 52.907 26.6012ZM26.1669 35.2843C29.3902 35.2843 31.7912 34.5278 33.37 33.0148C34.9487 31.5018 35.7381 29.364 35.7381 26.6012C35.7381 23.8383 34.9487 21.7005 33.37 20.1875C31.7912 18.6745 29.3902 17.9181 26.1669 17.9181H16.9905V35.2843H26.1669ZM89.8371 74.3582C84.4431 74.3582 79.5753 73.2071 75.2337 70.9047C70.958 68.6024 67.5702 65.3133 65.0705 61.0376C62.6366 56.7618 61.4197 51.7624 61.4197 46.0395C61.4197 40.3823 62.6695 35.4158 65.1692 31.14C67.6689 26.7985 71.0895 23.4766 75.4311 21.1742C79.7726 18.8719 84.6404 17.7207 90.0345 17.7207C95.4285 17.7207 100.296 18.8719 104.638 21.1742C108.979 23.4766 112.4 26.7985 114.9 31.14C117.399 35.4158 118.649 40.3823 118.649 46.0395C118.649 51.6966 117.367 56.696 114.801 61.0376C112.301 65.3133 108.848 68.6024 104.441 70.9047C100.099 73.2071 95.2312 74.3582 89.8371 74.3582ZM89.8371 59.7548C93.0604 59.7548 95.7903 58.5708 98.0269 56.2026C100.329 53.8345 101.48 50.4468 101.48 46.0395C101.48 41.6321 100.362 38.2444 98.1255 35.8763C95.9548 33.5082 93.2577 32.3241 90.0345 32.3241C86.7454 32.3241 84.0155 33.5082 81.8447 35.8763C79.6739 38.1786 78.5886 41.5664 78.5886 46.0395C78.5886 50.4468 79.6411 53.8345 81.7461 56.2026C83.9168 58.5708 86.6139 59.7548 89.8371 59.7548ZM127.329 45.9408C127.329 40.2836 128.382 35.3171 130.487 31.0414C132.658 26.7656 135.585 23.4766 139.269 21.1742C142.952 18.8719 147.064 17.7207 151.602 17.7207C155.22 17.7207 158.509 18.4772 161.47 19.9902C164.496 21.5031 166.864 23.5423 168.574 26.1078V0.551846H185.447V73.5688H168.574V65.6751C166.995 68.3064 164.726 70.4114 161.766 71.9901C158.871 73.5688 155.484 74.3582 151.602 74.3582C147.064 74.3582 142.952 73.2071 139.269 70.9047C135.585 68.5366 132.658 65.2146 130.487 60.9389C128.382 56.5973 127.329 51.598 127.329 45.9408ZM168.574 46.0395C168.574 41.8295 167.39 38.5075 165.022 36.0736C162.719 33.6397 159.891 32.4228 156.536 32.4228C153.181 32.4228 150.32 33.6397 147.952 36.0736C145.649 38.4417 144.498 41.7308 144.498 45.9408C144.498 50.1508 145.649 53.5056 147.952 56.0053C150.32 58.4392 153.181 59.6561 156.536 59.6561C159.891 59.6561 162.719 58.4392 165.022 56.0053C167.39 53.5714 168.574 50.2495 168.574 46.0395Z" fill="#7B61FF"/>
<path d="M217.61 0.551846V73.5688H200.737V0.551846H217.61ZM289.164 18.5101L254.629 99.7168H236.473L249.103 71.6941L226.705 18.5101H245.551L258.28 52.9465L270.91 18.5101H289.164Z" fill="#14142B"/>
</svg>
