<svg width="915" height="182" viewBox="0 0 915 182" fill="none" xmlns="http://www.w3.org/2000/svg">
<g id="Property 1=Default" filter="url(#filter0_d_3:146441)">
<g clip-path="url(#clip0_3:146441)">
<path d="M0 6C0 2.68629 2.68629 0 6 0H909C912.314 0 915 2.68629 915 6V176C915 179.314 912.314 182 909 182H6.00003C2.68632 182 0 179.314 0 176V6Z" fill="white"/>
<g id="content">
<path id="sub-header" d="M209.601 43.9102L212.286 38.0965H215.193L210.957 46.3207V51H208.254V46.3207L204.018 38.0965H206.933L209.601 43.9102ZM215.22 46.1169C215.22 45.1656 215.403 44.3178 215.769 43.5734C216.135 42.829 216.661 42.2529 217.347 41.8452C218.038 41.4376 218.838 41.2337 219.748 41.2337C221.042 41.2337 222.097 41.6296 222.912 42.4213C223.733 43.213 224.191 44.2883 224.286 45.6472L224.304 46.303C224.304 47.7741 223.893 48.9558 223.072 49.8479C222.25 50.7341 221.149 51.1772 219.766 51.1772C218.384 51.1772 217.279 50.7341 216.452 49.8479C215.63 48.9617 215.22 47.7564 215.22 46.2321V46.1169ZM217.781 46.303C217.781 47.2128 217.952 47.91 218.295 48.3945C218.638 48.873 219.128 49.1123 219.766 49.1123C220.386 49.1123 220.871 48.876 221.219 48.4033C221.568 47.9248 221.742 47.1626 221.742 46.1169C221.742 45.2247 221.568 44.5335 221.219 44.0431C220.871 43.5527 220.38 43.3075 219.748 43.3075C219.122 43.3075 218.638 43.5527 218.295 44.0431C217.952 44.5276 217.781 45.2809 217.781 46.303ZM231.624 50.0251C230.992 50.7932 230.117 51.1772 229.001 51.1772C227.973 51.1772 227.187 50.8818 226.643 50.291C226.106 49.7002 225.831 48.8346 225.819 47.6944V41.411H228.38V47.6057C228.38 48.6042 228.835 49.1035 229.745 49.1035C230.614 49.1035 231.21 48.8021 231.535 48.1995V41.411H234.105V51H231.695L231.624 50.0251ZM241.426 43.8127C241.077 43.7654 240.77 43.7418 240.504 43.7418C239.535 43.7418 238.9 44.0697 238.598 44.7255V51H236.037V41.411H238.457L238.528 42.5542C239.042 41.6739 239.753 41.2337 240.663 41.2337C240.947 41.2337 241.213 41.2721 241.461 41.349L241.426 43.8127ZM250.013 46.4536V51H247.354V38.0965H252.388C253.357 38.0965 254.208 38.2737 254.941 38.6282C255.679 38.9827 256.246 39.4879 256.642 40.1437C257.038 40.7936 257.236 41.5351 257.236 42.3681C257.236 43.6325 256.802 44.631 255.933 45.3636C255.071 46.0903 253.874 46.4536 252.344 46.4536H250.013ZM250.013 44.3001H252.388C253.091 44.3001 253.626 44.1347 253.992 43.8038C254.364 43.4729 254.551 43.0003 254.551 42.3858C254.551 41.7537 254.364 41.2426 253.992 40.8527C253.62 40.4627 253.106 40.2618 252.45 40.25H250.013V44.3001ZM268.783 40.25H264.831V51H262.172V40.25H258.273V38.0965H268.783V40.25ZM280.659 44.8407C280.659 46.111 280.434 47.2247 279.985 48.1818C279.536 49.1389 278.892 49.8774 278.053 50.3974C277.22 50.9173 276.263 51.1772 275.182 51.1772C274.113 51.1772 273.158 50.9202 272.32 50.4062C271.481 49.8922 270.831 49.1596 270.37 48.2084C269.909 47.2512 269.676 46.1523 269.67 44.9116V44.2735C269.67 43.0032 269.897 41.8866 270.352 40.9236C270.813 39.9546 271.46 39.2131 272.293 38.6991C273.132 38.1792 274.089 37.9192 275.164 37.9192C276.24 37.9192 277.194 38.1792 278.027 38.6991C278.866 39.2131 279.513 39.9546 279.968 40.9236C280.429 41.8866 280.659 43.0003 280.659 44.2646V44.8407ZM277.965 44.2558C277.965 42.9028 277.723 41.8748 277.238 41.1717C276.754 40.4686 276.062 40.1171 275.164 40.1171C274.272 40.1171 273.584 40.4657 273.099 41.1628C272.615 41.8541 272.37 42.8703 272.364 44.2115V44.8407C272.364 46.1582 272.606 47.1803 273.091 47.9071C273.575 48.6338 274.272 48.9971 275.182 48.9971C276.074 48.9971 276.76 48.6485 277.238 47.9514C277.717 47.2483 277.959 46.2262 277.965 44.885V44.2558ZM287.642 51V43.2898H286.216V41.411H287.642V40.5957C287.642 39.5204 287.95 38.6873 288.564 38.0965C289.184 37.4998 290.05 37.2014 291.161 37.2014C291.515 37.2014 291.95 37.2605 292.464 37.3786L292.437 39.3638C292.224 39.3106 291.964 39.284 291.657 39.284C290.694 39.284 290.213 39.736 290.213 40.64V41.411H292.118V43.2898H290.213V51H287.642ZM293.048 46.1169C293.048 45.1656 293.232 44.3178 293.598 43.5734C293.964 42.829 294.49 42.2529 295.175 41.8452C295.867 41.4376 296.667 41.2337 297.577 41.2337C298.871 41.2337 299.926 41.6296 300.741 42.4213C301.562 43.213 302.02 44.2883 302.115 45.6472L302.132 46.303C302.132 47.7741 301.722 48.9558 300.9 49.8479C300.079 50.7341 298.977 51.1772 297.595 51.1772C296.212 51.1772 295.107 50.7341 294.28 49.8479C293.459 48.9617 293.048 47.7564 293.048 46.2321V46.1169ZM295.61 46.303C295.61 47.2128 295.781 47.91 296.124 48.3945C296.466 48.873 296.957 49.1123 297.595 49.1123C298.215 49.1123 298.7 48.876 299.048 48.4033C299.397 47.9248 299.571 47.1626 299.571 46.1169C299.571 45.2247 299.397 44.5335 299.048 44.0431C298.7 43.5527 298.209 43.3075 297.577 43.3075C296.951 43.3075 296.466 43.5527 296.124 44.0431C295.781 44.5276 295.61 45.2809 295.61 46.303ZM309.098 43.8127C308.749 43.7654 308.442 43.7418 308.176 43.7418C307.207 43.7418 306.572 44.0697 306.271 44.7255V51H303.71V41.411H306.129L306.2 42.5542C306.714 41.6739 307.426 41.2337 308.336 41.2337C308.62 41.2337 308.885 41.2721 309.134 41.349L309.098 43.8127ZM320.229 38.0965H322.888V47.0297C322.888 47.8509 322.705 48.5776 322.338 49.2098C321.978 49.8361 321.467 50.3206 320.805 50.6632C320.143 51.0059 319.396 51.1772 318.563 51.1772C317.198 51.1772 316.135 50.8316 315.373 50.1404C314.61 49.4432 314.229 48.4595 314.229 47.1892H316.906C316.906 47.8214 317.039 48.2881 317.305 48.5895C317.57 48.8908 317.99 49.0414 318.563 49.0414C319.071 49.0414 319.476 48.8671 319.777 48.5186C320.078 48.17 320.229 47.6737 320.229 47.0297V38.0965ZM330.74 50.0251C330.108 50.7932 329.233 51.1772 328.117 51.1772C327.089 51.1772 326.303 50.8818 325.759 50.291C325.222 49.7002 324.947 48.8346 324.935 47.6944V41.411H327.496V47.6057C327.496 48.6042 327.951 49.1035 328.861 49.1035C329.73 49.1035 330.326 48.8021 330.651 48.1995V41.411H333.221V51H330.811L330.74 50.0251ZM337.856 51H335.286V37.3875H337.856V51ZM343.555 47.3753L345.327 41.411H348.074L344.219 52.4889L344.007 52.994C343.434 54.2466 342.488 54.8728 341.171 54.8728C340.799 54.8728 340.42 54.8167 340.036 54.7044V52.7636L340.426 52.7725C340.911 52.7725 341.271 52.6986 341.508 52.5509C341.75 52.4032 341.939 52.158 342.075 51.8153L342.376 51.0266L339.017 41.411H341.773L343.555 47.3753ZM359.72 51H357.158V41.1274L354.101 42.0757V39.993L359.445 38.0788H359.72V51ZM366.526 43.4139H367.891C368.541 43.4139 369.022 43.2514 369.335 42.9264C369.648 42.6015 369.805 42.1702 369.805 41.6325C369.805 41.1126 369.648 40.7079 369.335 40.4184C369.028 40.1289 368.603 39.9842 368.059 39.9842C367.569 39.9842 367.158 40.12 366.827 40.3918C366.496 40.6577 366.331 41.0063 366.331 41.4376H363.77C363.77 40.764 363.95 40.1614 364.31 39.6297C364.677 39.092 365.185 38.6725 365.835 38.3712C366.49 38.0699 367.211 37.9192 367.997 37.9192C369.362 37.9192 370.431 38.2471 371.205 38.903C371.979 39.5529 372.366 40.4509 372.366 41.5971C372.366 42.1879 372.186 42.7315 371.825 43.2278C371.465 43.724 370.992 44.1051 370.407 44.371C371.134 44.631 371.675 45.0209 372.029 45.5408C372.39 46.0607 372.57 46.6752 372.57 47.3842C372.57 48.5304 372.15 49.4491 371.311 50.1404C370.478 50.8316 369.374 51.1772 367.997 51.1772C366.709 51.1772 365.654 50.8375 364.833 50.1581C364.018 49.4786 363.61 48.5806 363.61 47.4639H366.171C366.171 47.9484 366.352 48.3443 366.712 48.6515C367.078 48.9587 367.527 49.1123 368.059 49.1123C368.668 49.1123 369.143 48.9528 369.486 48.6338C369.834 48.3088 370.009 47.8805 370.009 47.3487C370.009 46.0607 369.3 45.4167 367.882 45.4167H366.526V43.4139ZM375.113 54.2347L373.775 53.5346L374.094 52.9586C374.49 52.2378 374.694 51.5199 374.706 50.805V48.8199H376.868L376.859 50.5923C376.853 51.2481 376.688 51.9099 376.363 52.5775C376.038 53.2451 375.621 53.7975 375.113 54.2347ZM392.138 51H383.293V49.2453L387.467 44.7964C388.041 44.1701 388.463 43.6236 388.735 43.1569C389.012 42.6901 389.151 42.247 389.151 41.8275C389.151 41.2544 389.007 40.8054 388.717 40.4804C388.428 40.1496 388.014 39.9842 387.476 39.9842C386.897 39.9842 386.439 40.185 386.103 40.5868C385.772 40.9826 385.606 41.5055 385.606 42.1554H383.036C383.036 41.3696 383.222 40.6518 383.595 40.0019C383.973 39.352 384.504 38.8439 385.19 38.4776C385.875 38.1053 386.652 37.9192 387.521 37.9192C388.85 37.9192 389.881 38.2383 390.614 38.8764C391.352 39.5145 391.721 40.4155 391.721 41.5794C391.721 42.2175 391.556 42.8674 391.225 43.5291C390.894 44.1908 390.327 44.9618 389.523 45.8421L386.59 48.9351H392.138V51ZM402.4 45.6649C402.4 47.4492 402.031 48.814 401.293 49.7593C400.554 50.7046 399.473 51.1772 398.049 51.1772C396.643 51.1772 395.568 50.7135 394.823 49.7859C394.079 48.8583 393.698 47.5289 393.68 45.7978V43.4227C393.68 41.6207 394.052 40.253 394.797 39.3195C395.547 38.386 396.625 37.9192 398.031 37.9192C399.437 37.9192 400.513 38.383 401.257 39.3106C402.002 40.2323 402.383 41.5587 402.4 43.2898V45.6649ZM399.839 43.0594C399.839 41.99 399.691 41.2131 399.396 40.7286C399.107 40.2382 398.652 39.993 398.031 39.993C397.429 39.993 396.983 40.2264 396.693 40.6931C396.409 41.154 396.259 41.8777 396.241 42.8644V46.0017C396.241 47.0533 396.383 47.8362 396.666 48.3502C396.956 48.8583 397.417 49.1123 398.049 49.1123C398.675 49.1123 399.127 48.8671 399.405 48.3768C399.683 47.8864 399.827 47.136 399.839 46.1257V43.0594ZM412.982 51H404.137V49.2453L408.312 44.7964C408.885 44.1701 409.307 43.6236 409.579 43.1569C409.857 42.6901 409.995 42.247 409.995 41.8275C409.995 41.2544 409.851 40.8054 409.561 40.4804C409.272 40.1496 408.858 39.9842 408.32 39.9842C407.741 39.9842 407.284 40.185 406.947 40.5868C406.616 40.9826 406.45 41.5055 406.45 42.1554H403.88C403.88 41.3696 404.067 40.6518 404.439 40.0019C404.817 39.352 405.349 38.8439 406.034 38.4776C406.719 38.1053 407.496 37.9192 408.365 37.9192C409.694 37.9192 410.725 38.2383 411.458 38.8764C412.196 39.5145 412.565 40.4155 412.565 41.5794C412.565 42.2175 412.4 42.8674 412.069 43.5291C411.738 44.1908 411.171 44.9618 410.368 45.8421L407.434 48.9351H412.982V51ZM420.781 51H418.22V41.1274L415.162 42.0757V39.993L420.506 38.0788H420.781V51ZM432.674 39.0536V41.411H434.314V43.2898H432.674V48.0754C432.674 48.4299 432.742 48.684 432.878 48.8376C433.014 48.9912 433.274 49.068 433.658 49.068C433.941 49.068 434.192 49.0473 434.411 49.006V50.9468C433.909 51.1004 433.392 51.1772 432.86 51.1772C431.064 51.1772 430.148 50.2703 430.113 48.4565V43.2898H428.713V41.411H430.113V39.0536H432.674ZM435.076 46.1169C435.076 45.1656 435.259 44.3178 435.625 43.5734C435.991 42.829 436.517 42.2529 437.203 41.8452C437.894 41.4376 438.695 41.2337 439.604 41.2337C440.898 41.2337 441.953 41.6296 442.768 42.4213C443.589 43.213 444.047 44.2883 444.142 45.6472L444.16 46.303C444.16 47.7741 443.749 48.9558 442.928 49.8479C442.106 50.7341 441.005 51.1772 439.622 51.1772C438.24 51.1772 437.135 50.7341 436.308 49.8479C435.486 48.9617 435.076 47.7564 435.076 46.2321V46.1169ZM437.637 46.303C437.637 47.2128 437.808 47.91 438.151 48.3945C438.494 48.873 438.984 49.1123 439.622 49.1123C440.242 49.1123 440.727 48.876 441.076 48.4033C441.424 47.9248 441.598 47.1626 441.598 46.1169C441.598 45.2247 441.424 44.5335 441.076 44.0431C440.727 43.5527 440.237 43.3075 439.604 43.3075C438.978 43.3075 438.494 43.5527 438.151 44.0431C437.808 44.5276 437.637 45.2809 437.637 46.303ZM455.627 38.0965H458.286V47.0297C458.286 47.8509 458.103 48.5776 457.737 49.2098C457.376 49.8361 456.865 50.3206 456.203 50.6632C455.542 51.0059 454.794 51.1772 453.961 51.1772C452.597 51.1772 451.533 50.8316 450.771 50.1404C450.009 49.4432 449.628 48.4595 449.628 47.1892H452.304C452.304 47.8214 452.437 48.2881 452.703 48.5895C452.969 48.8908 453.388 49.0414 453.961 49.0414C454.469 49.0414 454.874 48.8671 455.175 48.5186C455.477 48.17 455.627 47.6737 455.627 47.0297V38.0965ZM466.138 50.0251C465.506 50.7932 464.632 51.1772 463.515 51.1772C462.487 51.1772 461.701 50.8818 461.157 50.291C460.62 49.7002 460.345 48.8346 460.333 47.6944V41.411H462.895V47.6057C462.895 48.6042 463.349 49.1035 464.259 49.1035C465.128 49.1035 465.725 48.8021 466.049 48.1995V41.411H468.62V51H466.209L466.138 50.0251ZM473.255 51H470.684V37.3875H473.255V51ZM478.953 47.3753L480.725 41.411H483.473L479.618 52.4889L479.405 52.994C478.832 54.2466 477.887 54.8728 476.569 54.8728C476.197 54.8728 475.819 54.8167 475.435 54.7044V52.7636L475.825 52.7725C476.309 52.7725 476.669 52.6986 476.906 52.5509C477.148 52.4032 477.337 52.158 477.473 51.8153L477.774 51.0266L474.416 41.411H477.172L478.953 47.3753ZM495.118 51H492.557V41.1274L489.499 42.0757V39.993L494.843 38.0788H495.118V51ZM506.896 46.1435H508.358V48.2084H506.896V51H504.335V48.2084H499.044L498.929 46.5954L504.308 38.0965H506.896V46.1435ZM501.481 46.1435H504.335V41.5882L504.166 41.8807L501.481 46.1435ZM510.512 54.2347L509.173 53.5346L509.493 52.9586C509.888 52.2378 510.092 51.5199 510.104 50.805V48.8199H512.266L512.258 50.5923C512.252 51.2481 512.086 51.9099 511.761 52.5775C511.436 53.2451 511.02 53.7975 510.512 54.2347ZM527.536 51H518.692V49.2453L522.866 44.7964C523.439 44.1701 523.861 43.6236 524.133 43.1569C524.411 42.6901 524.55 42.247 524.55 41.8275C524.55 41.2544 524.405 40.8054 524.115 40.4804C523.826 40.1496 523.412 39.9842 522.875 39.9842C522.296 39.9842 521.838 40.185 521.501 40.5868C521.17 40.9826 521.005 41.5055 521.005 42.1554H518.435C518.435 41.3696 518.621 40.6518 518.993 40.0019C519.371 39.352 519.903 38.8439 520.588 38.4776C521.273 38.1053 522.05 37.9192 522.919 37.9192C524.248 37.9192 525.279 38.2383 526.012 38.8764C526.75 39.5145 527.12 40.4155 527.12 41.5794C527.12 42.2175 526.954 42.8674 526.623 43.5291C526.292 44.1908 525.725 44.9618 524.922 45.8421L521.988 48.9351H527.536V51ZM537.799 45.6649C537.799 47.4492 537.429 48.814 536.691 49.7593C535.952 50.7046 534.871 51.1772 533.447 51.1772C532.041 51.1772 530.966 50.7135 530.221 49.7859C529.477 48.8583 529.096 47.5289 529.078 45.7978V43.4227C529.078 41.6207 529.45 40.253 530.195 39.3195C530.945 38.386 532.023 37.9192 533.43 37.9192C534.836 37.9192 535.911 38.383 536.655 39.3106C537.4 40.2323 537.781 41.5587 537.799 43.2898V45.6649ZM535.237 43.0594C535.237 41.99 535.09 41.2131 534.794 40.7286C534.505 40.2382 534.05 39.993 533.43 39.993C532.827 39.993 532.381 40.2264 532.091 40.6931C531.808 41.154 531.657 41.8777 531.639 42.8644V46.0017C531.639 47.0533 531.781 47.8362 532.065 48.3502C532.354 48.8583 532.815 49.1123 533.447 49.1123C534.074 49.1123 534.526 48.8671 534.803 48.3768C535.081 47.8864 535.226 47.136 535.237 46.1257V43.0594ZM548.38 51H539.536V49.2453L543.71 44.7964C544.283 44.1701 544.705 43.6236 544.977 43.1569C545.255 42.6901 545.394 42.247 545.394 41.8275C545.394 41.2544 545.249 40.8054 544.959 40.4804C544.67 40.1496 544.256 39.9842 543.719 39.9842C543.14 39.9842 542.682 40.185 542.345 40.5868C542.014 40.9826 541.849 41.5055 541.849 42.1554H539.279C539.279 41.3696 539.465 40.6518 539.837 40.0019C540.215 39.352 540.747 38.8439 541.432 38.4776C542.118 38.1053 542.895 37.9192 543.763 37.9192C545.092 37.9192 546.123 38.2383 546.856 38.8764C547.595 39.5145 547.964 40.4155 547.964 41.5794C547.964 42.2175 547.798 42.8674 547.467 43.5291C547.137 44.1908 546.569 44.9618 545.766 45.8421L542.833 48.9351H548.38V51ZM556.179 51H553.618V41.1274L550.56 42.0757V39.993L555.904 38.0788H556.179V51ZM207.483 63.4567C208.162 62.6414 209.016 62.2337 210.044 62.2337C212.124 62.2337 213.178 63.442 213.208 65.8584V72H210.647V65.9293C210.647 65.3799 210.529 64.9751 210.292 64.7152C210.056 64.4493 209.663 64.3164 209.114 64.3164C208.363 64.3164 207.82 64.6059 207.483 65.1849V72H204.922V58.3875H207.483V63.4567ZM220.697 72C220.578 71.7696 220.493 71.483 220.44 71.1404C219.819 71.8316 219.013 72.1772 218.02 72.1772C217.081 72.1772 216.301 71.9055 215.681 71.3619C215.066 70.8184 214.759 70.133 214.759 69.3059C214.759 68.2896 215.134 67.5098 215.884 66.9662C216.641 66.4227 217.731 66.1479 219.155 66.142H220.333V65.5926C220.333 65.1494 220.218 64.7949 219.988 64.5291C219.763 64.2632 219.406 64.1303 218.915 64.1303C218.484 64.1303 218.144 64.2337 217.896 64.4405C217.654 64.6472 217.533 64.9308 217.533 65.2912H214.972C214.972 64.7359 215.143 64.2219 215.486 63.7492C215.828 63.2765 216.313 62.9073 216.939 62.6414C217.565 62.3696 218.268 62.2337 219.048 62.2337C220.23 62.2337 221.166 62.5321 221.858 63.1288C222.555 63.7197 222.903 64.5527 222.903 65.628V69.7844C222.909 70.6943 223.036 71.3826 223.284 71.8493V72H220.697ZM218.578 70.2187C218.957 70.2187 219.305 70.136 219.624 69.9705C219.943 69.7992 220.18 69.5717 220.333 69.2881V67.6397H219.376C218.094 67.6397 217.412 68.0829 217.329 68.9691L217.32 69.1198C217.32 69.4388 217.432 69.7017 217.657 69.9085C217.881 70.1153 218.189 70.2187 218.578 70.2187ZM230.064 69.3502C230.064 69.037 229.907 68.7918 229.594 68.6146C229.287 68.4314 228.791 68.269 228.105 68.1272C225.825 67.6486 224.685 66.6797 224.685 65.2203C224.685 64.3696 225.036 63.6606 225.739 63.0934C226.448 62.5203 227.373 62.2337 228.513 62.2337C229.73 62.2337 230.702 62.5203 231.429 63.0934C232.161 63.6665 232.528 64.4109 232.528 65.3267H229.967C229.967 64.9604 229.848 64.6591 229.612 64.4227C229.376 64.1805 229.006 64.0594 228.504 64.0594C228.073 64.0594 227.739 64.1569 227.503 64.3518C227.267 64.5468 227.148 64.7949 227.148 65.0963C227.148 65.3799 227.281 65.6103 227.547 65.7875C227.819 65.9589 228.274 66.1095 228.912 66.2395C229.55 66.3636 230.088 66.5054 230.525 66.6649C231.878 67.1612 232.554 68.0208 232.554 69.2438C232.554 70.1182 232.179 70.8272 231.429 71.3708C230.678 71.9084 229.71 72.1772 228.522 72.1772C227.718 72.1772 227.004 72.0354 226.377 71.7519C225.757 71.4624 225.27 71.0695 224.915 70.5732C224.561 70.071 224.383 69.5304 224.383 68.9514H226.812C226.835 69.4063 227.004 69.7549 227.317 69.9971C227.63 70.2394 228.049 70.3605 228.575 70.3605C229.066 70.3605 229.435 70.2689 229.683 70.0857C229.937 69.8967 230.064 69.6515 230.064 69.3502ZM247.372 67.2941C247.372 68.8302 247.044 70.0296 246.388 70.8922C245.733 71.7489 244.817 72.1772 243.641 72.1772C242.601 72.1772 241.771 71.7784 241.151 70.9808L241.036 72H238.731V58.3875H241.293V63.2706C241.883 62.5794 242.66 62.2337 243.623 62.2337C244.793 62.2337 245.709 62.665 246.371 63.5276C247.038 64.3843 247.372 65.5926 247.372 67.1523V67.2941ZM244.811 67.108C244.811 66.1391 244.657 65.433 244.35 64.9899C244.043 64.5409 243.585 64.3164 242.976 64.3164C242.161 64.3164 241.6 64.6502 241.293 65.3178V69.102C241.606 69.7756 242.173 70.1123 242.994 70.1123C243.821 70.1123 244.365 69.7047 244.625 68.8893C244.749 68.4994 244.811 67.9056 244.811 67.108ZM253.372 72.1772C251.966 72.1772 250.82 71.7459 249.933 70.8833C249.053 70.0208 248.613 68.8716 248.613 67.4359V67.1878C248.613 66.2247 248.799 65.3651 249.171 64.6088C249.543 63.8467 250.069 63.2618 250.749 62.8541C251.434 62.4405 252.214 62.2337 253.088 62.2337C254.4 62.2337 255.431 62.6473 256.181 63.4745C256.937 64.3016 257.316 65.4744 257.316 66.9928V68.0385H251.209C251.292 68.6648 251.54 69.167 251.954 69.5451C252.373 69.9233 252.902 70.1123 253.54 70.1123C254.527 70.1123 255.298 69.7549 255.853 69.04L257.112 70.4491C256.728 70.9927 256.208 71.418 255.552 71.7253C254.896 72.0266 254.17 72.1772 253.372 72.1772ZM253.079 64.3075C252.571 64.3075 252.158 64.4789 251.839 64.8215C251.526 65.1642 251.325 65.6546 251.236 66.2927H254.799V66.0888C254.787 65.5217 254.633 65.0844 254.338 64.7772C254.042 64.4641 253.623 64.3075 253.079 64.3075ZM263.191 72.1772C261.785 72.1772 260.639 71.7459 259.753 70.8833C258.872 70.0208 258.432 68.8716 258.432 67.4359V67.1878C258.432 66.2247 258.618 65.3651 258.991 64.6088C259.363 63.8467 259.889 63.2618 260.568 62.8541C261.253 62.4405 262.033 62.2337 262.908 62.2337C264.219 62.2337 265.25 62.6473 266.001 63.4745C266.757 64.3016 267.135 65.4744 267.135 66.9928V68.0385H261.029C261.112 68.6648 261.36 69.167 261.773 69.5451C262.193 69.9233 262.722 70.1123 263.36 70.1123C264.346 70.1123 265.117 69.7549 265.673 69.04L266.931 70.4491C266.547 70.9927 266.027 71.418 265.371 71.7253C264.716 72.0266 263.989 72.1772 263.191 72.1772ZM262.899 64.3075C262.391 64.3075 261.977 64.4789 261.658 64.8215C261.345 65.1642 261.144 65.6546 261.056 66.2927H264.618V66.0888C264.606 65.5217 264.453 65.0844 264.157 64.7772C263.862 64.4641 263.442 64.3075 262.899 64.3075ZM270.955 62.411L271.034 63.5188C271.72 62.6621 272.639 62.2337 273.791 62.2337C274.807 62.2337 275.563 62.5321 276.059 63.1288C276.556 63.7256 276.81 64.6177 276.822 65.8052V72H274.26V65.8673C274.26 65.3237 274.142 64.9308 273.906 64.6886C273.67 64.4405 273.277 64.3164 272.727 64.3164C272.006 64.3164 271.466 64.6236 271.105 65.2381V72H268.544V62.411H270.955ZM288.484 69.3502C288.484 69.037 288.328 68.7918 288.015 68.6146C287.707 68.4314 287.211 68.269 286.526 68.1272C284.245 67.6486 283.105 66.6797 283.105 65.2203C283.105 64.3696 283.456 63.6606 284.16 63.0934C284.869 62.5203 285.793 62.2337 286.933 62.2337C288.151 62.2337 289.122 62.5203 289.849 63.0934C290.582 63.6665 290.948 64.4109 290.948 65.3267H288.387C288.387 64.9604 288.269 64.6591 288.032 64.4227C287.796 64.1805 287.427 64.0594 286.925 64.0594C286.493 64.0594 286.159 64.1569 285.923 64.3518C285.687 64.5468 285.569 64.7949 285.569 65.0963C285.569 65.3799 285.702 65.6103 285.967 65.7875C286.239 65.9589 286.694 66.1095 287.332 66.2395C287.97 66.3636 288.508 66.5054 288.945 66.6649C290.298 67.1612 290.975 68.0208 290.975 69.2438C290.975 70.1182 290.599 70.8272 289.849 71.3708C289.099 71.9084 288.13 72.1772 286.942 72.1772C286.139 72.1772 285.424 72.0354 284.798 71.7519C284.177 71.4624 283.69 71.0695 283.335 70.5732C282.981 70.071 282.804 69.5304 282.804 68.9514H285.232C285.256 69.4063 285.424 69.7549 285.737 69.9971C286.05 70.2394 286.47 70.3605 286.995 70.3605C287.486 70.3605 287.855 70.2689 288.103 70.0857C288.357 69.8967 288.484 69.6515 288.484 69.3502ZM298.375 71.0251C297.743 71.7932 296.868 72.1772 295.751 72.1772C294.723 72.1772 293.938 71.8818 293.394 71.291C292.856 70.7002 292.582 69.8346 292.57 68.6944V62.411H295.131V68.6057C295.131 69.6042 295.586 70.1035 296.496 70.1035C297.364 70.1035 297.961 69.8021 298.286 69.1995V62.411H300.856V72H298.446L298.375 71.0251ZM311.429 67.2941C311.429 68.8302 311.101 70.0296 310.445 70.8922C309.789 71.7489 308.874 72.1772 307.698 72.1772C306.658 72.1772 305.828 71.7784 305.208 70.9808L305.092 72H302.788V58.3875H305.349V63.2706C305.94 62.5794 306.717 62.2337 307.68 62.2337C308.85 62.2337 309.766 62.665 310.427 63.5276C311.095 64.3843 311.429 65.5926 311.429 67.1523V67.2941ZM308.868 67.108C308.868 66.1391 308.714 65.433 308.407 64.9899C308.1 64.5409 307.642 64.3164 307.033 64.3164C306.218 64.3164 305.657 64.6502 305.349 65.3178V69.102C305.662 69.7756 306.23 70.1123 307.051 70.1123C307.878 70.1123 308.422 69.7047 308.682 68.8893C308.806 68.4994 308.868 67.9056 308.868 67.108ZM315.417 62.411L315.497 63.4833C316.176 62.6503 317.095 62.2337 318.253 62.2337C319.488 62.2337 320.335 62.7212 320.796 63.696C321.47 62.7212 322.43 62.2337 323.677 62.2337C324.716 62.2337 325.49 62.538 325.998 63.1466C326.507 63.7492 326.761 64.6591 326.761 65.8761V72H324.191V65.885C324.191 65.3415 324.084 64.9456 323.872 64.6975C323.659 64.4434 323.284 64.3164 322.746 64.3164C321.978 64.3164 321.446 64.6827 321.151 65.4153L321.16 72H318.598V65.8939C318.598 65.3385 318.489 64.9367 318.271 64.6886C318.052 64.4405 317.68 64.3164 317.154 64.3164C316.427 64.3164 315.901 64.6177 315.576 65.2203V72H313.015V62.411H315.417ZM331.44 72H328.87V62.411H331.44V72ZM328.719 59.9295C328.719 59.5455 328.846 59.2294 329.1 58.9813C329.36 58.7331 329.712 58.6091 330.155 58.6091C330.592 58.6091 330.941 58.7331 331.201 58.9813C331.461 59.2294 331.591 59.5455 331.591 59.9295C331.591 60.3195 331.458 60.6385 331.192 60.8867C330.932 61.1348 330.586 61.2589 330.155 61.2589C329.724 61.2589 329.375 61.1348 329.109 60.8867C328.849 60.6385 328.719 60.3195 328.719 59.9295ZM336.624 60.0536V62.411H338.264V64.2898H336.624V69.0754C336.624 69.4299 336.692 69.684 336.828 69.8376C336.964 69.9912 337.224 70.068 337.608 70.068C337.892 70.068 338.143 70.0473 338.361 70.006V71.9468C337.859 72.1004 337.342 72.1772 336.81 72.1772C335.014 72.1772 334.099 71.2703 334.063 69.4565V64.2898H332.663V62.411H334.063V60.0536H336.624ZM342.757 60.0536V62.411H344.397V64.2898H342.757V69.0754C342.757 69.4299 342.825 69.684 342.961 69.8376C343.097 69.9912 343.357 70.068 343.741 70.068C344.024 70.068 344.276 70.0473 344.494 70.006V71.9468C343.992 72.1004 343.475 72.1772 342.943 72.1772C341.147 72.1772 340.231 71.2703 340.196 69.4565V64.2898H338.796V62.411H340.196V60.0536H342.757ZM350.237 72.1772C348.831 72.1772 347.685 71.7459 346.798 70.8833C345.918 70.0208 345.478 68.8716 345.478 67.4359V67.1878C345.478 66.2247 345.664 65.3651 346.036 64.6088C346.408 63.8467 346.934 63.2618 347.614 62.8541C348.299 62.4405 349.079 62.2337 349.953 62.2337C351.265 62.2337 352.296 62.6473 353.046 63.4745C353.802 64.3016 354.181 65.4744 354.181 66.9928V68.0385H348.074C348.157 68.6648 348.405 69.167 348.819 69.5451C349.238 69.9233 349.767 70.1123 350.405 70.1123C351.392 70.1123 352.163 69.7549 352.718 69.04L353.977 70.4491C353.593 70.9927 353.073 71.418 352.417 71.7253C351.761 72.0266 351.034 72.1772 350.237 72.1772ZM349.944 64.3075C349.436 64.3075 349.023 64.4789 348.704 64.8215C348.391 65.1642 348.19 65.6546 348.101 66.2927H351.664V66.0888C351.652 65.5217 351.498 65.0844 351.203 64.7772C350.907 64.4641 350.488 64.3075 349.944 64.3075ZM355.244 67.1346C355.244 65.6398 355.578 64.4493 356.246 63.5631C356.919 62.6769 357.838 62.2337 359.002 62.2337C359.935 62.2337 360.706 62.5823 361.315 63.2795V58.3875H363.885V72H361.572L361.448 70.9808C360.81 71.7784 359.988 72.1772 358.984 72.1772C357.856 72.1772 356.949 71.7341 356.263 70.8479C355.584 69.9558 355.244 68.718 355.244 67.1346ZM357.805 67.3207C357.805 68.2188 357.962 68.9071 358.275 69.3856C358.588 69.8642 359.043 70.1035 359.64 70.1035C360.431 70.1035 360.99 69.7697 361.315 69.102V65.3178C360.996 64.6502 360.443 64.3164 359.658 64.3164C358.423 64.3164 357.805 65.3178 357.805 67.3207Z" fill="#494949"/>
</g>
<g id="animation">
<g id="bg">
<path id="Vector" fill-rule="evenodd" clip-rule="evenodd" d="M90 179.5C139.705 179.5 180 139.205 180 89.5C180 39.795 139.705 -0.5 90 -0.5C40.295 -0.5 0 39.795 0 89.5C0 139.205 40.295 179.5 90 179.5Z" fill="#0B77E3" fill-opacity="0.2"/>
</g>
<g id="baloons">
<g id="Group">
<path id="Vector_2" fill-rule="evenodd" clip-rule="evenodd" d="M54.7427 133.723C72.6312 133.723 93.8732 107.193 93.8732 80.9266C93.8732 54.6603 78.401 36.5664 55.4001 36.5664C32.4012 36.5664 15.6123 54.7464 15.6123 81.0127C15.6123 107.279 36.8543 133.723 54.7427 133.723Z" fill="#40A0FF"/>
<path id="Vector_3" d="M25.7529 78.0244C26.4553 69.1457 29.8616 61.4527 35.9738 54.9434" stroke="white" stroke-width="14.1304" stroke-linecap="round" stroke-linejoin="round"/>
<path id="Vector_4" d="M41.3906 49.5432C42.1507 49.0957 42.9225 48.6684 43.7052 48.2617" stroke="white" stroke-width="14.1304" stroke-linecap="round"/>
<path id="Vector_5" d="M49.0257 134.913C31.8826 130.173 14 105.433 14 80.843C14 53.4967 31.4796 34.5654 55.4274 34.5654C79.3752 34.5654 95.4833 53.4067 95.4833 80.753C95.4833 105.9 76.7848 131.28 59.2935 135.203L60.9565 140.807H55.9576C54.8483 144.317 54.2946 147.756 54.2946 151.129C54.2946 153.538 54.6663 154.866 55.67 156.834C55.7307 156.952 56.2707 157.985 56.4389 158.319C58.2115 161.841 59.0176 165.343 59 171.526L55.087 171.516C55.1026 165.94 54.4354 163.044 52.9426 160.078C52.792 159.775 52.2598 158.758 52.1874 158.617C50.9157 156.132 50.3815 154.211 50.3815 151.129C50.3815 147.729 50.8804 144.285 51.8724 140.805H47.2609L49.0257 134.913ZM54.7426 131.812C71.4846 131.812 91.5702 105.419 91.5702 80.753C91.5702 55.3574 76.9941 38.4785 55.4274 38.4785C33.5457 38.4785 17.913 55.782 17.913 80.843C17.913 105.495 37.987 131.81 54.7426 131.81V131.812Z" fill="#005CB9"/>
</g>
<g id="Group_2">
<path id="Vector_6" fill-rule="evenodd" clip-rule="evenodd" d="M119.573 138.506C139.941 138.506 164.123 108.3 164.123 78.3963C164.123 48.4928 146.509 27.8906 120.323 27.8906C94.1367 27.8906 75.0234 48.5906 75.0234 78.4941C75.0234 108.398 99.2061 138.506 119.573 138.506Z" fill="white"/>
<path id="Vector_7" d="M122.495 147.866C121.332 150.675 120.744 154.074 120.744 158.079C120.744 161.323 121.252 163.107 122.647 165.866L123.316 167.173C125.427 171.36 126.339 174.995 126.316 181.475L122.547 181.459C122.571 175.633 121.814 172.612 119.977 168.971L119.311 167.67C117.652 164.396 116.977 162.017 116.977 158.079C116.977 154.25 117.47 150.842 118.462 147.866L113.782 147.86L115.559 141.037C95.0936 137.48 72.6953 107.769 72.6953 78.2487C72.6953 46.782 92.8083 25 120.362 25C147.916 25 166.452 46.6783 166.452 78.145C166.452 106.698 145.497 135.514 125.606 140.605L127.478 147.868L122.495 147.866ZM119.574 137.48C139.203 137.48 162.539 106.818 162.539 78.143C162.539 48.6133 145.523 28.913 120.362 28.913C94.8451 28.913 76.6084 49.1004 76.6084 78.2487C76.6084 106.908 99.9301 137.48 119.574 137.48ZM105.021 43.6887C104.798 43.8228 104.55 43.911 104.292 43.9482C104.035 43.9853 103.772 43.9707 103.52 43.9051C103.268 43.8395 103.032 43.7243 102.825 43.5661C102.618 43.408 102.445 43.2102 102.316 42.9843C102.186 42.7584 102.103 42.5089 102.071 42.2505C102.04 41.9921 102.06 41.7299 102.13 41.4793C102.201 41.2288 102.321 40.9949 102.484 40.7914C102.646 40.5879 102.848 40.4188 103.076 40.2941C104.407 39.533 105.189 39.1007 105.536 38.9363C106.006 38.7165 106.544 38.6926 107.032 38.8696C107.519 39.0466 107.917 39.4102 108.137 39.8803C108.356 40.3505 108.38 40.8886 108.203 41.3764C108.026 41.8643 107.663 42.2618 107.193 42.4815C106.987 42.5793 106.228 42.998 105.021 43.6887ZM88.4297 71.6474C88.3721 72.1632 88.1119 72.635 87.7065 72.959C87.301 73.2829 86.7835 73.4326 86.2677 73.375C85.7519 73.3174 85.2801 73.0573 84.9561 72.6518C84.6322 72.2464 84.4825 71.7288 84.5401 71.213C85.7531 60.3583 90.3079 51.4424 98.177 44.5613C98.369 44.3837 98.5947 44.2464 98.8407 44.1575C99.0866 44.0687 99.3479 44.03 99.6091 44.0438C99.8703 44.0577 100.126 44.1237 100.361 44.2381C100.596 44.3525 100.806 44.5128 100.978 44.7097C101.151 44.9066 101.282 45.136 101.363 45.3844C101.445 45.6327 101.477 45.895 101.456 46.1557C101.435 46.4163 101.361 46.6701 101.24 46.902C101.12 47.134 100.953 47.3393 100.752 47.5059C93.6301 53.7354 89.5331 61.7513 88.4297 71.6474Z" fill="#005CB9"/>
</g>
</g>
</g>
<g id="Group 1">
<line id="Line 1" x1="595.546" y1="50.8258" x2="620.372" y2="26.0001" stroke="#6EC06E" stroke-width="6.54534" stroke-linecap="round"/>
<line id="Line 2" x1="594.329" y1="51.0719" x2="587.878" y2="40.3201" stroke="#6EC06E" stroke-width="6.54534" stroke-linecap="round"/>
</g>
<path id="sub-header_2" d="M215.282 104.702C215.181 106.09 214.667 107.183 213.74 107.981C212.818 108.778 211.601 109.177 210.088 109.177C208.434 109.177 207.131 108.622 206.18 107.511C205.235 106.394 204.762 104.864 204.762 102.92V102.132C204.762 100.891 204.981 99.798 205.418 98.8527C205.855 97.9073 206.478 97.1836 207.288 96.6814C208.103 96.1733 209.049 95.9192 210.124 95.9192C211.613 95.9192 212.812 96.318 213.722 97.1156C214.632 97.9133 215.158 99.0329 215.299 100.474H212.641C212.576 99.6414 212.342 99.0388 211.941 98.6666C211.545 98.2884 210.939 98.0994 210.124 98.0994C209.238 98.0994 208.573 98.4184 208.13 99.0565C207.693 99.6887 207.468 100.672 207.456 102.008V102.982C207.456 104.377 207.666 105.396 208.086 106.04C208.511 106.684 209.179 107.006 210.088 107.006C210.91 107.006 211.521 106.82 211.923 106.448C212.331 106.07 212.564 105.488 212.623 104.702H215.282ZM222.247 101.813C221.899 101.765 221.592 101.742 221.326 101.742C220.357 101.742 219.722 102.07 219.42 102.725V109H216.859V99.411H219.279L219.35 100.554C219.864 99.6739 220.575 99.2337 221.485 99.2337C221.769 99.2337 222.035 99.2721 222.283 99.349L222.247 101.813ZM227.724 109.177C226.318 109.177 225.172 108.746 224.286 107.883C223.405 107.021 222.965 105.872 222.965 104.436V104.188C222.965 103.225 223.151 102.365 223.524 101.609C223.896 100.847 224.422 100.262 225.101 99.8541C225.786 99.4405 226.566 99.2337 227.441 99.2337C228.752 99.2337 229.783 99.6473 230.534 100.474C231.29 101.302 231.668 102.474 231.668 103.993V105.039H225.562C225.645 105.665 225.893 106.167 226.306 106.545C226.726 106.923 227.255 107.112 227.893 107.112C228.879 107.112 229.65 106.755 230.206 106.04L231.464 107.449C231.08 107.993 230.56 108.418 229.905 108.725C229.249 109.027 228.522 109.177 227.724 109.177ZM227.432 101.308C226.924 101.308 226.51 101.479 226.191 101.822C225.878 102.164 225.677 102.655 225.589 103.293H229.151V103.089C229.139 102.522 228.986 102.084 228.69 101.777C228.395 101.464 227.975 101.308 227.432 101.308ZM238.687 109C238.569 108.77 238.483 108.483 238.43 108.14C237.81 108.832 237.003 109.177 236.011 109.177C235.071 109.177 234.291 108.905 233.671 108.362C233.057 107.818 232.749 107.133 232.749 106.306C232.749 105.29 233.124 104.51 233.875 103.966C234.631 103.423 235.721 103.148 237.145 103.142H238.324V102.593C238.324 102.149 238.208 101.795 237.978 101.529C237.754 101.263 237.396 101.13 236.906 101.13C236.474 101.13 236.135 101.234 235.887 101.44C235.644 101.647 235.523 101.931 235.523 102.291H232.962C232.962 101.736 233.133 101.222 233.476 100.749C233.819 100.277 234.303 99.9073 234.929 99.6414C235.556 99.3696 236.259 99.2337 237.039 99.2337C238.22 99.2337 239.157 99.5321 239.848 100.129C240.545 100.72 240.894 101.553 240.894 102.628V106.784C240.9 107.694 241.027 108.383 241.275 108.849V109H238.687ZM236.569 107.219C236.947 107.219 237.296 107.136 237.615 106.971C237.934 106.799 238.17 106.572 238.324 106.288V104.64H237.367C236.084 104.64 235.402 105.083 235.319 105.969L235.311 106.12C235.311 106.439 235.423 106.702 235.647 106.908C235.872 107.115 236.179 107.219 236.569 107.219ZM245.928 97.0536V99.411H247.567V101.29H245.928V106.075C245.928 106.43 245.996 106.684 246.131 106.838C246.267 106.991 246.527 107.068 246.911 107.068C247.195 107.068 247.446 107.047 247.665 107.006V108.947C247.162 109.1 246.645 109.177 246.114 109.177C244.318 109.177 243.402 108.27 243.366 106.457V101.29H241.966V99.411H243.366V97.0536H245.928ZM253.407 109.177C252.001 109.177 250.855 108.746 249.969 107.883C249.088 107.021 248.648 105.872 248.648 104.436V104.188C248.648 103.225 248.834 102.365 249.207 101.609C249.579 100.847 250.105 100.262 250.784 99.8541C251.469 99.4405 252.249 99.2337 253.124 99.2337C254.435 99.2337 255.466 99.6473 256.217 100.474C256.973 101.302 257.351 102.474 257.351 103.993V105.039H251.245C251.328 105.665 251.576 106.167 251.989 106.545C252.409 106.923 252.938 107.112 253.576 107.112C254.562 107.112 255.333 106.755 255.889 106.04L257.147 107.449C256.763 107.993 256.243 108.418 255.587 108.725C254.932 109.027 254.205 109.177 253.407 109.177ZM253.115 101.308C252.607 101.308 252.193 101.479 251.874 101.822C251.561 102.164 251.36 102.655 251.272 103.293H254.834V103.089C254.822 102.522 254.669 102.084 254.373 101.777C254.078 101.464 253.658 101.308 253.115 101.308ZM273.994 109H271.336L266.16 100.51V109H263.502V96.0965H266.16L271.345 104.604V96.0965H273.994V109ZM280.561 109.177C279.155 109.177 278.009 108.746 277.123 107.883C276.243 107.021 275.802 105.872 275.802 104.436V104.188C275.802 103.225 275.989 102.365 276.361 101.609C276.733 100.847 277.259 100.262 277.938 99.8541C278.624 99.4405 279.403 99.2337 280.278 99.2337C281.589 99.2337 282.62 99.6473 283.371 100.474C284.127 101.302 284.505 102.474 284.505 103.993V105.039H278.399C278.482 105.665 278.73 106.167 279.143 106.545C279.563 106.923 280.092 107.112 280.73 107.112C281.717 107.112 282.488 106.755 283.043 106.04L284.301 107.449C283.917 107.993 283.397 108.418 282.742 108.725C282.086 109.027 281.359 109.177 280.561 109.177ZM280.269 101.308C279.761 101.308 279.347 101.479 279.028 101.822C278.715 102.164 278.514 102.655 278.426 103.293H281.988V103.089C281.976 102.522 281.823 102.084 281.527 101.777C281.232 101.464 280.813 101.308 280.269 101.308ZM294.307 105.517L295.565 99.411H298.038L295.592 109H293.447L291.63 102.965L289.814 109H287.678L285.232 99.411H287.704L288.954 105.508L290.709 99.411H292.561L294.307 105.517ZM306.661 104.454V109H304.002V96.0965H309.036C310.005 96.0965 310.856 96.2737 311.588 96.6282C312.327 96.9827 312.894 97.4879 313.29 98.1437C313.686 98.7936 313.884 99.5351 313.884 100.368C313.884 101.632 313.449 102.631 312.581 103.364C311.718 104.09 310.522 104.454 308.992 104.454H306.661ZM306.661 102.3H309.036C309.739 102.3 310.274 102.135 310.64 101.804C311.012 101.473 311.198 101 311.198 100.386C311.198 99.7537 311.012 99.2426 310.64 98.8527C310.268 98.4627 309.754 98.2618 309.098 98.25H306.661V102.3ZM325.431 98.25H321.479V109H318.82V98.25H314.921V96.0965H325.431V98.25ZM337.307 102.841C337.307 104.111 337.082 105.225 336.633 106.182C336.184 107.139 335.54 107.877 334.701 108.397C333.868 108.917 332.911 109.177 331.83 109.177C330.76 109.177 329.806 108.92 328.967 108.406C328.128 107.892 327.478 107.16 327.018 106.208C326.557 105.251 326.323 104.152 326.318 102.912V102.274C326.318 101.003 326.545 99.8866 327 98.9236C327.461 97.9546 328.108 97.2131 328.941 96.6991C329.78 96.1792 330.737 95.9192 331.812 95.9192C332.887 95.9192 333.842 96.1792 334.675 96.6991C335.514 97.2131 336.161 97.9546 336.616 98.9236C337.076 99.8866 337.307 101 337.307 102.265V102.841ZM334.613 102.256C334.613 100.903 334.37 99.8748 333.886 99.1717C333.401 98.4686 332.71 98.1171 331.812 98.1171C330.92 98.1171 330.232 98.4657 329.747 99.1628C329.263 99.8541 329.018 100.87 329.012 102.211V102.841C329.012 104.158 329.254 105.18 329.738 105.907C330.223 106.634 330.92 106.997 331.83 106.997C332.722 106.997 333.407 106.649 333.886 105.951C334.364 105.248 334.607 104.226 334.613 102.885V102.256ZM348.535 104.276H346.417V109H343.759V96.0965H348.553C350.077 96.0965 351.253 96.4362 352.08 97.1156C352.907 97.7951 353.321 98.7552 353.321 99.9959C353.321 100.876 353.129 101.612 352.745 102.203C352.367 102.788 351.791 103.254 351.017 103.603L353.808 108.876V109H350.955L348.535 104.276ZM346.417 102.123H348.562C349.23 102.123 349.747 101.954 350.113 101.618C350.479 101.275 350.662 100.805 350.662 100.209C350.662 99.6 350.488 99.1215 350.139 98.7729C349.797 98.4243 349.268 98.25 348.553 98.25H346.417V102.123ZM359.595 109.177C358.189 109.177 357.043 108.746 356.157 107.883C355.277 107.021 354.836 105.872 354.836 104.436V104.188C354.836 103.225 355.023 102.365 355.395 101.609C355.767 100.847 356.293 100.262 356.972 99.8541C357.658 99.4405 358.437 99.2337 359.312 99.2337C360.624 99.2337 361.654 99.6473 362.405 100.474C363.161 101.302 363.539 102.474 363.539 103.993V105.039H357.433C357.516 105.665 357.764 106.167 358.178 106.545C358.597 106.923 359.126 107.112 359.764 107.112C360.751 107.112 361.522 106.755 362.077 106.04L363.335 107.449C362.951 107.993 362.431 108.418 361.776 108.725C361.12 109.027 360.393 109.177 359.595 109.177ZM359.303 101.308C358.795 101.308 358.381 101.479 358.062 101.822C357.749 102.164 357.548 102.655 357.46 103.293H361.022V103.089C361.01 102.522 360.857 102.084 360.561 101.777C360.266 101.464 359.847 101.308 359.303 101.308ZM364.603 104.117C364.603 102.61 364.937 101.42 365.604 100.545C366.278 99.6709 367.199 99.2337 368.369 99.2337C369.397 99.2337 370.215 99.6266 370.824 100.412L370.992 99.411H373.243V112.687H370.673V108.176C370.083 108.843 369.309 109.177 368.351 109.177C367.211 109.177 366.301 108.734 365.622 107.848C364.942 106.962 364.603 105.718 364.603 104.117ZM367.164 104.303C367.164 105.219 367.323 105.916 367.642 106.394C367.967 106.873 368.422 107.112 369.007 107.112C369.793 107.112 370.348 106.799 370.673 106.173V102.211C370.354 101.609 369.805 101.308 369.025 101.308C368.434 101.308 367.976 101.547 367.651 102.025C367.326 102.504 367.164 103.263 367.164 104.303ZM381.007 108.025C380.375 108.793 379.5 109.177 378.384 109.177C377.356 109.177 376.57 108.882 376.026 108.291C375.489 107.7 375.214 106.835 375.202 105.694V99.411H377.763V105.606C377.763 106.604 378.218 107.103 379.128 107.103C379.997 107.103 380.593 106.802 380.918 106.2V99.411H383.488V109H381.078L381.007 108.025ZM389.834 109.177C388.428 109.177 387.281 108.746 386.395 107.883C385.515 107.021 385.075 105.872 385.075 104.436V104.188C385.075 103.225 385.261 102.365 385.633 101.609C386.005 100.847 386.531 100.262 387.21 99.8541C387.896 99.4405 388.676 99.2337 389.55 99.2337C390.862 99.2337 391.893 99.6473 392.643 100.474C393.399 101.302 393.777 102.474 393.777 103.993V105.039H387.671C387.754 105.665 388.002 106.167 388.416 106.545C388.835 106.923 389.364 107.112 390.002 107.112C390.989 107.112 391.76 106.755 392.315 106.04L393.574 107.449C393.19 107.993 392.67 108.418 392.014 108.725C391.358 109.027 390.631 109.177 389.834 109.177ZM389.541 101.308C389.033 101.308 388.62 101.479 388.3 101.822C387.987 102.164 387.786 102.655 387.698 103.293H391.26V103.089C391.249 102.522 391.095 102.084 390.8 101.777C390.504 101.464 390.085 101.308 389.541 101.308ZM400.433 106.35C400.433 106.037 400.276 105.792 399.963 105.615C399.656 105.431 399.16 105.269 398.474 105.127C396.194 104.649 395.054 103.68 395.054 102.22C395.054 101.37 395.405 100.661 396.108 100.093C396.817 99.5203 397.742 99.2337 398.882 99.2337C400.099 99.2337 401.071 99.5203 401.798 100.093C402.53 100.666 402.897 101.411 402.897 102.327H400.335C400.335 101.96 400.217 101.659 399.981 101.423C399.745 101.18 399.375 101.059 398.873 101.059C398.442 101.059 398.108 101.157 397.872 101.352C397.635 101.547 397.517 101.795 397.517 102.096C397.517 102.38 397.65 102.61 397.916 102.788C398.188 102.959 398.643 103.11 399.281 103.24C399.919 103.364 400.457 103.505 400.894 103.665C402.247 104.161 402.923 105.021 402.923 106.244C402.923 107.118 402.548 107.827 401.798 108.371C401.047 108.908 400.078 109.177 398.891 109.177C398.087 109.177 397.373 109.035 396.746 108.752C396.126 108.462 395.638 108.069 395.284 107.573C394.929 107.071 394.752 106.53 394.752 105.951H397.181C397.204 106.406 397.373 106.755 397.686 106.997C397.999 107.239 398.418 107.36 398.944 107.36C399.434 107.36 399.804 107.269 400.052 107.086C400.306 106.897 400.433 106.651 400.433 106.35ZM407.647 97.0536V99.411H409.286V101.29H407.647V106.075C407.647 106.43 407.715 106.684 407.851 106.838C407.987 106.991 408.247 107.068 408.631 107.068C408.914 107.068 409.165 107.047 409.384 107.006V108.947C408.882 109.1 408.365 109.177 407.833 109.177C406.037 109.177 405.121 108.27 405.086 106.457V101.29H403.685V99.411H405.086V97.0536H407.647Z" fill="#0875E1"/>
<g id="button">
<path id="View Request" d="M462.122 84.3619L464.346 76.9818H466.597L463.18 86.7949H461.071L457.667 76.9818H459.912L462.122 84.3619ZM469.455 86.7949H467.501V79.5025H469.455V86.7949ZM467.386 77.6154C467.386 77.3233 467.483 77.0829 467.676 76.8942C467.874 76.7055 468.141 76.6111 468.478 76.6111C468.81 76.6111 469.075 76.7055 469.273 76.8942C469.471 77.0829 469.57 77.3233 469.57 77.6154C469.57 77.9119 469.469 78.1546 469.266 78.3433C469.069 78.532 468.806 78.6263 468.478 78.6263C468.15 78.6263 467.885 78.532 467.683 78.3433C467.485 78.1546 467.386 77.9119 467.386 77.6154ZM474.422 86.9297C473.353 86.9297 472.481 86.6017 471.807 85.9457C471.138 85.2897 470.803 84.4158 470.803 83.3239V83.1352C470.803 82.4028 470.945 81.7491 471.228 81.174C471.511 80.5943 471.911 80.1495 472.427 79.8395C472.949 79.525 473.542 79.3677 474.207 79.3677C475.204 79.3677 475.988 79.6822 476.559 80.3113C477.134 80.9403 477.422 81.8322 477.422 82.987V83.7822H472.778C472.841 84.2585 473.029 84.6404 473.344 84.928C473.663 85.2156 474.065 85.3594 474.55 85.3594C475.301 85.3594 475.887 85.0875 476.309 84.5438L477.267 85.6155C476.974 86.0288 476.579 86.3523 476.08 86.586C475.582 86.8151 475.029 86.9297 474.422 86.9297ZM474.2 80.9448C473.814 80.9448 473.499 81.0751 473.256 81.3357C473.018 81.5963 472.865 81.9693 472.798 82.4545H475.507V82.2995C475.498 81.8682 475.382 81.5357 475.157 81.302C474.932 81.0639 474.613 80.9448 474.2 80.9448ZM484.876 84.1462L485.833 79.5025H487.713L485.853 86.7949H484.222L482.84 82.2051L481.459 86.7949H479.834L477.974 79.5025H479.855L480.805 84.1395L482.139 79.5025H483.548L484.876 84.1462ZM495.882 83.2026H494.271V86.7949H492.249V76.9818H495.895C497.054 76.9818 497.949 77.2402 498.578 77.7569C499.207 78.2736 499.521 79.0038 499.521 79.9473C499.521 80.6168 499.375 81.1762 499.083 81.6255C498.796 82.0704 498.357 82.4253 497.769 82.6904L499.892 86.7006V86.7949H497.722L495.882 83.2026ZM494.271 81.5649H495.902C496.41 81.5649 496.803 81.4368 497.081 81.1807C497.36 80.9201 497.499 80.5629 497.499 80.1091C497.499 79.6463 497.367 79.2823 497.102 79.0172C496.841 78.7521 496.439 78.6196 495.895 78.6196H494.271V81.5649ZM504.293 86.9297C503.224 86.9297 502.352 86.6017 501.678 85.9457C501.008 85.2897 500.674 84.4158 500.674 83.3239V83.1352C500.674 82.4028 500.815 81.7491 501.098 81.174C501.381 80.5943 501.781 80.1495 502.298 79.8395C502.819 79.525 503.412 79.3677 504.077 79.3677C505.075 79.3677 505.859 79.6822 506.429 80.3113C507.005 80.9403 507.292 81.8322 507.292 82.987V83.7822H502.648C502.711 84.2585 502.9 84.6404 503.215 84.928C503.534 85.2156 503.936 85.3594 504.421 85.3594C505.171 85.3594 505.758 85.0875 506.18 84.5438L507.137 85.6155C506.845 86.0288 506.45 86.3523 505.951 86.586C505.452 86.8151 504.9 86.9297 504.293 86.9297ZM504.071 80.9448C503.684 80.9448 503.37 81.0751 503.127 81.3357C502.889 81.5963 502.736 81.9693 502.669 82.4545H505.378V82.2995C505.369 81.8682 505.252 81.5357 505.028 81.302C504.803 81.0639 504.484 80.9448 504.071 80.9448ZM508.101 83.0813C508.101 81.9356 508.355 81.0302 508.863 80.3652C509.375 79.7002 510.076 79.3677 510.965 79.3677C511.747 79.3677 512.369 79.6665 512.832 80.2641L512.96 79.5025H514.672V89.5987H512.718V86.1681C512.268 86.6759 511.68 86.9297 510.952 86.9297C510.085 86.9297 509.393 86.5927 508.876 85.9188C508.359 85.2448 508.101 84.299 508.101 83.0813ZM510.049 83.2228C510.049 83.9193 510.17 84.4495 510.413 84.8134C510.66 85.1774 511.006 85.3594 511.451 85.3594C512.048 85.3594 512.471 85.1212 512.718 84.6449V81.6323C512.475 81.174 512.057 80.9448 511.464 80.9448C511.015 80.9448 510.667 81.1268 510.419 81.4907C510.172 81.8547 510.049 82.4321 510.049 83.2228ZM520.576 86.0535C520.095 86.6377 519.43 86.9297 518.581 86.9297C517.799 86.9297 517.202 86.7051 516.788 86.2557C516.38 85.8064 516.171 85.1482 516.162 84.281V79.5025H518.109V84.2136C518.109 84.9729 518.455 85.3526 519.147 85.3526C519.808 85.3526 520.262 85.1235 520.509 84.6652V79.5025H522.463V86.7949H520.63L520.576 86.0535ZM527.289 86.9297C526.22 86.9297 525.348 86.6017 524.674 85.9457C524.004 85.2897 523.67 84.4158 523.67 83.3239V83.1352C523.67 82.4028 523.811 81.7491 524.094 81.174C524.377 80.5943 524.777 80.1495 525.294 79.8395C525.815 79.525 526.408 79.3677 527.073 79.3677C528.071 79.3677 528.855 79.6822 529.426 80.3113C530.001 80.9403 530.288 81.8322 530.288 82.987V83.7822H525.645C525.707 84.2585 525.896 84.6404 526.211 84.928C526.53 85.2156 526.932 85.3594 527.417 85.3594C528.167 85.3594 528.754 85.0875 529.176 84.5438L530.133 85.6155C529.841 86.0288 529.446 86.3523 528.947 86.586C528.448 86.8151 527.896 86.9297 527.289 86.9297ZM527.067 80.9448C526.68 80.9448 526.366 81.0751 526.123 81.3357C525.885 81.5963 525.732 81.9693 525.665 82.4545H528.374V82.2995C528.365 81.8682 528.248 81.5357 528.024 81.302C527.799 81.0639 527.48 80.9448 527.067 80.9448ZM535.35 84.7797C535.35 84.5416 535.231 84.3551 534.993 84.2203C534.759 84.081 534.381 83.9575 533.86 83.8496C532.126 83.4857 531.259 82.7488 531.259 81.639C531.259 80.992 531.526 80.4528 532.061 80.0215C532.6 79.5856 533.303 79.3677 534.17 79.3677C535.096 79.3677 535.835 79.5856 536.388 80.0215C536.945 80.4573 537.223 81.0234 537.223 81.7199H535.276C535.276 81.4413 535.186 81.2122 535.006 81.0324C534.826 80.8482 534.545 80.7561 534.164 80.7561C533.836 80.7561 533.582 80.8302 533.402 80.9785C533.222 81.1268 533.132 81.3155 533.132 81.5446C533.132 81.7603 533.233 81.9356 533.436 82.0704C533.642 82.2007 533.988 82.3152 534.474 82.4141C534.959 82.5084 535.368 82.6163 535.7 82.7376C536.729 83.115 537.244 83.7688 537.244 84.6989C537.244 85.3638 536.958 85.903 536.388 86.3164C535.817 86.7253 535.08 86.9297 534.177 86.9297C533.566 86.9297 533.022 86.8219 532.546 86.6062C532.074 86.386 531.704 86.0872 531.434 85.7098C531.164 85.3279 531.03 84.9168 531.03 84.4764H532.876C532.894 84.8224 533.022 85.0875 533.26 85.2717C533.499 85.456 533.818 85.5481 534.217 85.5481C534.59 85.5481 534.871 85.4784 535.06 85.3391C535.253 85.1954 535.35 85.0089 535.35 84.7797ZM540.836 77.7097V79.5025H542.083V80.9313H540.836V84.5708C540.836 84.8404 540.888 85.0336 540.991 85.1504C541.094 85.2672 541.292 85.3257 541.584 85.3257C541.8 85.3257 541.991 85.3099 542.157 85.2785V86.7545C541.775 86.8713 541.382 86.9297 540.977 86.9297C539.612 86.9297 538.915 86.24 538.888 84.8606V80.9313H537.823V79.5025H538.888V77.7097H540.836Z" fill="#333333"/>
<rect x="440.738" y="65.7381" width="117.764" height="32.114" rx="16.057" stroke="#717C86" stroke-width="1.47626"/>
</g>
</g>
<path d="M6 1H909V-1H6V1ZM914 6V176H916V6H914ZM909 181H6.00003V183H909V181ZM1 176V6H-1V176H1ZM6.00003 181C3.2386 181 1 178.761 1 176H-1C-1 179.866 2.13404 183 6.00003 183V181ZM914 176C914 178.761 911.761 181 909 181V183C912.866 183 916 179.866 916 176H914ZM909 1C911.761 1 914 3.23858 914 6H916C916 2.134 912.866 -1 909 -1V1ZM6 -1C2.13401 -1 -1 2.13401 -1 6H1C1 3.23858 3.23858 1 6 1V-1Z" fill="#F0F1F2"/>
</g>
<defs>
<filter id="filter0_d_3:146441" x="-2" y="-1" width="923" height="190" filterUnits="userSpaceOnUse" color-interpolation-filters="sRGB">
<feFlood flood-opacity="0" result="BackgroundImageFix"/>
<feColorMatrix in="SourceAlpha" type="matrix" values="0 0 0 0 0 0 0 0 0 0 0 0 0 0 0 0 0 0 127 0" result="hardAlpha"/>
<feOffset dx="2" dy="3"/>
<feGaussianBlur stdDeviation="2"/>
<feComposite in2="hardAlpha" operator="out"/>
<feColorMatrix type="matrix" values="0 0 0 0 0 0 0 0 0 0 0 0 0 0 0 0 0 0 0.2 0"/>
<feBlend mode="normal" in2="BackgroundImageFix" result="effect1_dropShadow_3:146441"/>
<feBlend mode="normal" in="SourceGraphic" in2="effect1_dropShadow_3:146441" result="shape"/>
</filter>
<clipPath id="clip0_3:146441">
<path d="M0 6C0 2.68629 2.68629 0 6 0H909C912.314 0 915 2.68629 915 6V176C915 179.314 912.314 182 909 182H6.00003C2.68632 182 0 179.314 0 176V6Z" fill="white"/>
</clipPath>
</defs>
</svg>
