<svg width="915" height="182" viewBox="0 0 915 182" fill="none" xmlns="http://www.w3.org/2000/svg">
<g id="Property 1=Default" filter="url(#filter0_d_3:146442)">
<g clip-path="url(#clip0_3:146442)">
<path d="M0 6C0 2.68629 2.68629 0 6 0H909C912.314 0 915 2.68629 915 6V176C915 179.314 912.314 182 909 182H6.00003C2.68632 182 0 179.314 0 176V6Z" fill="white"/>
<g id="content">
<path id="sub-header" d="M209.601 43.9102L212.286 38.0965H215.193L210.957 46.3207V51H208.254V46.3207L204.018 38.0965H206.933L209.601 43.9102ZM215.22 46.1169C215.22 45.1656 215.403 44.3178 215.769 43.5734C216.135 42.829 216.661 42.2529 217.347 41.8452C218.038 41.4376 218.838 41.2337 219.748 41.2337C221.042 41.2337 222.097 41.6296 222.912 42.4213C223.733 43.213 224.191 44.2883 224.286 45.6472L224.304 46.303C224.304 47.7741 223.893 48.9558 223.072 49.8479C222.25 50.7341 221.149 51.1772 219.766 51.1772C218.384 51.1772 217.279 50.7341 216.452 49.8479C215.63 48.9617 215.22 47.7564 215.22 46.2321V46.1169ZM217.781 46.303C217.781 47.2128 217.952 47.91 218.295 48.3945C218.638 48.873 219.128 49.1123 219.766 49.1123C220.386 49.1123 220.871 48.876 221.219 48.4033C221.568 47.9248 221.742 47.1626 221.742 46.1169C221.742 45.2247 221.568 44.5335 221.219 44.0431C220.871 43.5527 220.38 43.3075 219.748 43.3075C219.122 43.3075 218.638 43.5527 218.295 44.0431C217.952 44.5276 217.781 45.2809 217.781 46.303ZM231.624 50.0251C230.992 50.7932 230.117 51.1772 229.001 51.1772C227.973 51.1772 227.187 50.8818 226.643 50.291C226.106 49.7002 225.831 48.8346 225.819 47.6944V41.411H228.38V47.6057C228.38 48.6042 228.835 49.1035 229.745 49.1035C230.614 49.1035 231.21 48.8021 231.535 48.1995V41.411H234.105V51H231.695L231.624 50.0251ZM244.545 49.1123C245.018 49.1123 245.402 48.9823 245.697 48.7224C245.993 48.4624 246.146 48.1168 246.158 47.6855H248.56C248.554 48.3354 248.377 48.9321 248.028 49.4757C247.679 50.0133 247.201 50.4328 246.592 50.7341C245.99 51.0295 245.322 51.1772 244.589 51.1772C243.219 51.1772 242.137 50.743 241.346 49.8745C240.554 49.0001 240.158 47.7948 240.158 46.2587V46.0903C240.158 44.6132 240.551 43.4345 241.337 42.5542C242.123 41.6739 243.201 41.2337 244.572 41.2337C245.771 41.2337 246.731 41.5764 247.452 42.2618C248.179 42.9412 248.548 43.8481 248.56 44.9825H246.158C246.146 44.4862 245.993 44.0844 245.697 43.7772C245.402 43.4641 245.012 43.3075 244.527 43.3075C243.931 43.3075 243.479 43.5261 243.171 43.9633C242.87 44.3946 242.719 45.0977 242.719 46.0726V46.3384C242.719 47.3251 242.87 48.0341 243.171 48.4654C243.473 48.8967 243.931 49.1123 244.545 49.1123ZM255.765 50.0251C255.133 50.7932 254.258 51.1772 253.141 51.1772C252.113 51.1772 251.328 50.8818 250.784 50.291C250.246 49.7002 249.972 48.8346 249.96 47.6944V41.411H252.521V47.6057C252.521 48.6042 252.976 49.1035 253.886 49.1035C254.754 49.1035 255.351 48.8021 255.676 48.1995V41.411H258.246V51H255.836L255.765 50.0251ZM265.566 43.8127C265.218 43.7654 264.911 43.7418 264.645 43.7418C263.676 43.7418 263.041 44.0697 262.739 44.7255V51H260.178V41.411H262.598L262.668 42.5542C263.182 41.6739 263.894 41.2337 264.804 41.2337C265.088 41.2337 265.354 41.2721 265.602 41.349L265.566 43.8127ZM272.195 43.8127C271.847 43.7654 271.54 43.7418 271.274 43.7418C270.305 43.7418 269.67 44.0697 269.368 44.7255V51H266.807V41.411H269.227L269.297 42.5542C269.811 41.6739 270.523 41.2337 271.433 41.2337C271.717 41.2337 271.983 41.2721 272.231 41.349L272.195 43.8127ZM277.672 51.1772C276.266 51.1772 275.12 50.7459 274.234 49.8833C273.353 49.0208 272.913 47.8716 272.913 46.4359V46.1878C272.913 45.2247 273.099 44.3651 273.472 43.6088C273.844 42.8467 274.37 42.2618 275.049 41.8541C275.734 41.4405 276.514 41.2337 277.389 41.2337C278.7 41.2337 279.731 41.6473 280.482 42.4745C281.238 43.3016 281.616 44.4744 281.616 45.9928V47.0385H275.51C275.593 47.6648 275.841 48.167 276.254 48.5451C276.674 48.9233 277.203 49.1123 277.841 49.1123C278.827 49.1123 279.598 48.7549 280.154 48.04L281.412 49.4491C281.028 49.9927 280.508 50.418 279.852 50.7253C279.197 51.0266 278.47 51.1772 277.672 51.1772ZM277.38 43.3075C276.872 43.3075 276.458 43.4789 276.139 43.8215C275.826 44.1642 275.625 44.6546 275.537 45.2927H279.099V45.0888C279.087 44.5217 278.934 44.0844 278.638 43.7772C278.343 43.4641 277.923 43.3075 277.38 43.3075ZM285.436 41.411L285.515 42.5188C286.201 41.6621 287.12 41.2337 288.272 41.2337C289.288 41.2337 290.044 41.5321 290.54 42.1288C291.037 42.7256 291.291 43.6177 291.303 44.8052V51H288.741V44.8673C288.741 44.3237 288.623 43.9308 288.387 43.6886C288.151 43.4405 287.758 43.3164 287.208 43.3164C286.487 43.3164 285.947 43.6236 285.586 44.2381V51H283.025V41.411H285.436ZM296.319 39.0536V41.411H297.958V43.2898H296.319V48.0754C296.319 48.4299 296.387 48.684 296.522 48.8376C296.658 48.9912 296.918 49.068 297.302 49.068C297.586 49.068 297.837 49.0473 298.056 49.006V50.9468C297.553 51.1004 297.036 51.1772 296.505 51.1772C294.709 51.1772 293.793 50.2703 293.757 48.4565V43.2898H292.357V41.411H293.757V39.0536H296.319ZM302.088 51H299.518V37.3875H302.088V51ZM307.786 47.3753L309.559 41.411H312.306L308.451 52.4889L308.238 52.994C307.665 54.2466 306.72 54.8728 305.402 54.8728C305.03 54.8728 304.652 54.8167 304.268 54.7044V52.7636L304.658 52.7725C305.143 52.7725 305.503 52.6986 305.739 52.5509C305.981 52.4032 306.171 52.158 306.306 51.8153L306.608 51.0266L303.249 41.411H306.005L307.786 47.3753ZM320.335 42.4567C321.015 41.6414 321.869 41.2337 322.897 41.2337C324.976 41.2337 326.031 42.442 326.061 44.8584V51H323.499V44.9293C323.499 44.3799 323.381 43.9751 323.145 43.7152C322.908 43.4493 322.516 43.3164 321.966 43.3164C321.216 43.3164 320.672 43.6059 320.335 44.1849V51H317.774V37.3875H320.335V42.4567ZM333.549 51C333.431 50.7696 333.345 50.483 333.292 50.1404C332.672 50.8316 331.865 51.1772 330.873 51.1772C329.933 51.1772 329.153 50.9055 328.533 50.3619C327.919 49.8184 327.611 49.133 327.611 48.3059C327.611 47.2896 327.987 46.5098 328.737 45.9662C329.493 45.4227 330.583 45.1479 332.007 45.142H333.186V44.5926C333.186 44.1494 333.071 43.7949 332.84 43.5291C332.616 43.2632 332.258 43.1303 331.768 43.1303C331.337 43.1303 330.997 43.2337 330.749 43.4405C330.506 43.6472 330.385 43.9308 330.385 44.2912H327.824C327.824 43.7359 327.995 43.2219 328.338 42.7492C328.681 42.2765 329.165 41.9073 329.792 41.6414C330.418 41.3696 331.121 41.2337 331.901 41.2337C333.082 41.2337 334.019 41.5321 334.71 42.1288C335.407 42.7197 335.756 43.5527 335.756 44.628V48.7844C335.762 49.6943 335.889 50.3826 336.137 50.8493V51H333.549ZM331.431 49.2187C331.809 49.2187 332.158 49.136 332.477 48.9705C332.796 48.7992 333.032 48.5717 333.186 48.2881V46.6397H332.229C330.947 46.6397 330.264 47.0829 330.181 47.9691L330.173 48.1198C330.173 48.4388 330.285 48.7017 330.509 48.9085C330.734 49.1153 331.041 49.2187 331.431 49.2187ZM341.171 47.8716L342.952 41.411H345.628L342.394 51H339.948L336.713 41.411H339.389L341.171 47.8716ZM351.052 51.1772C349.646 51.1772 348.5 50.7459 347.614 49.8833C346.733 49.0208 346.293 47.8716 346.293 46.4359V46.1878C346.293 45.2247 346.479 44.3651 346.851 43.6088C347.224 42.8467 347.75 42.2618 348.429 41.8541C349.114 41.4405 349.894 41.2337 350.769 41.2337C352.08 41.2337 353.111 41.6473 353.862 42.4745C354.618 43.3016 354.996 44.4744 354.996 45.9928V47.0385H348.89C348.973 47.6648 349.221 48.167 349.634 48.5451C350.054 48.9233 350.583 49.1123 351.221 49.1123C352.207 49.1123 352.978 48.7549 353.534 48.04L354.792 49.4491C354.408 49.9927 353.888 50.418 353.232 50.7253C352.577 51.0266 351.85 51.1772 351.052 51.1772ZM350.76 43.3075C350.252 43.3075 349.838 43.4789 349.519 43.8215C349.206 44.1642 349.005 44.6546 348.916 45.2927H352.479V45.0888C352.467 44.5217 352.314 44.0844 352.018 43.7772C351.723 43.4641 351.303 43.3075 350.76 43.3075ZM367.093 51H364.532V41.1274L361.474 42.0757V39.993L366.818 38.0788H367.093V51ZM378.242 37.9636V40.0728H377.994C376.836 40.0905 375.902 40.3918 375.193 40.9767C374.49 41.5616 374.068 42.374 373.926 43.4139C374.611 42.7167 375.477 42.3681 376.522 42.3681C377.645 42.3681 378.537 42.7699 379.199 43.5734C379.861 44.3769 380.191 45.4345 380.191 46.7461C380.191 47.5851 380.008 48.3443 379.642 49.0237C379.282 49.7031 378.768 50.2319 378.1 50.6101C377.438 50.9882 376.688 51.1772 375.849 51.1772C374.49 51.1772 373.391 50.7046 372.552 49.7593C371.719 48.814 371.303 47.5526 371.303 45.9751V45.0534C371.303 43.6531 371.565 42.4183 372.091 41.349C372.623 40.2737 373.382 39.4436 374.369 38.8586C375.362 38.2678 376.511 37.9695 377.816 37.9636H378.242ZM375.743 44.4242C375.329 44.4242 374.954 44.5335 374.617 44.7521C374.28 44.9648 374.032 45.2484 373.873 45.6029V46.3827C373.873 47.2394 374.041 47.91 374.378 48.3945C374.715 48.873 375.187 49.1123 375.796 49.1123C376.345 49.1123 376.788 48.8967 377.125 48.4654C377.468 48.0282 377.639 47.4639 377.639 46.7727C377.639 46.0696 377.468 45.5024 377.125 45.0711C376.782 44.6398 376.322 44.4242 375.743 44.4242ZM388.841 42.4567C389.521 41.6414 390.374 41.2337 391.402 41.2337C393.482 41.2337 394.537 42.442 394.566 44.8584V51H392.005V44.9293C392.005 44.3799 391.887 43.9751 391.65 43.7152C391.414 43.4493 391.021 43.3164 390.472 43.3164C389.721 43.3164 389.178 43.6059 388.841 44.1849V51H386.28V37.3875H388.841V42.4567ZM396.099 46.1169C396.099 45.1656 396.282 44.3178 396.649 43.5734C397.015 42.829 397.541 42.2529 398.226 41.8452C398.918 41.4376 399.718 41.2337 400.628 41.2337C401.922 41.2337 402.976 41.6296 403.792 42.4213C404.613 43.213 405.071 44.2883 405.165 45.6472L405.183 46.303C405.183 47.7741 404.773 48.9558 403.951 49.8479C403.13 50.7341 402.028 51.1772 400.646 51.1772C399.263 51.1772 398.158 50.7341 397.331 49.8479C396.51 48.9617 396.099 47.7564 396.099 46.2321V46.1169ZM398.661 46.303C398.661 47.2128 398.832 47.91 399.175 48.3945C399.517 48.873 400.008 49.1123 400.646 49.1123C401.266 49.1123 401.751 48.876 402.099 48.4033C402.448 47.9248 402.622 47.1626 402.622 46.1169C402.622 45.2247 402.448 44.5335 402.099 44.0431C401.751 43.5527 401.26 43.3075 400.628 43.3075C400.002 43.3075 399.517 43.5527 399.175 44.0431C398.832 44.5276 398.661 45.2809 398.661 46.303ZM412.503 50.0251C411.871 50.7932 410.997 51.1772 409.88 51.1772C408.852 51.1772 408.066 50.8818 407.523 50.291C406.985 49.7002 406.71 48.8346 406.699 47.6944V41.411H409.26V47.6057C409.26 48.6042 409.715 49.1035 410.625 49.1035C411.493 49.1035 412.09 48.8021 412.415 48.1995V41.411H414.985V51H412.574L412.503 50.0251ZM422.305 43.8127C421.957 43.7654 421.649 43.7418 421.383 43.7418C420.415 43.7418 419.779 44.0697 419.478 44.7255V51H416.917V41.411H419.336L419.407 42.5542C419.921 41.6739 420.633 41.2337 421.543 41.2337C421.827 41.2337 422.092 41.2721 422.341 41.349L422.305 43.8127ZM428.739 48.3502C428.739 48.037 428.583 47.7918 428.269 47.6146C427.962 47.4314 427.466 47.269 426.781 47.1272C424.5 46.6486 423.36 45.6797 423.36 44.2203C423.36 43.3696 423.711 42.6606 424.414 42.0934C425.123 41.5203 426.048 41.2337 427.188 41.2337C428.405 41.2337 429.377 41.5203 430.104 42.0934C430.837 42.6665 431.203 43.4109 431.203 44.3267H428.642C428.642 43.9604 428.524 43.6591 428.287 43.4227C428.051 43.1805 427.682 43.0594 427.179 43.0594C426.748 43.0594 426.414 43.1569 426.178 43.3518C425.942 43.5468 425.823 43.7949 425.823 44.0963C425.823 44.3799 425.956 44.6103 426.222 44.7875C426.494 44.9589 426.949 45.1095 427.587 45.2395C428.225 45.3636 428.763 45.5054 429.2 45.6649C430.553 46.1612 431.229 47.0208 431.229 48.2438C431.229 49.1182 430.854 49.8272 430.104 50.3708C429.354 50.9084 428.385 51.1772 427.197 51.1772C426.394 51.1772 425.679 51.0354 425.052 50.7519C424.432 50.4624 423.945 50.0695 423.59 49.5732C423.236 49.071 423.058 48.5304 423.058 47.9514H425.487C425.51 48.4063 425.679 48.7549 425.992 48.9971C426.305 49.2394 426.724 49.3605 427.25 49.3605C427.741 49.3605 428.11 49.2689 428.358 49.0857C428.612 48.8967 428.739 48.6515 428.739 48.3502ZM437.008 46.1169C437.008 45.1656 437.191 44.3178 437.557 43.5734C437.923 42.829 438.449 42.2529 439.135 41.8452C439.826 41.4376 440.626 41.2337 441.536 41.2337C442.83 41.2337 443.885 41.6296 444.7 42.4213C445.521 43.213 445.979 44.2883 446.074 45.6472L446.092 46.303C446.092 47.7741 445.681 48.9558 444.86 49.8479C444.038 50.7341 442.937 51.1772 441.554 51.1772C440.172 51.1772 439.067 50.7341 438.24 49.8479C437.418 48.9617 437.008 47.7564 437.008 46.2321V46.1169ZM439.569 46.303C439.569 47.2128 439.74 47.91 440.083 48.3945C440.426 48.873 440.916 49.1123 441.554 49.1123C442.174 49.1123 442.659 48.876 443.007 48.4033C443.356 47.9248 443.53 47.1626 443.53 46.1169C443.53 45.2247 443.356 44.5335 443.007 44.0431C442.659 43.5527 442.169 43.3075 441.536 43.3075C440.91 43.3075 440.426 43.5527 440.083 44.0431C439.74 44.5276 439.569 45.2809 439.569 46.303ZM448.369 51V43.2898H446.942V41.411H448.369V40.5957C448.369 39.5204 448.676 38.6873 449.291 38.0965C449.911 37.4998 450.777 37.2014 451.888 37.2014C452.242 37.2014 452.676 37.2605 453.19 37.3786L453.164 39.3638C452.951 39.3106 452.691 39.284 452.384 39.284C451.421 39.284 450.939 39.736 450.939 40.64V41.411H452.845V43.2898H450.939V51H448.369ZM461.521 46.4536V51H458.862V38.0965H463.896C464.865 38.0965 465.716 38.2737 466.448 38.6282C467.187 38.9827 467.754 39.4879 468.15 40.1437C468.546 40.7936 468.744 41.5351 468.744 42.3681C468.744 43.6325 468.309 44.631 467.441 45.3636C466.578 46.0903 465.382 46.4536 463.852 46.4536H461.521ZM461.521 44.3001H463.896C464.599 44.3001 465.134 44.1347 465.5 43.8038C465.872 43.4729 466.058 43.0003 466.058 42.3858C466.058 41.7537 465.872 41.2426 465.5 40.8527C465.128 40.4627 464.614 40.2618 463.958 40.25H461.521V44.3001ZM480.291 40.25H476.339V51H473.68V40.25H469.781V38.0965H480.291V40.25ZM492.167 44.8407C492.167 46.111 491.942 47.2247 491.493 48.1818C491.044 49.1389 490.4 49.8774 489.561 50.3974C488.728 50.9173 487.771 51.1772 486.69 51.1772C485.62 51.1772 484.666 50.9202 483.827 50.4062C482.988 49.8922 482.338 49.1596 481.878 48.2084C481.417 47.2512 481.183 46.1523 481.177 44.9116V44.2735C481.177 43.0032 481.405 41.8866 481.86 40.9236C482.321 39.9546 482.968 39.2131 483.801 38.6991C484.64 38.1792 485.597 37.9192 486.672 37.9192C487.747 37.9192 488.702 38.1792 489.535 38.6991C490.374 39.2131 491.021 39.9546 491.475 40.9236C491.936 41.8866 492.167 43.0003 492.167 44.2646V44.8407ZM489.473 44.2558C489.473 42.9028 489.23 41.8748 488.746 41.1717C488.261 40.4686 487.57 40.1171 486.672 40.1171C485.78 40.1171 485.092 40.4657 484.607 41.1628C484.123 41.8541 483.877 42.8703 483.872 44.2115V44.8407C483.872 46.1582 484.114 47.1803 484.598 47.9071C485.083 48.6338 485.78 48.9971 486.69 48.9971C487.582 48.9971 488.267 48.6485 488.746 47.9514C489.224 47.2483 489.467 46.2262 489.473 44.885V44.2558ZM504.007 51C503.889 50.7696 503.803 50.483 503.75 50.1404C503.129 50.8316 502.323 51.1772 501.33 51.1772C500.391 51.1772 499.611 50.9055 498.991 50.3619C498.376 49.8184 498.069 49.133 498.069 48.3059C498.069 47.2896 498.444 46.5098 499.194 45.9662C499.951 45.4227 501.041 45.1479 502.465 45.142H503.643V44.5926C503.643 44.1494 503.528 43.7949 503.298 43.5291C503.073 43.2632 502.716 43.1303 502.225 43.1303C501.794 43.1303 501.454 43.2337 501.206 43.4405C500.964 43.6472 500.843 43.9308 500.843 44.2912H498.282C498.282 43.7359 498.453 43.2219 498.796 42.7492C499.138 42.2765 499.623 41.9073 500.249 41.6414C500.875 41.3696 501.578 41.2337 502.358 41.2337C503.54 41.2337 504.476 41.5321 505.168 42.1288C505.865 42.7197 506.213 43.5527 506.213 44.628V48.7844C506.219 49.6943 506.346 50.3826 506.595 50.8493V51H504.007ZM501.889 49.2187C502.267 49.2187 502.615 49.136 502.934 48.9705C503.253 48.7992 503.49 48.5717 503.643 48.2881V46.6397H502.686C501.404 46.6397 500.722 47.0829 500.639 47.9691L500.63 48.1198C500.63 48.4388 500.742 48.7017 500.967 48.9085C501.191 49.1153 501.499 49.2187 501.889 49.2187ZM511.628 47.8716L513.41 41.411H516.086L512.851 51H510.405L507.171 41.411H509.847L511.628 47.8716ZM522.635 51C522.517 50.7696 522.431 50.483 522.378 50.1404C521.758 50.8316 520.951 51.1772 519.959 51.1772C519.019 51.1772 518.24 50.9055 517.619 50.3619C517.005 49.8184 516.698 49.133 516.698 48.3059C516.698 47.2896 517.073 46.5098 517.823 45.9662C518.579 45.4227 519.669 45.1479 521.093 45.142H522.272V44.5926C522.272 44.1494 522.157 43.7949 521.926 43.5291C521.702 43.2632 521.344 43.1303 520.854 43.1303C520.423 43.1303 520.083 43.2337 519.835 43.4405C519.593 43.6472 519.471 43.9308 519.471 44.2912H516.91C516.91 43.7359 517.082 43.2219 517.424 42.7492C517.767 42.2765 518.251 41.9073 518.878 41.6414C519.504 41.3696 520.207 41.2337 520.987 41.2337C522.169 41.2337 523.105 41.5321 523.796 42.1288C524.493 42.7197 524.842 43.5527 524.842 44.628V48.7844C524.848 49.6943 524.975 50.3826 525.223 50.8493V51H522.635ZM520.517 49.2187C520.895 49.2187 521.244 49.136 521.563 48.9705C521.882 48.7992 522.118 48.5717 522.272 48.2881V46.6397H521.315C520.033 46.6397 519.35 47.0829 519.268 47.9691L519.259 48.1198C519.259 48.4388 519.371 48.7017 519.596 48.9085C519.82 49.1153 520.127 49.2187 520.517 49.2187ZM529.512 51H526.942V37.3875H529.512V51ZM534.334 51H531.763V41.411H534.334V51ZM531.613 38.9295C531.613 38.5455 531.74 38.2294 531.994 37.9813C532.254 37.7331 532.605 37.6091 533.049 37.6091C533.486 37.6091 533.834 37.7331 534.094 37.9813C534.354 38.2294 534.484 38.5455 534.484 38.9295C534.484 39.3195 534.351 39.6385 534.085 39.8867C533.825 40.1348 533.48 40.2589 533.049 40.2589C532.617 40.2589 532.269 40.1348 532.003 39.8867C531.743 39.6385 531.613 39.3195 531.613 38.9295ZM542.008 51C541.89 50.7696 541.804 50.483 541.751 50.1404C541.131 50.8316 540.324 51.1772 539.332 51.1772C538.392 51.1772 537.613 50.9055 536.992 50.3619C536.378 49.8184 536.071 49.133 536.071 48.3059C536.071 47.2896 536.446 46.5098 537.196 45.9662C537.952 45.4227 539.042 45.1479 540.466 45.142H541.645V44.5926C541.645 44.1494 541.53 43.7949 541.299 43.5291C541.075 43.2632 540.717 43.1303 540.227 43.1303C539.796 43.1303 539.456 43.2337 539.208 43.4405C538.966 43.6472 538.844 43.9308 538.844 44.2912H536.283C536.283 43.7359 536.455 43.2219 536.797 42.7492C537.14 42.2765 537.624 41.9073 538.251 41.6414C538.877 41.3696 539.58 41.2337 540.36 41.2337C541.542 41.2337 542.478 41.5321 543.169 42.1288C543.866 42.7197 544.215 43.5527 544.215 44.628V48.7844C544.221 49.6943 544.348 50.3826 544.596 50.8493V51H542.008ZM539.89 49.2187C540.268 49.2187 540.617 49.136 540.936 48.9705C541.255 48.7992 541.491 48.5717 541.645 48.2881V46.6397H540.688C539.406 46.6397 538.723 47.0829 538.641 47.9691L538.632 48.1198C538.632 48.4388 538.744 48.7017 538.969 48.9085C539.193 49.1153 539.5 49.2187 539.89 49.2187ZM554.823 46.2941C554.823 47.8302 554.495 49.0296 553.839 49.8922C553.184 50.7489 552.268 51.1772 551.092 51.1772C550.052 51.1772 549.222 50.7784 548.602 49.9808L548.487 51H546.182V37.3875H548.744V42.2706C549.334 41.5794 550.111 41.2337 551.074 41.2337C552.244 41.2337 553.16 41.665 553.822 42.5276C554.489 43.3843 554.823 44.5926 554.823 46.1523V46.2941ZM552.262 46.108C552.262 45.1391 552.108 44.433 551.801 43.9899C551.494 43.5409 551.036 43.3164 550.427 43.3164C549.612 43.3164 549.051 43.6502 548.744 44.3178V48.102C549.057 48.7756 549.624 49.1123 550.445 49.1123C551.272 49.1123 551.816 48.7047 552.076 47.8893C552.2 47.4994 552.262 46.9056 552.262 46.108ZM559.113 51H556.542V37.3875H559.113V51ZM565.644 51.1772C564.238 51.1772 563.092 50.7459 562.205 49.8833C561.325 49.0208 560.885 47.8716 560.885 46.4359V46.1878C560.885 45.2247 561.071 44.3651 561.443 43.6088C561.816 42.8467 562.341 42.2618 563.021 41.8541C563.706 41.4405 564.486 41.2337 565.36 41.2337C566.672 41.2337 567.703 41.6473 568.453 42.4745C569.21 43.3016 569.588 44.4744 569.588 45.9928V47.0385H563.482C563.564 47.6648 563.813 48.167 564.226 48.5451C564.646 48.9233 565.174 49.1123 565.812 49.1123C566.799 49.1123 567.57 48.7549 568.126 48.04L569.384 49.4491C569 49.9927 568.48 50.418 567.824 50.7253C567.168 51.0266 566.442 51.1772 565.644 51.1772ZM565.352 43.3075C564.843 43.3075 564.43 43.4789 564.111 43.8215C563.798 44.1642 563.597 44.6546 563.508 45.2927H567.071V45.0888C567.059 44.5217 566.905 44.0844 566.61 43.7772C566.315 43.4641 565.895 43.3075 565.352 43.3075Z" fill="#494949"/>
<g id="Frame 10">
<path id="header" d="M210.908 79.4967H208.44V85H205.342V69.9666H210.928C212.704 69.9666 214.074 70.3624 215.038 71.154C216.001 71.9456 216.483 73.0642 216.483 74.5097C216.483 75.5353 216.259 76.3923 215.812 77.0806C215.371 77.7621 214.7 78.3059 213.799 78.712L217.051 84.8554V85H213.726L210.908 79.4967ZM208.44 76.9877H210.938C211.716 76.9877 212.319 76.7915 212.745 76.3992C213.172 75.9999 213.386 75.4527 213.386 74.7575C213.386 74.0485 213.182 73.4909 212.776 73.0848C212.377 72.6787 211.761 72.4756 210.928 72.4756H208.44V76.9877ZM223.793 85.2065C222.155 85.2065 220.82 84.704 219.787 83.699C218.761 82.6941 218.249 81.3552 218.249 79.6826V79.3935C218.249 78.2715 218.465 77.2699 218.899 76.3889C219.333 75.5009 219.945 74.8194 220.737 74.3445C221.535 73.8626 222.444 73.6217 223.463 73.6217C224.991 73.6217 226.192 74.1036 227.066 75.0672C227.947 76.0309 228.388 77.3973 228.388 79.1663V80.3847H221.274C221.37 81.1143 221.659 81.6994 222.141 82.1399C222.63 82.5805 223.246 82.8008 223.989 82.8008C225.139 82.8008 226.037 82.3843 226.684 81.5514L228.15 83.1931C227.703 83.8264 227.097 84.322 226.333 84.6799C225.569 85.031 224.723 85.2065 223.793 85.2065ZM223.453 76.0378C222.861 76.0378 222.379 76.2374 222.007 76.6367C221.642 77.0359 221.408 77.6072 221.305 78.3506H225.456V78.1131C225.442 77.4523 225.263 76.943 224.919 76.585C224.575 76.2202 224.086 76.0378 223.453 76.0378ZM229.627 79.3109C229.627 77.5556 230.016 76.1686 230.794 75.1498C231.578 74.1311 232.652 73.6217 234.015 73.6217C235.213 73.6217 236.166 74.0795 236.875 74.995L237.071 73.8282H239.694V89.2952H236.7V84.0398C236.011 84.8176 235.11 85.2065 233.994 85.2065C232.666 85.2065 231.606 84.6902 230.814 83.6577C230.023 82.6252 229.627 81.1763 229.627 79.3109ZM232.611 79.5277C232.611 80.5946 232.797 81.4069 233.168 81.9644C233.547 82.522 234.077 82.8008 234.759 82.8008C235.674 82.8008 236.321 82.4359 236.7 81.7063V77.091C236.328 76.3889 235.688 76.0378 234.779 76.0378C234.091 76.0378 233.557 76.3166 233.179 76.8741C232.8 77.4317 232.611 78.3162 232.611 79.5277ZM248.739 83.8642C248.002 84.7591 246.983 85.2065 245.682 85.2065C244.485 85.2065 243.569 84.8623 242.936 84.174C242.31 83.4857 241.99 82.4772 241.976 81.1487V73.8282H244.96V81.0455C244.96 82.2088 245.49 82.7904 246.55 82.7904C247.562 82.7904 248.257 82.4394 248.635 81.7373V73.8282H251.63V85H248.821L248.739 83.8642ZM259.023 85.2065C257.384 85.2065 256.049 84.704 255.016 83.699C253.991 82.6941 253.478 81.3552 253.478 79.6826V79.3935C253.478 78.2715 253.695 77.2699 254.128 76.3889C254.562 75.5009 255.175 74.8194 255.966 74.3445C256.765 73.8626 257.673 73.6217 258.692 73.6217C260.22 73.6217 261.421 74.1036 262.296 75.0672C263.177 76.0309 263.617 77.3973 263.617 79.1663V80.3847H256.503C256.6 81.1143 256.889 81.6994 257.371 82.1399C257.859 82.5805 258.475 82.8008 259.219 82.8008C260.368 82.8008 261.267 82.3843 261.914 81.5514L263.38 83.1931C262.932 83.8264 262.327 84.322 261.563 84.6799C260.798 85.031 259.952 85.2065 259.023 85.2065ZM258.682 76.0378C258.09 76.0378 257.608 76.2374 257.236 76.6367C256.871 77.0359 256.637 77.6072 256.534 78.3506H260.685V78.1131C260.671 77.4523 260.492 76.943 260.148 76.585C259.804 76.2202 259.315 76.0378 258.682 76.0378ZM271.371 81.9128C271.371 81.548 271.189 81.2623 270.824 81.0558C270.466 80.8424 269.888 80.6531 269.09 80.4879C266.433 79.9304 265.104 78.8015 265.104 77.1013C265.104 76.1101 265.514 75.2841 266.333 74.6233C267.159 73.9556 268.236 73.6217 269.564 73.6217C270.982 73.6217 272.115 73.9556 272.961 74.6233C273.815 75.291 274.242 76.1583 274.242 77.2252H271.258C271.258 76.7984 271.12 76.4474 270.845 76.172C270.569 75.8898 270.139 75.7487 269.554 75.7487C269.052 75.7487 268.663 75.8623 268.387 76.0894C268.112 76.3166 267.974 76.6057 267.974 76.9567C267.974 77.2871 268.129 77.5556 268.439 77.7621C268.756 77.9617 269.286 78.1372 270.029 78.2887C270.773 78.4332 271.399 78.5984 271.908 78.7843C273.485 79.3625 274.273 80.364 274.273 81.7889C274.273 82.8076 273.836 83.6336 272.961 84.2669C272.087 84.8933 270.958 85.2065 269.575 85.2065C268.639 85.2065 267.806 85.0413 267.076 84.7109C266.353 84.3736 265.785 83.9159 265.372 83.3377C264.959 82.7526 264.753 82.1227 264.753 81.4482H267.582C267.61 81.9782 267.806 82.3843 268.171 82.6665C268.535 82.9487 269.024 83.0899 269.637 83.0899C270.208 83.0899 270.638 82.9832 270.927 82.7698C271.223 82.5495 271.371 82.2638 271.371 81.9128ZM279.776 71.0817V73.8282H281.686V76.0172H279.776V81.5927C279.776 82.0057 279.855 82.3017 280.013 82.4807C280.172 82.6596 280.475 82.7491 280.922 82.7491C281.252 82.7491 281.545 82.725 281.8 82.6768V84.938C281.215 85.117 280.612 85.2065 279.993 85.2065C277.9 85.2065 276.833 84.1499 276.792 82.0367V76.0172H275.161V73.8282H276.792V71.0817H279.776ZM291.908 79.7032V85H288.81V69.9666H294.675C295.804 69.9666 296.795 70.1731 297.649 70.5861C298.509 70.9991 299.17 71.5877 299.631 72.3517C300.092 73.1089 300.323 73.9728 300.323 74.9433C300.323 76.4164 299.817 77.5797 298.805 78.4332C297.8 79.2799 296.406 79.7032 294.624 79.7032H291.908ZM291.908 77.1942H294.675C295.494 77.1942 296.117 77.0015 296.544 76.616C296.978 76.2305 297.194 75.6799 297.194 74.964C297.194 74.2275 296.978 73.6321 296.544 73.1777C296.11 72.7234 295.511 72.4894 294.747 72.4756H291.908V77.1942ZM308.614 85C308.476 84.7315 308.377 84.3977 308.315 83.9985C307.592 84.8038 306.652 85.2065 305.496 85.2065C304.401 85.2065 303.493 84.8899 302.77 84.2566C302.054 83.6233 301.696 82.8248 301.696 81.8612C301.696 80.6772 302.133 79.7686 303.008 79.1353C303.889 78.5021 305.159 78.182 306.817 78.1751H308.191V77.5349C308.191 77.0187 308.056 76.6057 307.788 76.2959C307.526 75.9862 307.11 75.8313 306.539 75.8313C306.036 75.8313 305.64 75.9518 305.351 76.1927C305.069 76.4336 304.928 76.764 304.928 77.1839H301.944C301.944 76.5368 302.144 75.938 302.543 75.3873C302.942 74.8366 303.507 74.4064 304.236 74.0967C304.966 73.78 305.785 73.6217 306.694 73.6217C308.07 73.6217 309.161 73.9693 309.967 74.6646C310.779 75.3529 311.185 76.3235 311.185 77.5762V82.4187C311.192 83.4788 311.34 84.2807 311.629 84.8245V85H308.614ZM306.146 82.9247C306.587 82.9247 306.993 82.8283 307.365 82.6355C307.736 82.4359 308.012 82.1709 308.191 81.8405V79.92H307.076C305.582 79.92 304.787 80.4363 304.691 81.4688L304.68 81.6443C304.68 82.016 304.811 82.3224 305.073 82.5633C305.334 82.8042 305.692 82.9247 306.146 82.9247ZM316.626 85H313.632V73.8282H316.626V85ZM313.457 70.9372C313.457 70.4898 313.605 70.1215 313.901 69.8324C314.203 69.5433 314.613 69.3988 315.129 69.3988C315.639 69.3988 316.045 69.5433 316.348 69.8324C316.65 70.1215 316.802 70.4898 316.802 70.9372C316.802 71.3915 316.647 71.7632 316.337 72.0523C316.034 72.3414 315.632 72.486 315.129 72.486C314.627 72.486 314.221 72.3414 313.911 72.0523C313.608 71.7632 313.457 71.3915 313.457 70.9372ZM318.629 79.3315C318.629 77.59 319.018 76.203 319.796 75.1705C320.581 74.138 321.651 73.6217 323.007 73.6217C324.095 73.6217 324.993 74.0278 325.702 74.8401V69.1406H328.696V85H326.002L325.857 83.8126C325.114 84.7419 324.157 85.2065 322.987 85.2065C321.672 85.2065 320.615 84.6902 319.817 83.6577C319.025 82.6183 318.629 81.1763 318.629 79.3315ZM321.613 79.5483C321.613 80.5946 321.796 81.3965 322.161 81.9541C322.525 82.5116 323.055 82.7904 323.751 82.7904C324.673 82.7904 325.324 82.4015 325.702 81.6237V77.2149C325.33 76.437 324.687 76.0481 323.771 76.0481C322.333 76.0481 321.613 77.2149 321.613 79.5483ZM347.168 72.4756H342.563V85H339.465V72.4756H334.922V69.9666H347.168V72.4756ZM351.897 85H348.903V73.8282H351.897V85ZM348.727 70.9372C348.727 70.4898 348.875 70.1215 349.171 69.8324C349.474 69.5433 349.884 69.3988 350.4 69.3988C350.909 69.3988 351.315 69.5433 351.618 69.8324C351.921 70.1215 352.072 70.4898 352.072 70.9372C352.072 71.3915 351.918 71.7632 351.608 72.0523C351.305 72.3414 350.902 72.486 350.4 72.486C349.897 72.486 349.491 72.3414 349.181 72.0523C348.879 71.7632 348.727 71.3915 348.727 70.9372ZM357.163 73.8282L357.256 75.0776C358.047 74.107 359.118 73.6217 360.467 73.6217C361.905 73.6217 362.893 74.1896 363.43 75.3254C364.215 74.1896 365.333 73.6217 366.786 73.6217C367.997 73.6217 368.899 73.9762 369.491 74.6852C370.083 75.3873 370.379 76.4474 370.379 77.8653V85H367.385V77.8757C367.385 77.2424 367.261 76.7812 367.013 76.4921C366.765 76.1961 366.328 76.0481 365.702 76.0481C364.807 76.0481 364.187 76.4749 363.843 77.3284L363.853 85H360.869V77.886C360.869 77.239 360.742 76.7709 360.487 76.4818C360.233 76.1927 359.799 76.0481 359.186 76.0481C358.34 76.0481 357.727 76.3992 357.349 77.1013V85H354.365V73.8282H357.163ZM377.823 85.2065C376.185 85.2065 374.85 84.704 373.817 83.699C372.792 82.6941 372.279 81.3552 372.279 79.6826V79.3935C372.279 78.2715 372.496 77.2699 372.929 76.3889C373.363 75.5009 373.975 74.8194 374.767 74.3445C375.566 73.8626 376.474 73.6217 377.493 73.6217C379.021 73.6217 380.222 74.1036 381.096 75.0672C381.977 76.0309 382.418 77.3973 382.418 79.1663V80.3847H375.304C375.4 81.1143 375.689 81.6994 376.171 82.1399C376.66 82.5805 377.276 82.8008 378.019 82.8008C379.169 82.8008 380.067 82.3843 380.714 81.5514L382.18 83.1931C381.733 83.8264 381.127 84.322 380.363 84.6799C379.599 85.031 378.753 85.2065 377.823 85.2065ZM377.483 76.0378C376.891 76.0378 376.409 76.2374 376.037 76.6367C375.672 77.0359 375.438 77.6072 375.335 78.3506H379.486V78.1131C379.472 77.4523 379.293 76.943 378.949 76.585C378.605 76.2202 378.116 76.0378 377.483 76.0378ZM401.932 77.824C401.932 79.304 401.671 80.6015 401.148 81.7166C400.625 82.8317 399.874 83.6922 398.897 84.2979C397.926 84.9036 396.811 85.2065 395.551 85.2065C394.306 85.2065 393.194 84.9071 392.216 84.3082C391.239 83.7094 390.482 82.8558 389.945 81.7476C389.408 80.6325 389.136 79.3522 389.129 77.9066V77.1632C389.129 75.6833 389.394 74.3823 389.924 73.2603C390.461 72.1315 391.215 71.2676 392.186 70.6687C393.163 70.063 394.278 69.7601 395.531 69.7601C396.784 69.7601 397.895 70.063 398.866 70.6687C399.843 71.2676 400.597 72.1315 401.127 73.2603C401.664 74.3823 401.932 75.6799 401.932 77.1529V77.824ZM398.794 77.1426C398.794 75.5663 398.511 74.3686 397.947 73.5494C397.382 72.7303 396.577 72.3208 395.531 72.3208C394.491 72.3208 393.69 72.7269 393.125 73.5391C392.561 74.3445 392.275 75.5284 392.268 77.091V77.824C392.268 79.359 392.55 80.5499 393.115 81.3965C393.679 82.2432 394.491 82.6665 395.551 82.6665C396.591 82.6665 397.389 82.2604 397.947 81.4482C398.504 80.629 398.787 79.4382 398.794 77.8757V77.1426ZM404.803 85V76.0172H403.14V73.8282H404.803V72.8783C404.803 71.6255 405.161 70.655 405.877 69.9666C406.599 69.2714 407.608 68.9238 408.902 68.9238C409.315 68.9238 409.821 68.9926 410.42 69.1303L410.389 71.4431C410.141 71.3812 409.838 71.3502 409.48 71.3502C408.358 71.3502 407.797 71.8768 407.797 72.9299V73.8282H410.017V76.0172H407.797V85H404.803ZM412.381 85V76.0172H410.719V73.8282H412.381V72.8783C412.381 71.6255 412.739 70.655 413.455 69.9666C414.178 69.2714 415.186 68.9238 416.481 68.9238C416.894 68.9238 417.399 68.9926 417.998 69.1303L417.967 71.4431C417.72 71.3812 417.417 71.3502 417.059 71.3502C415.937 71.3502 415.376 71.8768 415.376 72.9299V73.8282H417.596V76.0172H415.376V85H412.381Z" fill="#333333"/>
<path id="sub-header_2" d="M209.3 110.248C207.84 109.829 206.777 109.315 206.109 108.706C205.448 108.092 205.117 107.336 205.117 106.438C205.117 105.421 205.521 104.582 206.331 103.921C207.146 103.253 208.204 102.919 209.503 102.919C210.39 102.919 211.178 103.091 211.87 103.433C212.567 103.776 213.105 104.249 213.483 104.851C213.867 105.454 214.059 106.113 214.059 106.828H212.348C212.348 106.048 212.1 105.436 211.604 104.993C211.108 104.544 210.407 104.319 209.503 104.319C208.665 104.319 208.009 104.506 207.536 104.878C207.069 105.244 206.836 105.755 206.836 106.411C206.836 106.937 207.057 107.383 207.501 107.749C207.95 108.11 208.709 108.44 209.778 108.742C210.854 109.043 211.692 109.377 212.295 109.743C212.904 110.104 213.353 110.526 213.642 111.011C213.938 111.495 214.085 112.065 214.085 112.721C214.085 113.767 213.678 114.606 212.862 115.238C212.047 115.864 210.957 116.177 209.592 116.177C208.706 116.177 207.879 116.009 207.111 115.672C206.343 115.329 205.749 114.863 205.329 114.272C204.916 113.681 204.709 113.01 204.709 112.26H206.419C206.419 113.04 206.706 113.657 207.279 114.112C207.858 114.561 208.629 114.786 209.592 114.786C210.49 114.786 211.178 114.603 211.657 114.236C212.136 113.87 212.375 113.371 212.375 112.739C212.375 112.106 212.153 111.619 211.71 111.276C211.267 110.928 210.464 110.585 209.3 110.248ZM219.864 114.839C220.448 114.839 220.959 114.662 221.397 114.307C221.834 113.953 222.076 113.51 222.123 112.978H223.674C223.645 113.527 223.456 114.05 223.107 114.547C222.759 115.043 222.292 115.439 221.707 115.734C221.128 116.03 220.513 116.177 219.864 116.177C218.558 116.177 217.518 115.743 216.744 114.874C215.976 114 215.592 112.807 215.592 111.294V111.019C215.592 110.086 215.763 109.256 216.106 108.529C216.449 107.802 216.939 107.238 217.577 106.836C218.221 106.435 218.98 106.234 219.855 106.234C220.93 106.234 221.822 106.556 222.531 107.2C223.246 107.844 223.627 108.68 223.674 109.708H222.123C222.076 109.087 221.84 108.579 221.414 108.183C220.995 107.782 220.475 107.581 219.855 107.581C219.022 107.581 218.375 107.882 217.914 108.485C217.459 109.081 217.231 109.947 217.231 111.081V111.392C217.231 112.496 217.459 113.347 217.914 113.944C218.369 114.541 219.019 114.839 219.864 114.839ZM227.157 107.572C227.884 106.68 228.829 106.234 229.993 106.234C232.02 106.234 233.042 107.377 233.059 109.663V116H231.42V109.655C231.414 108.963 231.255 108.452 230.941 108.121C230.634 107.791 230.153 107.625 229.497 107.625C228.965 107.625 228.498 107.767 228.097 108.051C227.695 108.334 227.382 108.706 227.157 109.167V116H225.518V102.388H227.157V107.572ZM239.494 116.177C238.194 116.177 237.136 115.752 236.321 114.901C235.505 114.044 235.098 112.901 235.098 111.471V111.17C235.098 110.219 235.278 109.371 235.638 108.627C236.005 107.876 236.513 107.291 237.163 106.872C237.819 106.446 238.528 106.234 239.29 106.234C240.536 106.234 241.505 106.644 242.197 107.466C242.888 108.287 243.233 109.463 243.233 110.993V111.675H236.737C236.761 112.621 237.036 113.386 237.562 113.971C238.093 114.55 238.767 114.839 239.582 114.839C240.161 114.839 240.652 114.721 241.053 114.485C241.455 114.248 241.807 113.935 242.108 113.545L243.109 114.325C242.306 115.56 241.101 116.177 239.494 116.177ZM239.29 107.581C238.628 107.581 238.073 107.823 237.624 108.308C237.175 108.786 236.897 109.46 236.791 110.328H241.594V110.204C241.547 109.371 241.322 108.727 240.92 108.272C240.519 107.811 239.975 107.581 239.29 107.581ZM244.74 111.126C244.74 109.655 245.089 108.473 245.786 107.581C246.483 106.683 247.396 106.234 248.524 106.234C249.647 106.234 250.536 106.618 251.192 107.386V102.388H252.831V116H251.325L251.245 114.972C250.589 115.775 249.676 116.177 248.506 116.177C247.396 116.177 246.489 115.722 245.786 114.812C245.089 113.903 244.74 112.715 244.74 111.25V111.126ZM246.38 111.312C246.38 112.399 246.604 113.25 247.053 113.864C247.502 114.479 248.122 114.786 248.914 114.786C249.954 114.786 250.713 114.319 251.192 113.386V108.981C250.701 108.077 249.948 107.625 248.932 107.625C248.128 107.625 247.502 107.935 247.053 108.556C246.604 109.176 246.38 110.095 246.38 111.312ZM261.304 115.052C260.666 115.802 259.729 116.177 258.494 116.177C257.472 116.177 256.692 115.882 256.155 115.291C255.623 114.694 255.354 113.814 255.348 112.65V106.411H256.988V112.606C256.988 114.059 257.579 114.786 258.76 114.786C260.013 114.786 260.846 114.319 261.259 113.386V106.411H262.899V116H261.339L261.304 115.052ZM267.179 116H265.54V102.388H267.179V116ZM273.791 116.177C272.491 116.177 271.433 115.752 270.618 114.901C269.803 114.044 269.395 112.901 269.395 111.471V111.17C269.395 110.219 269.575 109.371 269.936 108.627C270.302 107.876 270.81 107.291 271.46 106.872C272.116 106.446 272.825 106.234 273.587 106.234C274.833 106.234 275.802 106.644 276.494 107.466C277.185 108.287 277.531 109.463 277.531 110.993V111.675H271.034C271.058 112.621 271.333 113.386 271.859 113.971C272.39 114.55 273.064 114.839 273.879 114.839C274.458 114.839 274.949 114.721 275.35 114.485C275.752 114.248 276.104 113.935 276.405 113.545L277.406 114.325C276.603 115.56 275.398 116.177 273.791 116.177ZM273.587 107.581C272.925 107.581 272.37 107.823 271.921 108.308C271.472 108.786 271.194 109.46 271.088 110.328H275.891V110.204C275.844 109.371 275.619 108.727 275.217 108.272C274.816 107.811 274.272 107.581 273.587 107.581ZM292.038 111.312C292.038 112.771 291.704 113.947 291.037 114.839C290.369 115.731 289.465 116.177 288.325 116.177C287.161 116.177 286.245 115.808 285.578 115.069V119.687H283.938V106.411H285.436L285.515 107.474C286.183 106.647 287.111 106.234 288.298 106.234C289.45 106.234 290.36 106.668 291.028 107.536C291.701 108.405 292.038 109.613 292.038 111.161V111.312ZM290.399 111.126C290.399 110.045 290.168 109.191 289.707 108.565C289.247 107.938 288.614 107.625 287.811 107.625C286.818 107.625 286.074 108.065 285.578 108.946V113.527C286.068 114.402 286.818 114.839 287.829 114.839C288.614 114.839 289.238 114.529 289.698 113.908C290.165 113.282 290.399 112.355 290.399 111.126ZM300.05 116C299.955 115.811 299.878 115.474 299.819 114.99C299.057 115.781 298.147 116.177 297.09 116.177C296.144 116.177 295.367 115.911 294.759 115.38C294.156 114.842 293.855 114.163 293.855 113.341C293.855 112.343 294.233 111.569 294.989 111.019C295.751 110.464 296.821 110.186 298.197 110.186H299.793V109.433C299.793 108.86 299.621 108.405 299.279 108.068C298.936 107.726 298.431 107.554 297.763 107.554C297.178 107.554 296.688 107.702 296.292 107.997C295.896 108.293 295.698 108.65 295.698 109.07H294.05C294.05 108.591 294.218 108.13 294.555 107.687C294.898 107.238 295.359 106.884 295.938 106.624C296.522 106.364 297.164 106.234 297.861 106.234C298.966 106.234 299.831 106.511 300.457 107.067C301.084 107.616 301.409 108.375 301.432 109.344V113.758C301.432 114.638 301.544 115.338 301.769 115.858V116H300.05ZM297.329 114.75C297.843 114.75 298.33 114.617 298.791 114.352C299.252 114.086 299.586 113.74 299.793 113.315V111.347H298.508C296.499 111.347 295.494 111.935 295.494 113.111C295.494 113.625 295.666 114.027 296.008 114.316C296.351 114.606 296.791 114.75 297.329 114.75ZM305.784 116H304.144V106.411H305.784V116ZM304.011 103.868C304.011 103.602 304.091 103.377 304.25 103.194C304.416 103.011 304.658 102.919 304.977 102.919C305.296 102.919 305.538 103.011 305.704 103.194C305.869 103.377 305.952 103.602 305.952 103.868C305.952 104.133 305.869 104.355 305.704 104.532C305.538 104.709 305.296 104.798 304.977 104.798C304.658 104.798 304.416 104.709 304.25 104.532C304.091 104.355 304.011 104.133 304.011 103.868ZM308.017 111.126C308.017 109.655 308.365 108.473 309.063 107.581C309.76 106.683 310.673 106.234 311.801 106.234C312.924 106.234 313.813 106.618 314.469 107.386V102.388H316.108V116H314.602L314.522 114.972C313.866 115.775 312.953 116.177 311.783 116.177C310.673 116.177 309.766 115.722 309.063 114.812C308.365 113.903 308.017 112.715 308.017 111.25V111.126ZM309.656 111.312C309.656 112.399 309.881 113.25 310.33 113.864C310.779 114.479 311.399 114.786 312.191 114.786C313.231 114.786 313.99 114.319 314.469 113.386V108.981C313.978 108.077 313.225 107.625 312.209 107.625C311.405 107.625 310.779 107.935 310.33 108.556C309.881 109.176 309.656 110.095 309.656 111.312ZM325.387 104.089V106.411H327.177V107.678H325.387V113.625C325.387 114.009 325.467 114.298 325.626 114.493C325.786 114.682 326.058 114.777 326.442 114.777C326.631 114.777 326.891 114.742 327.221 114.671V116C326.79 116.118 326.371 116.177 325.963 116.177C325.23 116.177 324.678 115.956 324.306 115.513C323.934 115.069 323.747 114.44 323.747 113.625V107.678H322.002V106.411H323.747V104.089H325.387ZM330.882 116H329.242V106.411H330.882V116ZM329.109 103.868C329.109 103.602 329.189 103.377 329.348 103.194C329.514 103.011 329.756 102.919 330.075 102.919C330.394 102.919 330.636 103.011 330.802 103.194C330.967 103.377 331.05 103.602 331.05 103.868C331.05 104.133 330.967 104.355 330.802 104.532C330.636 104.709 330.394 104.798 330.075 104.798C329.756 104.798 329.514 104.709 329.348 104.532C329.189 104.355 329.109 104.133 329.109 103.868ZM335.056 106.411L335.1 107.474C335.803 106.647 336.751 106.234 337.945 106.234C339.286 106.234 340.199 106.748 340.683 107.776C341.002 107.315 341.416 106.943 341.924 106.659C342.438 106.376 343.044 106.234 343.741 106.234C345.844 106.234 346.914 107.347 346.949 109.575V116H345.309V109.672C345.309 108.987 345.153 108.476 344.84 108.139C344.527 107.796 344.001 107.625 343.262 107.625C342.654 107.625 342.149 107.808 341.747 108.175C341.345 108.535 341.112 109.022 341.047 109.637V116H339.398V109.717C339.398 108.322 338.716 107.625 337.351 107.625C336.276 107.625 335.54 108.083 335.144 108.999V116H333.505V106.411H335.056ZM353.41 116.177C352.11 116.177 351.052 115.752 350.237 114.901C349.422 114.044 349.014 112.901 349.014 111.471V111.17C349.014 110.219 349.194 109.371 349.554 108.627C349.921 107.876 350.429 107.291 351.079 106.872C351.735 106.446 352.444 106.234 353.206 106.234C354.452 106.234 355.421 106.644 356.113 107.466C356.804 108.287 357.149 109.463 357.149 110.993V111.675H350.653C350.677 112.621 350.952 113.386 351.478 113.971C352.009 114.55 352.683 114.839 353.498 114.839C354.077 114.839 354.568 114.721 354.969 114.485C355.371 114.248 355.723 113.935 356.024 113.545L357.025 114.325C356.222 115.56 355.017 116.177 353.41 116.177ZM353.206 107.581C352.544 107.581 351.989 107.823 351.54 108.308C351.091 108.786 350.813 109.46 350.707 110.328H355.51V110.204C355.463 109.371 355.238 108.727 354.836 108.272C354.435 107.811 353.891 107.581 353.206 107.581ZM363.123 111.117C363.123 110.177 363.306 109.333 363.672 108.582C364.044 107.832 364.558 107.253 365.214 106.845C365.876 106.438 366.629 106.234 367.474 106.234C368.78 106.234 369.834 106.686 370.638 107.59C371.447 108.494 371.852 109.696 371.852 111.197V111.312C371.852 112.245 371.672 113.084 371.311 113.829C370.957 114.567 370.446 115.143 369.778 115.557C369.117 115.97 368.354 116.177 367.492 116.177C366.192 116.177 365.137 115.725 364.328 114.821C363.524 113.917 363.123 112.721 363.123 111.232V111.117ZM364.771 111.312C364.771 112.375 365.016 113.229 365.507 113.873C366.003 114.517 366.665 114.839 367.492 114.839C368.325 114.839 368.987 114.514 369.477 113.864C369.967 113.208 370.213 112.293 370.213 111.117C370.213 110.065 369.961 109.214 369.459 108.565C368.963 107.909 368.301 107.581 367.474 107.581C366.665 107.581 366.012 107.903 365.515 108.547C365.019 109.191 364.771 110.112 364.771 111.312ZM374.715 116V107.678H373.199V106.411H374.715V105.427C374.715 104.399 374.989 103.605 375.539 103.043C376.088 102.482 376.865 102.201 377.87 102.201C378.248 102.201 378.623 102.252 378.995 102.352L378.906 103.681C378.629 103.628 378.333 103.602 378.02 103.602C377.488 103.602 377.078 103.758 376.788 104.071C376.499 104.379 376.354 104.822 376.354 105.401V106.411H378.401V107.678H376.354V116H374.715ZM381.025 116V107.678H379.509V106.411H381.025V105.427C381.025 104.399 381.299 103.605 381.849 103.043C382.398 102.482 383.175 102.201 384.18 102.201C384.558 102.201 384.933 102.252 385.305 102.352L385.216 103.681C384.939 103.628 384.643 103.602 384.33 103.602C383.798 103.602 383.388 103.758 383.098 104.071C382.809 104.379 382.664 104.822 382.664 105.401V106.411H384.711V107.678H382.664V116H381.025Z" fill="#494949"/>
</g>
</g>
<g id="animation">
<g id="bg">
<path id="Vector" fill-rule="evenodd" clip-rule="evenodd" d="M90 179.5C139.705 179.5 180 139.205 180 89.5C180 39.795 139.705 -0.5 90 -0.5C40.295 -0.5 0 39.795 0 89.5C0 139.205 40.295 179.5 90 179.5Z" fill="#0B77E3" fill-opacity="0.2"/>
</g>
<g id="baloons">
<g id="Group">
<path id="Vector_2" fill-rule="evenodd" clip-rule="evenodd" d="M54.7427 133.723C72.6312 133.723 93.8732 107.193 93.8732 80.9266C93.8732 54.6603 78.401 36.5664 55.4001 36.5664C32.4012 36.5664 15.6123 54.7464 15.6123 81.0127C15.6123 107.279 36.8543 133.723 54.7427 133.723Z" fill="#40A0FF"/>
<path id="Vector_3" d="M25.7529 78.0244C26.4553 69.1457 29.8616 61.4527 35.9738 54.9434" stroke="white" stroke-width="14.1304" stroke-linecap="round" stroke-linejoin="round"/>
<path id="Vector_4" d="M41.3906 49.5432C42.1507 49.0957 42.9225 48.6684 43.7052 48.2617" stroke="white" stroke-width="14.1304" stroke-linecap="round"/>
<path id="Vector_5" d="M49.0257 134.913C31.8826 130.173 14 105.433 14 80.843C14 53.4967 31.4796 34.5654 55.4274 34.5654C79.3752 34.5654 95.4833 53.4067 95.4833 80.753C95.4833 105.9 76.7848 131.28 59.2935 135.203L60.9565 140.807H55.9576C54.8483 144.317 54.2946 147.756 54.2946 151.129C54.2946 153.538 54.6663 154.866 55.67 156.834C55.7307 156.952 56.2707 157.985 56.4389 158.319C58.2115 161.841 59.0176 165.343 59 171.526L55.087 171.516C55.1026 165.94 54.4354 163.044 52.9426 160.078C52.792 159.775 52.2598 158.758 52.1874 158.617C50.9157 156.132 50.3815 154.211 50.3815 151.129C50.3815 147.729 50.8804 144.285 51.8724 140.805H47.2609L49.0257 134.913ZM54.7426 131.812C71.4846 131.812 91.5702 105.419 91.5702 80.753C91.5702 55.3574 76.9941 38.4785 55.4274 38.4785C33.5457 38.4785 17.913 55.782 17.913 80.843C17.913 105.495 37.987 131.81 54.7426 131.81V131.812Z" fill="#005CB9"/>
</g>
<g id="Group_2">
<path id="Vector_6" fill-rule="evenodd" clip-rule="evenodd" d="M119.573 138.506C139.941 138.506 164.123 108.3 164.123 78.3963C164.123 48.4928 146.509 27.8906 120.323 27.8906C94.1367 27.8906 75.0234 48.5906 75.0234 78.4941C75.0234 108.398 99.2061 138.506 119.573 138.506Z" fill="white"/>
<path id="Vector_7" d="M122.495 147.866C121.332 150.675 120.744 154.074 120.744 158.079C120.744 161.323 121.252 163.107 122.647 165.866L123.316 167.173C125.427 171.36 126.339 174.995 126.316 181.475L122.547 181.459C122.571 175.633 121.814 172.612 119.977 168.971L119.311 167.67C117.652 164.396 116.977 162.017 116.977 158.079C116.977 154.25 117.47 150.842 118.462 147.866L113.782 147.86L115.559 141.037C95.0936 137.48 72.6953 107.769 72.6953 78.2487C72.6953 46.782 92.8083 25 120.362 25C147.916 25 166.452 46.6783 166.452 78.145C166.452 106.698 145.497 135.514 125.606 140.605L127.478 147.868L122.495 147.866ZM119.574 137.48C139.203 137.48 162.539 106.818 162.539 78.143C162.539 48.6133 145.523 28.913 120.362 28.913C94.8451 28.913 76.6084 49.1004 76.6084 78.2487C76.6084 106.908 99.9301 137.48 119.574 137.48ZM105.021 43.6887C104.798 43.8228 104.55 43.911 104.292 43.9482C104.035 43.9853 103.772 43.9707 103.52 43.9051C103.268 43.8395 103.032 43.7243 102.825 43.5661C102.618 43.408 102.445 43.2102 102.316 42.9843C102.186 42.7584 102.103 42.5089 102.071 42.2505C102.04 41.9921 102.06 41.7299 102.13 41.4793C102.201 41.2288 102.321 40.9949 102.484 40.7914C102.646 40.5879 102.848 40.4188 103.076 40.2941C104.407 39.533 105.189 39.1007 105.536 38.9363C106.006 38.7165 106.544 38.6926 107.032 38.8696C107.519 39.0466 107.917 39.4102 108.137 39.8803C108.356 40.3505 108.38 40.8886 108.203 41.3764C108.026 41.8643 107.663 42.2618 107.193 42.4815C106.987 42.5793 106.228 42.998 105.021 43.6887ZM88.4297 71.6474C88.3721 72.1632 88.1119 72.635 87.7065 72.959C87.301 73.2829 86.7835 73.4326 86.2677 73.375C85.7519 73.3174 85.2801 73.0573 84.9561 72.6518C84.6322 72.2464 84.4825 71.7288 84.5401 71.213C85.7531 60.3583 90.3079 51.4424 98.177 44.5613C98.369 44.3837 98.5947 44.2464 98.8407 44.1575C99.0866 44.0687 99.3479 44.03 99.6091 44.0438C99.8703 44.0577 100.126 44.1237 100.361 44.2381C100.596 44.3525 100.806 44.5128 100.978 44.7097C101.151 44.9066 101.282 45.136 101.363 45.3844C101.445 45.6327 101.477 45.895 101.456 46.1557C101.435 46.4163 101.361 46.6701 101.24 46.902C101.12 47.134 100.953 47.3393 100.752 47.5059C93.6301 53.7354 89.5331 61.7513 88.4297 71.6474Z" fill="#005CB9"/>
</g>
</g>
</g>
</g>
<path d="M6 1H909V-1H6V1ZM914 6V176H916V6H914ZM909 181H6.00003V183H909V181ZM1 176V6H-1V176H1ZM6.00003 181C3.2386 181 1 178.761 1 176H-1C-1 179.866 2.13404 183 6.00003 183V181ZM914 176C914 178.761 911.761 181 909 181V183C912.866 183 916 179.866 916 176H914ZM909 1C911.761 1 914 3.23858 914 6H916C916 2.134 912.866 -1 909 -1V1ZM6 -1C2.13401 -1 -1 2.13401 -1 6H1C1 3.23858 3.23858 1 6 1V-1Z" fill="#F0F1F2"/>
</g>
<defs>
<filter id="filter0_d_3:146442" x="-2" y="-1" width="923" height="190" filterUnits="userSpaceOnUse" color-interpolation-filters="sRGB">
<feFlood flood-opacity="0" result="BackgroundImageFix"/>
<feColorMatrix in="SourceAlpha" type="matrix" values="0 0 0 0 0 0 0 0 0 0 0 0 0 0 0 0 0 0 127 0" result="hardAlpha"/>
<feOffset dx="2" dy="3"/>
<feGaussianBlur stdDeviation="2"/>
<feComposite in2="hardAlpha" operator="out"/>
<feColorMatrix type="matrix" values="0 0 0 0 0 0 0 0 0 0 0 0 0 0 0 0 0 0 0.2 0"/>
<feBlend mode="normal" in2="BackgroundImageFix" result="effect1_dropShadow_3:146442"/>
<feBlend mode="normal" in="SourceGraphic" in2="effect1_dropShadow_3:146442" result="shape"/>
</filter>
<clipPath id="clip0_3:146442">
<path d="M0 6C0 2.68629 2.68629 0 6 0H909C912.314 0 915 2.68629 915 6V176C915 179.314 912.314 182 909 182H6.00003C2.68632 182 0 179.314 0 176V6Z" fill="white"/>
</clipPath>
</defs>
</svg>
