<svg width="216" height="213" viewBox="0 0 216 213" fill="none" xmlns="http://www.w3.org/2000/svg">
<path d="M22.1096 180.717L27.8474 198.515L33.5164 180.717H39.4603L30.596 205.112H25.0644L16.1313 180.717H22.1096ZM41.722 205.112V180.717H47.3567V205.112H41.722ZM52.0227 205.112V180.717H57.6574V191.231L66.5905 180.717H72.9123L63.7731 191.609L73.5308 205.112H67.0715L60.1999 195.32L57.6574 197.931V205.112H52.0227ZM92.4864 200.164V205.112H75.3418V180.717H92.1772V185.665H80.9765V190.406H90.5967V194.976H80.9765V200.164H92.4864ZM103.929 205.112V180.717H109.563V200.164H121.382V205.112H103.929ZM130.177 180.717H136.258L144.641 205.112H138.869L136.98 199.649H129.387L127.531 205.112H121.759L130.177 180.717ZM136.052 195.766L133.2 186.387L130.28 195.766H136.052ZM167.212 198.858C167.212 200.256 166.834 201.424 166.078 202.363C165.322 203.279 164.314 203.966 163.055 204.424C161.818 204.883 160.443 205.112 158.932 205.112H147.044V180.717H160.615C161.76 180.717 162.745 181.027 163.57 181.645C164.395 182.241 165.036 183.019 165.494 183.981C165.952 184.943 166.181 185.94 166.181 186.971C166.181 188.116 165.883 189.215 165.288 190.269C164.692 191.323 163.822 192.101 162.677 192.605C164.051 193.018 165.15 193.751 165.975 194.804C166.8 195.858 167.212 197.209 167.212 198.858ZM152.679 185.528V190.578H158.21C158.829 190.578 159.378 190.372 159.859 189.96C160.34 189.547 160.581 188.906 160.581 188.036C160.581 187.234 160.363 186.616 159.928 186.18C159.516 185.745 159.012 185.528 158.416 185.528H152.679ZM161.474 197.725C161.474 196.969 161.257 196.327 160.821 195.801C160.386 195.274 159.836 195.01 159.172 195.01H152.679V200.336H158.932C159.642 200.336 160.237 200.095 160.718 199.614C161.222 199.11 161.474 198.48 161.474 197.725ZM185.167 187.864C185.098 187.772 184.858 187.6 184.446 187.349C184.033 187.097 183.518 186.833 182.9 186.558C182.281 186.261 181.605 186.02 180.872 185.837C180.139 185.631 179.406 185.528 178.673 185.528C176.658 185.528 175.65 186.203 175.65 187.555C175.65 188.379 176.085 188.963 176.956 189.307C177.849 189.651 179.12 190.063 180.769 190.544C182.327 190.979 183.667 191.483 184.789 192.056C185.934 192.605 186.816 193.35 187.435 194.289C188.053 195.205 188.362 196.419 188.362 197.931C188.362 199.305 188.11 200.473 187.607 201.435C187.103 202.374 186.415 203.142 185.545 203.737C184.675 204.31 183.69 204.734 182.59 205.008C181.514 205.26 180.391 205.386 179.223 205.386C177.414 205.386 175.581 205.123 173.726 204.596C171.871 204.046 170.233 203.302 168.813 202.363L171.287 197.45C171.378 197.564 171.676 197.782 172.18 198.103C172.684 198.4 173.314 198.721 174.07 199.065C174.825 199.408 175.65 199.706 176.543 199.958C177.46 200.187 178.387 200.301 179.326 200.301C181.319 200.301 182.315 199.694 182.315 198.48C182.315 197.862 182.052 197.381 181.525 197.037C181.021 196.671 180.323 196.362 179.429 196.11C178.536 195.835 177.528 195.526 176.406 195.182C174.161 194.495 172.501 193.659 171.424 192.674C170.37 191.689 169.844 190.28 169.844 188.448C169.844 186.73 170.244 185.287 171.046 184.119C171.871 182.928 172.97 182.035 174.344 181.439C175.719 180.821 177.219 180.511 178.845 180.511C180.563 180.511 182.189 180.809 183.724 181.405C185.259 181.977 186.564 182.573 187.641 183.191L185.167 187.864Z" fill="#222B49"/>
<path d="M155.088 97.6303L172.289 96.1624L171.258 84.0828L154.058 85.5507L155.088 97.6303Z" fill="#4C6EA5"/>
<path d="M167.543 80.6438H150.273V92.7719H167.543V80.6438Z" fill="#4C6EA5"/>
<path d="M61.1559 88.9924H48.25V101.121H61.1559V88.9924Z" fill="#4C6EA5"/>
<path d="M65.3942 79.884H43.1504V92.0121H65.3942V79.884Z" fill="#4C6EA5"/>
<path d="M67.8471 56.1462H57.9707V65.3106H67.8471V56.1462Z" fill="#4C6EA5"/>
<path d="M63.4045 50.8032H48.7734V69.132H63.4045V50.8032Z" fill="#4C6EA5"/>
<path d="M170.136 54.2915H152.992V73.059H170.136V54.2915Z" fill="#4C6EA5"/>
<path d="M72.7306 62.9873H63.638C63.3957 62.9873 63.1992 63.1838 63.1992 63.4261V69.9119C63.1992 70.1543 63.3957 70.3507 63.638 70.3507H72.7306C72.9729 70.3507 73.1693 70.1543 73.1693 69.9119V63.4261C73.1693 63.1838 72.9729 62.9873 72.7306 62.9873Z" fill="#4C6EA5"/>
<path d="M70.6432 72.5923H55.4756C55.0317 72.5923 54.6719 72.9521 54.6719 73.396V86.5134C54.6719 86.9573 55.0317 87.3171 55.4756 87.3171H70.6432C71.0871 87.3171 71.447 86.9573 71.447 86.5134V73.396C71.447 72.9521 71.0871 72.5923 70.6432 72.5923Z" fill="#4C6EA5"/>
<path d="M107.592 66.8723H34.1094V82.0718H107.592V66.8723Z" fill="#4C6EA5"/>
<path d="M174.205 65.165H147.516C147.087 65.165 146.738 65.5133 146.738 65.9429V72.5564C146.738 72.9859 147.087 73.3342 147.516 73.3342H174.205C174.635 73.3342 174.983 72.9859 174.983 72.5564V65.9429C174.983 65.5133 174.635 65.165 174.205 65.165Z" fill="#4C6EA5"/>
<path d="M173.456 70.5581H118.686V85.7576H173.456V70.5581Z" fill="#4C6EA5"/>
<path d="M156.128 75.7036H146.081C145.755 75.7036 145.49 75.9679 145.49 76.294V86.998C145.49 87.3241 145.755 87.5884 146.081 87.5884H156.128C156.455 87.5884 156.719 87.3241 156.719 86.998V76.294C156.719 75.9679 156.455 75.7036 156.128 75.7036Z" fill="#4C6EA5"/>
<path d="M107.206 62.4765C93.2336 71.607 76.3029 69.6425 68.5147 60.52C61.4525 52.2571 64.2147 40.861 64.6435 39.2036" stroke="#222B49" stroke-width="4.90827" stroke-miterlimit="10"/>
<path d="M104.228 87.4926C90.2551 78.3622 73.3244 80.3267 65.5362 89.4511C58.474 97.712 61.2362 109.108 61.665 110.768" stroke="#222B49" stroke-width="4.90827" stroke-miterlimit="10"/>
<path d="M112.074 66.0366C126.049 75.1671 142.988 73.2026 150.778 64.0781C157.84 55.8172 155.078 44.4211 154.647 42.7617" stroke="#222B49" stroke-width="4.90827" stroke-miterlimit="10"/>
<path d="M115.057 91.0526C129.03 81.9222 145.97 83.8867 153.748 93.0092C160.811 101.272 158.048 112.666 157.62 114.326" stroke="#222B49" stroke-width="4.90827" stroke-miterlimit="10"/>
<path d="M70.6496 143.392L4 80.2708L67.9153 23.5693L76.1323 31.0584L56.9998 55.159L39.6084 77.0617L83.4319 141.252L70.6496 143.392Z" fill="#4C6EA5" stroke="#222B49" stroke-width="4.90827" stroke-miterlimit="10"/>
<path d="M145.559 141.974L212.211 78.8528L148.29 22.1514L140.073 29.6404L176.611 75.6438L132.785 139.834L145.559 141.974Z" fill="#4C6EA5" stroke="#222B49" stroke-width="4.90827" stroke-miterlimit="10"/>
<path d="M136.666 7.24294L123.543 3.74878L97.5757 101.273L110.698 104.767L136.666 7.24294Z" fill="#A2B9E1"/>
<path d="M105.873 128.484L92.75 124.99L81.7266 166.389L94.8494 169.884L105.873 128.484Z" fill="#A2B9E1"/>
<path d="M130.898 3.41179C126.709 1.90401 122.258 4.66628 120.969 9.58253L82.0622 158.221C80.7758 163.137 83.1332 168.345 87.3275 169.852C91.5217 171.36 95.9693 168.598 97.2557 163.682L136.163 15.0433C136.847 12.7957 136.69 10.376 135.721 8.23569C134.752 6.09539 133.038 4.38075 130.898 3.41179V3.41179Z" stroke="#222B49" stroke-width="4.90827" stroke-miterlimit="10"/>
<path d="M97.5762 101.274L110.697 104.768" stroke="#222B49" stroke-width="4.90827" stroke-miterlimit="10"/>
<path d="M92.75 124.99L105.871 128.484" stroke="#222B49" stroke-width="4.90827" stroke-miterlimit="10"/>
<path d="M109.666 107.013L98.7422 104.104L93.7763 122.754L104.7 125.663L109.666 107.013Z" fill="#E6EEF9"/>
</svg>
