<svg width="160" height="160" viewBox="0 0 160 160" fill="none" xmlns="http://www.w3.org/2000/svg">
<circle cx="80" cy="80" r="80" fill="#3575DA"/>
<g clip-path="url(#clip0_9:139279)">
<path fill-rule="evenodd" clip-rule="evenodd" d="M42.2209 61.0865C41.7111 61.0865 41.1933 61.017 40.6781 60.8722C37.6283 60.0111 35.8455 56.8111 36.6953 53.7243C36.8192 53.2756 36.95 52.8289 37.0872 52.3864C42.983 33.3342 60.2067 20.5332 79.9461 20.5332C99.6608 20.5332 116.878 33.3134 122.789 52.3348C122.919 52.7529 123.045 53.1779 123.164 53.605C124.029 56.6883 122.259 59.8967 119.213 60.7704C116.169 61.6452 112.998 59.854 112.134 56.7709C112.044 56.452 111.952 56.1357 111.854 55.8212C107.451 41.654 94.6289 32.1385 79.9461 32.1385C65.2451 32.1385 52.4183 41.6693 48.028 55.8554C47.9273 56.1815 47.8307 56.5102 47.7398 56.8407C47.033 59.4061 44.7292 61.0865 42.2209 61.0865Z" fill="#F38B00"/>
<path fill-rule="evenodd" clip-rule="evenodd" d="M120.971 77.0166H113.083C111.965 77.0166 110.995 77.7766 110.739 78.852L100.136 122.182C99.9899 122.184 88.4525 78.8868 88.4525 78.8868C88.1588 77.7846 87.1479 77.0166 85.9921 77.0166H73.7733C72.6762 77.0166 71.717 77.7455 71.4382 78.7912L59.8164 122.368C59.3866 122.094 49.1265 78.852 49.1265 78.852C48.8704 77.7766 47.8999 77.0166 46.7825 77.0166H38.9004C37.3186 77.0166 36.1634 78.4899 36.563 79.9984L51.025 134.62C51.2999 135.66 52.2457 136.389 53.3326 136.398L65.2614 136.379C66.356 136.378 67.3104 135.659 67.5911 134.616C69.6296 127.046 79.6796 88.7619 79.6796 88.7619C79.6796 88.7619 90.2361 127.045 92.2743 134.616C92.5549 135.659 93.5093 136.378 94.6036 136.379L106.533 136.398C107.62 136.389 108.565 135.66 108.841 134.62L123.304 79.9926C123.703 78.4867 122.55 77.0166 120.971 77.0166Z" fill="white"/>
</g>
<defs>
<clipPath id="clip0_9:139279">
<rect width="115.867" height="115.867" fill="white" transform="translate(22 20.5332)"/>
</clipPath>
</defs>
</svg>
